<?xml version="1.0" standalone="no"?>
<!DOCTYPE svg PUBLIC "-//W3C//DTD SVG 1.1//EN" "http://www.w3.org/Graphics/SVG/1.1/DTD/svg11.dtd" >
<svg>
<metadata>
Created by FontForge 20100429 at Wed May 13 14:07:34 2015
 By fontface

</metadata>
<defs>
<font id="DaxlinePro-Bold" horiz-adv-x="368" >
  <font-face 
    font-family="DaxlinePro-Bold"
    font-weight="700"
    font-stretch="normal"
    units-per-em="1000"
    panose-1="2 0 5 3 6 0 0 2 0 4"
    ascent="775"
    descent="-225"
    x-height="539"
    cap-height="724"
    bbox="-388 -328 1293 1023"
    underline-thickness="93"
    underline-position="-32"
    stemh="71"
    stemv="136"
    unicode-range="U+000D-FB02"
  />
<missing-glyph horiz-adv-x="500" 
d="M0 0v700h500v-700h-500zM250 395l170 255h-340zM280 350l170 -255v510zM80 50h340l-170 255zM50 605v-510l170 255z" />
    <glyph glyph-name="fi" unicode="fi" horiz-adv-x="633" 
d="M579 693c0 -41 -35 -73 -78 -73s-77 32 -77 73s34 74 77 74s78 -33 78 -74zM570 0h-137v539h137v-539zM346 679c-2 0 -9 1 -18 1c-54 0 -96 -23 -96 -81v-60h104v-102h-104v-437h-134v437h-67v102h67v60c0 130 86 189 204 189c14 0 33 -1 44 -3v-106z" />
    <glyph glyph-name="fl" unicode="fl" horiz-adv-x="644" 
d="M581 0h-136v785h136v-785zM346 679c-2 0 -9 1 -18 1c-54 0 -96 -23 -96 -81v-60h104v-102h-104v-437h-134v437h-67v102h67v60c0 130 86 189 204 189c14 0 33 -1 44 -3v-106z" />
    <glyph glyph-name=".notdef" horiz-adv-x="500" 
d="M0 0v700h500v-700h-500zM250 395l170 255h-340zM280 350l170 -255v510zM80 50h340l-170 255zM50 605v-510l170 255z" />
    <glyph glyph-name=".null" horiz-adv-x="0" 
 />
    <glyph glyph-name=".null" horiz-adv-x="0" 
 />
    <glyph glyph-name="CR" unicode="&#xd;" horiz-adv-x="248" 
 />
    <glyph glyph-name="space" unicode=" " horiz-adv-x="248" 
 />
    <glyph glyph-name="exclam" unicode="!" horiz-adv-x="293" 
d="M227 724l-21 -471h-119l-21 471h161zM232 77c0 -47 -39 -86 -86 -86s-85 39 -85 86s38 86 85 86s86 -39 86 -86z" />
    <glyph glyph-name="quotedbl" unicode="&#x22;" horiz-adv-x="471" 
d="M407 701l-24 -304h-78l-25 304c15 21 39 32 64 32s48 -11 63 -32zM190 701l-24 -304h-78l-25 304c15 21 39 32 64 32s48 -11 63 -32z" />
    <glyph glyph-name="numbersign" unicode="#" horiz-adv-x="755" 
d="M692 445h-124l-23 -158h110v-94h-123l-27 -193h-106l28 193h-155l-27 -193h-105l27 193h-111v94h124l23 158h-110v94h124l26 185h105l-26 -185h155l26 185h105l-26 -185h110v-94zM463 445h-155l-23 -158h155z" />
    <glyph glyph-name="dollar" unicode="$" horiz-adv-x="571" 
d="M514 209c0 -115 -76 -195 -202 -215l8 -153h-112l16 148c-60 3 -131 19 -171 38l50 121c35 -19 95 -35 141 -35c79 0 125 30 125 87c0 53 -51 80 -107 104c-86 37 -199 92 -199 219c0 112 72 188 190 207l-8 146h109l-16 -141c62 -3 117 -19 153 -38l-47 -112
c-28 15 -78 31 -126 31c-75 0 -114 -30 -114 -83c0 -51 54 -81 110 -107c84 -39 200 -89 200 -217z" />
    <glyph glyph-name="percent" unicode="%" horiz-adv-x="982" 
d="M928 215c0 -131 -59 -227 -174 -227s-173 96 -173 227s58 227 173 227s174 -96 174 -227zM667 710l-267 -722l-85 26l266 722zM401 509c0 -131 -59 -227 -174 -227s-174 96 -174 227s59 227 174 227s174 -96 174 -227zM823 216c0 89 -24 137 -69 137s-68 -48 -68 -137
s23 -136 68 -136s69 47 69 136zM296 510c0 89 -24 137 -69 137s-69 -48 -69 -137s24 -136 69 -136s69 47 69 136z" />
    <glyph glyph-name="ampersand" unicode="&#x26;" horiz-adv-x="709" 
d="M676 389l-115 -19v-343c-46 -21 -130 -39 -225 -39c-183 0 -291 70 -291 207c0 99 62 161 142 189v2c-78 27 -114 88 -114 156c0 105 82 194 235 194c71 0 137 -17 178 -39l-43 -105c-30 16 -75 27 -118 27c-73 0 -116 -31 -116 -89c0 -55 43 -90 107 -90c18 0 41 1 70 6
l273 47zM427 107v241l-108 -18c-87 -14 -134 -55 -134 -125c0 -77 57 -110 155 -110c31 0 70 6 87 12z" />
    <glyph glyph-name="quotesingle" unicode="'" horiz-adv-x="254" 
d="M190 701l-24 -304h-78l-25 304c15 21 39 32 64 32s48 -11 63 -32z" />
    <glyph glyph-name="parenleft" unicode="(" horiz-adv-x="399" 
d="M371 -164l-101 -56c-131 140 -217 313 -217 517s86 378 217 518l101 -56c-99 -123 -170 -279 -170 -462s71 -338 170 -461z" />
    <glyph glyph-name="parenright" unicode=")" horiz-adv-x="399" 
d="M346 297c0 -204 -86 -377 -217 -517l-101 56c99 123 170 278 170 461s-71 339 -170 462l101 56c131 -140 217 -314 217 -518z" />
    <glyph glyph-name="asterisk" unicode="*" horiz-adv-x="580" 
d="M531 604c0 -14 -2 -25 -9 -36l-162 -37l109 -124c-2 -37 -38 -70 -75 -70c-6 0 -11 1 -17 2l-82 139l-82 -139c-6 -1 -11 -2 -17 -2c-37 0 -73 33 -75 70l109 124l-162 37c-7 11 -9 22 -9 36c0 29 16 56 43 68l149 -63l-14 163c14 17 34 26 58 26s44 -9 58 -26l-14 -163
l149 63c27 -12 43 -39 43 -68z" />
    <glyph glyph-name="plus" unicode="+" horiz-adv-x="548" 
d="M487 272h-156v-161h-114v161h-156v106h156v161h114v-161h156v-106z" />
    <glyph glyph-name="comma" unicode="," horiz-adv-x="271" 
d="M236 115l-148 -284h-95l92 284c18 27 47 48 88 48s58 -22 63 -48z" />
    <glyph glyph-name="hyphen" unicode="-" horiz-adv-x="400" 
d="M343 267h-286v116h286v-116z" />
    <glyph glyph-name="period" unicode="." horiz-adv-x="272" 
d="M222 77c0 -47 -39 -86 -86 -86s-86 39 -86 86s39 86 86 86s86 -39 86 -86z" />
    <glyph glyph-name="slash" unicode="/" horiz-adv-x="484" 
d="M453 766l-332 -968l-128 37l332 969z" />
    <glyph glyph-name="zero" unicode="0" horiz-adv-x="596" 
d="M549 270c0 -160 -85 -282 -251 -282s-251 122 -251 282s85 281 251 281s251 -121 251 -281zM411 271c0 108 -38 172 -113 172s-113 -64 -113 -172s38 -172 113 -172s113 64 113 172z" />
    <glyph glyph-name="one" unicode="1" horiz-adv-x="430" 
d="M355 0h-139v387c-38 -23 -117 -47 -172 -55l-21 105c86 14 186 60 222 102h110v-539z" />
    <glyph glyph-name="two" unicode="2" horiz-adv-x="497" 
d="M456 0h-435l233 278c22 27 46 57 46 86c0 43 -27 73 -90 73c-44 0 -97 -15 -132 -31l-38 106c48 22 125 39 193 39c147 0 209 -73 209 -169c0 -51 -32 -99 -72 -140l-125 -129h211v-113z" />
    <glyph glyph-name="three" unicode="3" horiz-adv-x="502" 
d="M464 42c0 -125 -100 -213 -260 -213c-67 0 -141 14 -194 38l42 107c37 -16 90 -29 137 -29c82 0 137 34 137 98c0 73 -75 108 -176 108h-11v100c100 7 167 49 167 108c0 48 -34 79 -102 79c-44 0 -98 -13 -138 -32l-39 106c55 24 131 39 196 39c149 0 218 -74 218 -180
c0 -69 -55 -129 -113 -153v-2c73 -25 136 -77 136 -174z" />
    <glyph glyph-name="four" unicode="4" horiz-adv-x="602" 
d="M557 0h-66v-159h-127v159h-318v97l295 442h150v-442h66v-97zM371 419h-2s-21 -45 -48 -86l-156 -236h204v226c0 46 2 96 2 96z" />
    <glyph glyph-name="five" unicode="5" horiz-adv-x="506" 
d="M469 51c0 -154 -121 -222 -263 -222c-71 0 -142 17 -192 38l42 107c33 -15 94 -29 144 -29c79 0 131 39 131 102c0 68 -47 118 -175 118c-29 0 -62 -3 -99 -8l42 382h349v-113h-233l-18 -161h18c167 0 254 -83 254 -214z" />
    <glyph glyph-name="six" unicode="6" horiz-adv-x="596" 
d="M550 216c0 -127 -99 -228 -248 -228c-178 0 -255 129 -255 275c0 235 179 397 411 447l34 -110c-141 -32 -234 -98 -279 -188c27 10 66 16 97 16c151 0 240 -79 240 -212zM416 217c0 76 -51 117 -128 117c-34 0 -77 -6 -105 -17c-3 -18 -4 -37 -4 -55
c0 -96 42 -164 123 -164c70 0 114 56 114 119z" />
    <glyph glyph-name="seven" unicode="7" horiz-adv-x="547" 
d="M517 539l-290 -698h-153l257 585h-296v113h482z" />
    <glyph glyph-name="eight" unicode="8" horiz-adv-x="596" 
d="M550 178c0 -112 -97 -190 -252 -190s-252 78 -252 190c0 94 62 143 143 185c-73 41 -125 87 -125 166c0 104 88 181 234 181s234 -77 234 -181c0 -79 -52 -125 -125 -166c81 -42 143 -91 143 -185zM404 527c0 52 -35 87 -106 87s-106 -35 -106 -87c0 -55 43 -83 106 -116
c63 33 106 61 106 116zM417 184c0 64 -51 94 -119 129c-68 -35 -119 -65 -119 -129c0 -55 46 -94 119 -94s119 39 119 94z" />
    <glyph glyph-name="nine" unicode="9" horiz-adv-x="596" 
d="M549 276c0 -235 -179 -397 -411 -447l-34 110c141 32 234 98 279 188c-27 -10 -66 -16 -97 -16c-151 0 -240 79 -240 212c0 127 99 228 248 228c178 0 255 -129 255 -275zM417 278c0 96 -42 165 -123 165c-70 0 -114 -57 -114 -120c0 -76 51 -117 128 -117
c34 0 77 6 105 17c3 18 4 37 4 55z" />
    <glyph glyph-name="colon" unicode=":" horiz-adv-x="299" 
d="M236 403c0 -47 -39 -85 -86 -85s-86 38 -86 85s39 86 86 86s86 -39 86 -86zM236 77c0 -47 -39 -86 -86 -86s-86 39 -86 86s39 86 86 86s86 -39 86 -86z" />
    <glyph glyph-name="semicolon" unicode=";" horiz-adv-x="299" 
d="M239 403c0 -47 -39 -85 -86 -85s-85 38 -85 85s38 86 85 86s86 -39 86 -86zM241 115l-148 -284h-95l92 284c18 27 47 48 88 48s58 -22 63 -48z" />
    <glyph glyph-name="less" unicode="&#x3c;" horiz-adv-x="548" 
d="M487 75l-426 205v90l426 205v-124l-301 -126l301 -126v-124z" />
    <glyph glyph-name="equal" unicode="=" horiz-adv-x="548" 
d="M487 383h-426v105h426v-105zM487 162h-426v105h426v-105z" />
    <glyph glyph-name="greater" unicode="&#x3e;" horiz-adv-x="548" 
d="M487 280l-426 -205v124l302 126l-302 126v124l426 -205v-90z" />
    <glyph glyph-name="question" unicode="?" horiz-adv-x="501" 
d="M461 547c0 -100 -89 -160 -165 -187l-8 -107h-113l-11 174c81 18 153 55 153 113c0 53 -35 84 -115 84c-45 0 -100 -14 -133 -30l-43 103c50 23 124 39 195 39c154 0 240 -65 240 -189zM318 77c0 -47 -39 -86 -86 -86s-86 39 -86 86s39 86 86 86s86 -39 86 -86z" />
    <glyph glyph-name="at" unicode="@" horiz-adv-x="1029" 
d="M979 334c0 -242 -169 -345 -376 -345c-194 0 -306 99 -306 274c0 164 94 262 245 262c83 0 138 -28 171 -56v-367c87 29 147 96 147 232c0 170 -103 302 -318 302c-234 0 -373 -159 -373 -383c0 -220 150 -377 425 -377c120 0 230 35 298 82l58 -87
c-81 -56 -200 -98 -356 -98c-337 0 -544 197 -544 480c0 275 187 483 492 483c283 0 437 -181 437 -402zM597 89v327c-12 7 -34 14 -60 14c-78 0 -121 -57 -121 -167c0 -119 67 -174 173 -174h8z" />
    <glyph glyph-name="A" unicode="A" horiz-adv-x="664" 
d="M657 0h-147l-53 169h-250l-53 -169h-147l242 724h166zM429 273l-76 247c-13 41 -20 88 -20 88h-2s-7 -47 -20 -88l-76 -247h194z" />
    <glyph glyph-name="B" unicode="B" horiz-adv-x="616" 
d="M574 197c0 -130 -98 -209 -287 -209c-82 0 -170 17 -220 39v670c54 23 135 39 218 39c184 0 270 -83 270 -198c0 -83 -55 -144 -113 -160v-2c58 -19 132 -76 132 -179zM421 525c0 65 -43 104 -136 104c-32 0 -65 -5 -84 -12v-199h89c49 0 75 7 96 24s35 47 35 83z
M435 206c0 40 -16 71 -45 89c-24 15 -49 23 -98 23h-91v-211c20 -7 55 -12 85 -12c99 0 149 36 149 111z" />
    <glyph glyph-name="C" unicode="C" horiz-adv-x="524" 
d="M490 27c-34 -23 -91 -39 -157 -39c-159 0 -287 122 -287 374s128 374 287 374c64 0 123 -16 157 -39l-44 -113c-20 15 -56 29 -96 29c-93 0 -159 -86 -159 -250s66 -249 159 -249c40 0 76 13 96 28z" />
    <glyph glyph-name="D" unicode="D" horiz-adv-x="632" 
d="M586 362c0 -243 -118 -374 -320 -374c-81 0 -155 17 -199 39v670c45 22 120 39 199 39c202 0 320 -131 320 -374zM445 362c0 180 -71 255 -171 255c-27 0 -51 -4 -66 -10v-490c13 -6 38 -10 66 -10c100 0 171 75 171 255z" />
    <glyph glyph-name="E" unicode="E" horiz-adv-x="497" 
d="M452 0h-385v724h385v-118h-247v-181h223v-116h-223v-191h247v-118z" />
    <glyph glyph-name="F" unicode="F" horiz-adv-x="486" 
d="M448 606h-243v-181h220v-116h-220v-309h-138v724h381v-118z" />
    <glyph glyph-name="G" unicode="G" horiz-adv-x="637" 
d="M574 27c-39 -21 -113 -39 -199 -39c-202 0 -329 145 -329 374s135 374 341 374c74 0 144 -17 181 -39l-44 -110c-28 16 -75 29 -132 29c-114 0 -205 -80 -205 -253s85 -256 178 -256c35 0 64 5 77 11v202h-111v107h243v-400z" />
    <glyph glyph-name="H" unicode="H" horiz-adv-x="638" 
d="M571 0h-141v309h-222v-309h-141v724h141v-299h222v299h141v-724z" />
    <glyph glyph-name="I" unicode="I" horiz-adv-x="275" 
d="M208 0h-141v724h141v-724z" />
    <glyph glyph-name="J" unicode="J" horiz-adv-x="275" 
d="M208 80c0 -184 -101 -278 -267 -299v121c76 19 126 72 126 178v644h141v-644z" />
    <glyph glyph-name="K" unicode="K" horiz-adv-x="610" 
d="M601 0h-160l-231 360h-2v-360h-141v724h141v-328h2l227 328h159l-243 -346z" />
    <glyph glyph-name="L" unicode="L" horiz-adv-x="464" 
d="M433 0h-366v724h141v-606h225v-118z" />
    <glyph glyph-name="M" unicode="M" horiz-adv-x="871" 
d="M833 0h-131l-51 461c-5 45 -7 98 -7 98h-2s-10 -52 -24 -98l-137 -461h-90l-138 461c-14 46 -24 98 -24 98h-2s-2 -53 -7 -98l-51 -461h-131l90 724h160l126 -423c12 -42 21 -93 21 -93h2s9 51 21 93l125 423h160z" />
    <glyph glyph-name="N" unicode="N" horiz-adv-x="672" 
d="M605 0h-116l-259 429c-24 40 -43 85 -43 85h-2s2 -49 2 -94v-420h-120v724h121l253 -418c23 -39 43 -85 43 -85h2s-2 51 -2 97v406h121v-724z" />
    <glyph glyph-name="O" unicode="O" horiz-adv-x="652" 
d="M606 362c0 -211 -90 -374 -280 -374s-280 163 -280 374s90 374 280 374s280 -163 280 -374zM465 362c0 149 -47 249 -139 249s-139 -100 -139 -249s47 -249 139 -249s139 100 139 249z" />
    <glyph glyph-name="P" unicode="P" horiz-adv-x="589" 
d="M555 504c0 -131 -96 -228 -283 -228c-24 0 -51 2 -67 5v-281h-138v697c55 24 127 39 209 39c180 0 279 -91 279 -232zM417 505c0 83 -48 123 -139 123c-28 0 -56 -5 -73 -11v-229c14 -3 37 -5 60 -5c99 0 152 46 152 122z" />
    <glyph glyph-name="Q" unicode="Q" horiz-adv-x="652" 
d="M607 -110l-107 -86l-116 190c-18 -4 -37 -6 -58 -6c-190 0 -280 163 -280 374s90 374 280 374s280 -163 280 -374c0 -134 -37 -249 -112 -315zM465 362c0 149 -47 249 -139 249s-139 -100 -139 -249s47 -249 139 -249s139 100 139 249z" />
    <glyph glyph-name="R" unicode="R" horiz-adv-x="620" 
d="M597 0h-149l-91 222c-18 44 -48 72 -98 72h-53v-294h-139v697c57 25 137 39 217 39c181 0 273 -83 273 -218c0 -104 -66 -159 -141 -180v-2c38 -21 64 -59 84 -106zM419 510c0 75 -41 119 -132 119c-30 0 -62 -5 -81 -12v-223h75c89 0 138 36 138 116z" />
    <glyph glyph-name="S" unicode="S" horiz-adv-x="513" 
d="M470 210c0 -132 -91 -222 -247 -222c-71 0 -145 17 -186 39l46 122c32 -19 84 -34 133 -34c67 0 110 35 110 88c0 51 -46 77 -99 101c-81 37 -182 91 -182 218c0 129 90 214 235 214c71 0 132 -17 169 -39l-44 -114c-26 15 -73 32 -119 32c-61 0 -100 -34 -100 -85
c0 -50 49 -77 102 -103c79 -39 182 -89 182 -217z" />
    <glyph glyph-name="T" unicode="T" horiz-adv-x="508" 
d="M477 606h-152v-606h-141v606h-153v118h446v-118z" />
    <glyph glyph-name="U" unicode="U" horiz-adv-x="628" 
d="M561 214c0 -143 -106 -224 -247 -224s-247 81 -247 224v510h141v-511c0 -64 47 -102 106 -102s106 38 106 102v511h141v-510z" />
    <glyph glyph-name="V" unicode="V" horiz-adv-x="618" 
d="M606 724l-222 -724h-149l-223 724h153l122 -471c12 -46 21 -104 21 -104h2s9 58 21 104l122 471h153z" />
    <glyph glyph-name="W" unicode="W" horiz-adv-x="913" 
d="M890 724l-179 -724h-137l-99 420c-11 48 -18 103 -18 103h-2s-7 -55 -18 -103l-98 -420h-137l-179 724h142l94 -455c9 -43 16 -96 16 -96h2s6 53 16 96l105 455h117l105 -455c10 -43 16 -96 16 -96h2s7 53 16 96l94 455h142z" />
    <glyph glyph-name="X" unicode="X" horiz-adv-x="601" 
d="M593 0h-155l-136 263h-2l-137 -263h-155l209 375l-194 349h154l123 -237h2l122 237h154l-194 -349z" />
    <glyph glyph-name="Y" unicode="Y" horiz-adv-x="585" 
d="M578 724l-215 -440v-284h-141v284l-215 440h152l132 -298h2l133 298h152z" />
    <glyph glyph-name="Z" unicode="Z" horiz-adv-x="519" 
d="M478 0h-457l262 606h-238v118h431l-261 -606h263v-118z" />
    <glyph glyph-name="bracketleft" unicode="[" horiz-adv-x="382" 
d="M337 -195h-262v980h262v-106h-129v-768h129v-106z" />
    <glyph glyph-name="backslash" unicode="\" horiz-adv-x="484" 
d="M492 -165l-129 -37l-332 968l128 38z" />
    <glyph glyph-name="bracketright" unicode="]" horiz-adv-x="382" 
d="M307 -195h-262v106h129v768h-129v106h262v-980z" />
    <glyph glyph-name="asciicircum" unicode="^" horiz-adv-x="606" 
d="M536 452l-84 -68l-149 184l-149 -184l-84 68l172 210c15 18 35 29 61 29s46 -11 61 -29z" />
    <glyph glyph-name="underscore" unicode="_" horiz-adv-x="592" 
d="M596 -217h-600v93h600v-93z" />
    <glyph glyph-name="grave" unicode="`" horiz-adv-x="343" 
d="M242 601h-93l-108 132c6 19 30 30 56 30s55 -9 75 -30z" />
    <glyph glyph-name="a" unicode="a" horiz-adv-x="541" 
d="M481 27c-40 -21 -121 -39 -202 -39c-162 0 -243 64 -243 174c0 147 153 176 316 185v28c0 56 -39 77 -101 77c-51 0 -113 -16 -151 -32l-34 92c45 19 122 39 200 39c138 0 215 -54 215 -192v-332zM352 96v164c-100 -5 -188 -14 -188 -95c0 -51 40 -80 111 -80
c29 0 63 5 77 11z" />
    <glyph glyph-name="b" unicode="b" horiz-adv-x="569" 
d="M527 284c0 -202 -103 -296 -275 -296c-75 0 -147 18 -191 39v758h136v-257c24 11 63 18 95 18c140 0 235 -97 235 -262zM390 273c0 106 -47 169 -124 169c-25 0 -52 -6 -69 -14v-322c13 -6 38 -11 63 -11c78 0 130 59 130 178z" />
    <glyph glyph-name="c" unicode="c" horiz-adv-x="457" 
d="M426 25c-35 -23 -79 -37 -143 -37c-126 0 -241 90 -241 282s115 281 241 281c64 0 109 -14 143 -37l-43 -98c-20 15 -49 23 -80 23c-67 0 -120 -56 -120 -168s55 -168 120 -168c31 0 60 9 80 24z" />
    <glyph glyph-name="d" unicode="d" horiz-adv-x="569" 
d="M508 27c-39 -21 -115 -39 -197 -39c-174 0 -269 103 -269 278c0 166 87 278 252 278c29 0 60 -5 77 -11v252h137v-758zM371 106v325c-11 5 -39 10 -63 10c-85 0 -130 -71 -130 -173c0 -109 46 -173 130 -173c24 0 52 5 63 11z" />
    <glyph glyph-name="e" unicode="e" horiz-adv-x="566" 
d="M524 306c0 -15 0 -30 -2 -46l-347 -47c12 -79 70 -118 149 -118c54 0 112 14 150 34l39 -102c-45 -23 -121 -39 -199 -39c-178 0 -272 116 -272 282c0 165 93 281 250 281c149 0 232 -98 232 -245zM392 330c0 81 -40 122 -103 122c-71 0 -121 -52 -123 -153z" />
    <glyph glyph-name="f" unicode="f" horiz-adv-x="370" 
d="M346 679c-2 0 -9 1 -18 1c-54 0 -96 -23 -96 -81v-60h104v-102h-104v-437h-134v437h-67v102h67v60c0 130 86 189 204 189c14 0 33 -1 44 -3v-106z" />
    <glyph glyph-name="g" unicode="g" horiz-adv-x="569" 
d="M508 7c0 -152 -93 -232 -238 -232c-86 0 -156 18 -205 42l39 107c36 -19 92 -33 152 -33c80 0 117 41 117 116v33c-26 -12 -65 -19 -100 -19c-137 0 -231 95 -231 257c0 182 107 273 276 273c76 0 146 -17 190 -39v-505zM373 139v296c-14 6 -39 11 -67 11
c-75 0 -128 -50 -128 -163c0 -106 49 -159 124 -159c25 0 55 7 71 15z" />
    <glyph glyph-name="h" unicode="h" horiz-adv-x="571" 
d="M510 0h-137v352c0 59 -36 89 -98 89c-27 0 -57 -8 -78 -20v-421h-136v785h136v-262c32 15 73 25 113 25c127 0 200 -64 200 -182v-366z" />
    <glyph glyph-name="i" unicode="i" horiz-adv-x="262" 
d="M209 699c0 -41 -35 -74 -78 -74s-78 33 -78 74s35 73 78 73s78 -32 78 -73zM199 0h-136v539h136v-539z" />
    <glyph glyph-name="j" unicode="j" horiz-adv-x="262" 
d="M209 699c0 -41 -35 -74 -78 -74s-78 33 -78 74s35 73 78 73s78 -32 78 -73zM199 68c0 -201 -114 -272 -246 -291v113c58 18 110 67 110 178v471h136v-471z" />
    <glyph glyph-name="k" unicode="k" horiz-adv-x="554" 
d="M547 0h-154l-194 272h-2v-272h-135v785h135v-482h2l178 236h157l-194 -252z" />
    <glyph glyph-name="l" unicode="l" horiz-adv-x="262" 
d="M199 0h-136v785h136v-785z" />
    <glyph glyph-name="m" unicode="m" horiz-adv-x="869" 
d="M809 0h-137v359c0 53 -34 83 -89 83c-34 0 -61 -10 -80 -27v-415h-137v365c0 48 -36 77 -94 77c-31 0 -56 -5 -75 -13v-429h-136v512c55 22 126 39 203 39c87 0 142 -27 173 -55c34 26 100 55 181 55c119 0 191 -69 191 -178v-373z" />
    <glyph glyph-name="n" unicode="n" horiz-adv-x="571" 
d="M510 0h-137v355c0 54 -33 87 -95 87c-32 0 -63 -6 -81 -13v-429h-136v512c57 23 126 39 215 39c160 0 234 -66 234 -182v-369z" />
    <glyph glyph-name="o" unicode="o" horiz-adv-x="572" 
d="M530 270c0 -161 -87 -282 -244 -282s-244 121 -244 282s87 281 244 281s244 -120 244 -281zM394 271c0 108 -36 173 -108 173s-108 -65 -108 -173s36 -172 108 -172s108 64 108 172z" />
    <glyph glyph-name="p" unicode="p" horiz-adv-x="569" 
d="M527 272c0 -166 -87 -278 -252 -278c-29 0 -61 6 -78 12v-221h-136v727c40 21 116 39 197 39c174 0 269 -104 269 -279zM390 272c0 109 -46 173 -130 173c-25 0 -51 -5 -63 -11v-326c11 -5 40 -10 64 -10c85 0 129 72 129 174z" />
    <glyph glyph-name="q" unicode="q" horiz-adv-x="569" 
d="M508 -215h-137v226c-24 -11 -63 -18 -95 -18c-140 0 -234 97 -234 262c0 202 104 296 276 296c75 0 146 -18 190 -39v-727zM371 112v322c-13 6 -38 11 -63 11c-78 0 -130 -59 -130 -178c0 -106 47 -169 124 -169c25 0 52 6 69 14z" />
    <glyph glyph-name="r" unicode="r" horiz-adv-x="374" 
d="M351 546l-25 -113c-17 5 -39 8 -61 8c-25 0 -51 -4 -68 -11v-430h-136v512c56 22 133 39 220 39c28 0 52 -2 70 -5z" />
    <glyph glyph-name="s" unicode="s" horiz-adv-x="463" 
d="M424 155c0 -101 -75 -167 -219 -167c-67 0 -134 18 -174 39l44 104c27 -17 87 -35 126 -35c49 0 81 23 81 59c0 40 -35 57 -83 74c-68 25 -154 57 -154 163c0 95 72 159 198 159c69 0 125 -17 166 -39l-42 -93c-23 14 -71 31 -107 31c-48 0 -76 -24 -76 -56
c0 -41 35 -57 82 -74c71 -26 158 -56 158 -165z" />
    <glyph glyph-name="t" unicode="t" 
d="M332 7c-16 -8 -49 -15 -82 -15c-104 0 -153 57 -153 170v275h-69v102h69v120l134 39v-159h101v-102h-101v-266c0 -44 27 -59 62 -59c14 0 30 4 39 8v-113z" />
    <glyph glyph-name="u" unicode="u" horiz-adv-x="564" 
d="M503 27c-47 -23 -131 -39 -215 -39c-149 0 -227 60 -227 200v351h136v-354c0 -58 31 -85 91 -85c35 0 64 6 79 12v427h136v-512z" />
    <glyph glyph-name="v" unicode="v" horiz-adv-x="578" 
d="M562 539l-194 -539h-158l-195 539h154l99 -336c12 -41 20 -87 20 -87h2s8 46 20 87l99 336h153z" />
    <glyph glyph-name="w" unicode="w" horiz-adv-x="843" 
d="M819 539l-157 -539h-141l-83 307c-10 37 -15 81 -15 81h-2s-6 -44 -16 -81l-83 -307h-141l-157 539h137l77 -330c9 -40 14 -88 14 -88h2s8 48 18 88l87 330h125l87 -330c10 -40 18 -88 18 -88h2s5 48 14 88l77 330h137z" />
    <glyph glyph-name="x" unicode="x" horiz-adv-x="551" 
d="M544 0h-157l-111 187h-2l-110 -187h-157l184 279l-169 260h154l98 -172h2l99 172h153l-168 -260z" />
    <glyph glyph-name="y" unicode="y" horiz-adv-x="577" 
d="M562 539l-282 -754h-143l81 215l-203 539h154l101 -339c12 -40 18 -85 18 -85h2s6 45 18 85l101 339h153z" />
    <glyph glyph-name="z" unicode="z" horiz-adv-x="474" 
d="M436 0h-411l217 432h-199v107h389l-216 -432h220v-107z" />
    <glyph glyph-name="braceleft" unicode="{" horiz-adv-x="386" 
d="M334 -195h-43c-130 0 -192 70 -192 185c0 68 16 95 16 160c0 54 -33 88 -81 90v110c48 2 81 36 81 90c0 65 -16 92 -16 160c0 115 62 185 192 185h43v-106h-22c-50 0 -80 -26 -80 -79c0 -68 16 -95 16 -160c0 -75 -37 -125 -99 -144v-2c62 -19 99 -69 99 -144
c0 -65 -16 -92 -16 -160c0 -53 30 -79 80 -79h22v-106z" />
    <glyph glyph-name="bar" unicode="|" horiz-adv-x="266" 
d="M201 -215h-136v1000h136v-1000z" />
    <glyph glyph-name="braceright" unicode="}" horiz-adv-x="386" 
d="M352 240c-48 -2 -81 -36 -81 -90c0 -65 16 -92 16 -160c0 -115 -62 -185 -192 -185h-43v106h22c50 0 80 26 80 79c0 68 -16 95 -16 160c0 75 37 125 99 144v2c-62 19 -99 69 -99 144c0 65 16 92 16 160c0 53 -30 79 -80 79h-22v106h43c130 0 192 -70 192 -185
c0 -68 -16 -95 -16 -160c0 -54 33 -88 81 -90v-110z" />
    <glyph glyph-name="asciitilde" unicode="~" horiz-adv-x="606" 
d="M538 400c-13 -70 -64 -122 -138 -122c-76 0 -115 58 -177 58c-41 0 -73 -26 -87 -63l-69 51c13 70 65 122 139 122c76 0 114 -58 176 -58c41 0 74 26 88 63z" />
    <glyph glyph-name="uni00A0" unicode="&#xa0;" horiz-adv-x="248" 
 />
    <glyph glyph-name="exclamdown" unicode="&#xa1;" horiz-adv-x="293" 
d="M232 432c0 -47 -39 -86 -86 -86s-85 39 -85 86s38 86 85 86s86 -39 86 -86zM227 -215h-161l21 471h119z" />
    <glyph glyph-name="cent" unicode="&#xa2;" horiz-adv-x="476" 
d="M438 167c-29 -18 -64 -30 -108 -33l12 -134h-107l13 137c-105 18 -195 101 -195 258s89 239 194 257l-12 133h107l-12 -130c44 -3 79 -15 108 -33l-43 -92c-20 14 -49 22 -80 22c-67 0 -120 -51 -120 -155s55 -156 120 -156c31 0 60 7 80 21z" />
    <glyph glyph-name="sterling" unicode="&#xa3;" horiz-adv-x="627" 
d="M562 0h-507c73 76 132 172 132 270c0 24 -2 42 -6 59h-108v100h86c-7 26 -13 53 -13 93c0 137 94 214 241 214c74 0 133 -18 172 -39l-45 -109c-24 14 -65 28 -109 28c-76 0 -122 -41 -122 -103c0 -35 6 -59 13 -84h173v-100h-157c3 -17 6 -35 6 -59
c0 -59 -29 -117 -54 -152h298v-118z" />
    <glyph glyph-name="currency" unicode="&#xa4;" horiz-adv-x="711" 
d="M657 85l-90 -77l-99 104c-32 -20 -70 -32 -113 -32s-81 12 -113 32l-99 -104l-90 77l106 113c-19 35 -29 76 -29 120s10 85 29 120l-106 113l90 77l99 -104c32 20 70 32 113 32s81 -12 113 -32l99 104l90 -77l-105 -113c19 -35 29 -76 29 -120s-10 -85 -29 -120zM462 318
c0 82 -43 134 -107 134s-107 -52 -107 -134s43 -134 107 -134s107 52 107 134z" />
    <glyph glyph-name="yen" unicode="&#xa5;" horiz-adv-x="680" 
d="M626 724l-131 -254h114v-70h-149l-52 -97h201v-70h-201v-233h-136v233h-201v70h201l-51 97h-150v70h115l-131 254h152l132 -286h2l133 286h152z" />
    <glyph glyph-name="brokenbar" unicode="&#xa6;" horiz-adv-x="266" 
d="M201 385h-136v400h136v-400zM201 -215h-136v400h136v-400z" />
    <glyph glyph-name="section" unicode="&#xa7;" horiz-adv-x="588" 
d="M540 234c0 -73 -56 -133 -109 -168c31 -32 50 -70 50 -120c0 -100 -80 -173 -205 -173c-72 0 -140 16 -181 39l41 107c31 -18 84 -32 127 -32c50 0 80 28 80 67c0 29 -19 54 -49 73l-138 88c-73 47 -108 99 -108 175c0 78 51 133 107 170c-22 25 -36 58 -36 102
c0 105 83 174 201 174c71 0 128 -16 168 -39l-40 -100c-26 15 -68 30 -112 30c-51 0 -83 -29 -83 -70c0 -30 17 -53 48 -72l134 -86c70 -44 105 -97 105 -165zM416 225c0 40 -19 67 -59 93l-124 79c-33 -21 -64 -52 -64 -100c0 -39 22 -66 55 -87l127 -81c34 21 65 57 65 96
z" />
    <glyph glyph-name="dieresis" unicode="&#xa8;" horiz-adv-x="343" 
d="M340 671c0 -34 -30 -63 -67 -63s-66 29 -66 63s29 62 66 62s67 -28 67 -62zM137 671c0 -34 -30 -63 -67 -63s-67 29 -67 63s30 62 67 62s67 -28 67 -62z" />
    <glyph glyph-name="copyright" unicode="&#xa9;" horiz-adv-x="860" 
d="M810 362c0 -210 -161 -374 -380 -374s-380 164 -380 374s161 374 380 374s380 -164 380 -374zM724 362c0 167 -123 297 -294 297s-294 -130 -294 -297s123 -297 294 -297s294 130 294 297zM548 184c-24 -15 -63 -27 -105 -27c-104 0 -187 68 -187 208s83 207 187 207
c42 0 81 -12 105 -27l-32 -62c-16 10 -40 18 -66 18c-54 0 -103 -39 -103 -135s49 -135 103 -135c26 0 50 8 66 18z" />
    <glyph glyph-name="ordfeminine" unicode="&#xaa;" horiz-adv-x="443" 
d="M383 351c-31 -15 -94 -29 -158 -29c-128 0 -191 46 -191 127c0 106 118 130 246 137v19c0 39 -30 55 -77 55c-40 0 -88 -12 -118 -24l-26 69c36 14 96 29 156 29c109 0 168 -40 168 -142v-241zM280 402v118c-82 -4 -143 -13 -143 -68c0 -36 31 -57 84 -57c21 0 48 2 59 7
z" />
    <glyph glyph-name="guillemotleft" unicode="&#xab;" horiz-adv-x="608" 
d="M552 112l-80 -60l-187 253l187 253l80 -60l-143 -193zM311 112l-80 -60l-188 253l188 253l80 -60l-144 -193z" />
    <glyph glyph-name="logicalnot" unicode="&#xac;" horiz-adv-x="548" 
d="M487 91h-113v181h-313v106h426v-287z" />
    <glyph glyph-name="uni00AD" unicode="&#xad;" horiz-adv-x="400" 
d="M343 267h-286v116h286v-116z" />
    <glyph glyph-name="registered" unicode="&#xae;" horiz-adv-x="656" 
d="M610 459c0 -156 -119 -278 -282 -278s-282 122 -282 278s119 278 282 278s282 -122 282 -278zM544 459c0 122 -90 218 -216 218s-216 -96 -216 -218s90 -218 216 -218s216 96 216 218zM462 315h-71l-40 94c-7 18 -18 26 -38 26h-24v-120h-65v289c26 11 61 16 96 16
c80 0 125 -33 125 -91c0 -39 -27 -64 -59 -74v-2c14 -7 23 -19 30 -35zM379 526c0 29 -18 45 -57 45c-12 0 -25 -1 -33 -3v-87h31c39 0 59 14 59 45z" />
    <glyph glyph-name="macron" unicode="&#xaf;" horiz-adv-x="343" 
d="M313 624h-283v82h283v-82z" />
    <glyph glyph-name="degree" unicode="&#xb0;" horiz-adv-x="474" 
d="M428 549c0 -104 -83 -187 -191 -187s-191 83 -191 187s83 187 191 187s191 -83 191 -187zM330 549c0 52 -41 93 -93 93s-93 -41 -93 -93s41 -94 93 -94s93 42 93 94z" />
    <glyph glyph-name="plusminus" unicode="&#xb1;" horiz-adv-x="548" 
d="M487 331h-157v-156h-111v156h-158v96h158v155h111v-155h157v-96zM487 0h-426v96h426v-96z" />
    <glyph glyph-name="twosuperior" unicode="&#xb2;" 
d="M328 500h-316l185 227c18 22 33 44 33 70c0 37 -26 64 -76 64c-30 0 -68 -7 -96 -19l-23 66c37 15 83 24 125 24c104 0 159 -52 159 -131c0 -46 -28 -84 -53 -112l-107 -118h169v-71z" />
    <glyph glyph-name="threesuperior" unicode="&#xb3;" 
d="M323 622c0 -78 -62 -130 -167 -130c-46 0 -94 9 -131 24l27 66c27 -11 66 -18 104 -18c52 0 80 22 80 58c0 40 -48 65 -119 65h-9v63c75 4 114 30 114 64c0 30 -23 47 -67 47c-30 0 -67 -7 -95 -19l-25 66c39 15 86 24 132 24c95 0 142 -44 142 -112
c0 -41 -31 -73 -68 -90v-2c43 -16 82 -50 82 -106z" />
    <glyph glyph-name="acute" unicode="&#xb4;" horiz-adv-x="343" 
d="M302 733l-107 -132h-94l70 132c20 21 50 30 76 30s49 -11 55 -30z" />
    <glyph glyph-name="uni00B5" unicode="&#xb5;" horiz-adv-x="564" 
d="M503 43c-41 -34 -111 -55 -180 -55c-47 0 -93 10 -126 27v-230h-136v754h136v-419c22 -15 56 -23 89 -23c31 0 63 9 81 23v419h136v-496z" />
    <glyph glyph-name="paragraph" unicode="&#xb6;" horiz-adv-x="608" 
d="M537 -215h-98v842c-24 8 -61 14 -106 14h-13v-856h-97v509c-104 21 -176 98 -176 214c0 153 110 228 268 228c104 0 175 -18 222 -39v-912z" />
    <glyph glyph-name="periodcentered" unicode="&#xb7;" horiz-adv-x="272" 
d="M222 325c0 -47 -39 -86 -86 -86s-86 39 -86 86s39 86 86 86s86 -39 86 -86z" />
    <glyph glyph-name="cedilla" unicode="&#xb8;" horiz-adv-x="343" 
d="M306 -126c0 -59 -69 -89 -184 -89c-26 0 -55 2 -86 5l29 53c19 -2 35 -3 51 -3c56 0 91 13 91 34c0 19 -18 26 -57 26c-16 0 -35 -1 -57 -3l26 48c22 2 41 3 58 3c96 0 129 -30 129 -74z" />
    <glyph glyph-name="onesuperior" unicode="&#xb9;" 
d="M275 500h-87v328c-27 -15 -78 -29 -115 -34l-14 66c55 9 119 33 148 64h68v-424z" />
    <glyph glyph-name="ordmasculine" unicode="&#xba;" horiz-adv-x="466" 
d="M424 528c0 -118 -69 -206 -191 -206s-191 88 -191 206s69 206 191 206s191 -88 191 -206zM315 529c0 77 -28 123 -82 123s-83 -46 -83 -123s29 -124 83 -124s82 47 82 124z" />
    <glyph glyph-name="guillemotright" unicode="&#xbb;" horiz-adv-x="608" 
d="M565 305l-188 -253l-80 60l144 193l-144 193l80 60zM323 305l-188 -253l-79 60l143 193l-143 193l79 60z" />
    <glyph glyph-name="onequarter" unicode="&#xbc;" horiz-adv-x="858" 
d="M813 104h-44v-104h-79v104h-191v61l178 259h92v-259h44v-61zM651 704l-381 -720l-68 36l382 720zM237 300h-87v328c-27 -15 -77 -29 -114 -34l-15 66c55 9 119 33 148 64h68v-424zM695 350h-2s-11 -25 -25 -46l-94 -139h119v132c0 25 2 53 2 53z" />
    <glyph glyph-name="onehalf" unicode="&#xbd;" horiz-adv-x="858" 
d="M817 0h-316l185 227c18 22 33 44 33 70c0 37 -26 64 -76 64c-30 0 -67 -7 -95 -19l-24 66c37 15 83 24 125 24c104 0 160 -52 160 -131c0 -46 -29 -84 -54 -112l-107 -118h169v-71zM628 704l-382 -720l-67 36l381 720zM237 300h-87v328c-27 -15 -77 -29 -114 -34l-15 66
c55 9 119 33 148 64h68v-424z" />
    <glyph glyph-name="threequarters" unicode="&#xbe;" horiz-adv-x="858" 
d="M813 104h-44v-104h-79v104h-191v61l178 259h92v-259h44v-61zM673 704l-382 -720l-67 36l382 720zM695 350h-2s-11 -25 -25 -46l-94 -139h119v132c0 25 2 53 2 53zM323 422c0 -78 -62 -130 -167 -130c-46 0 -94 9 -131 24l27 66c27 -11 66 -18 104 -18c52 0 80 22 80 58
c0 40 -48 65 -119 65h-9v63c75 4 114 30 114 64c0 30 -23 47 -67 47c-30 0 -67 -7 -95 -19l-25 66c39 15 86 24 132 24c95 0 142 -44 142 -112c0 -41 -31 -73 -68 -90v-2c43 -16 82 -50 82 -106z" />
    <glyph glyph-name="questiondown" unicode="&#xbf;" horiz-adv-x="501" 
d="M355 432c0 -47 -39 -86 -86 -86s-86 39 -86 86s39 86 86 86s86 -39 86 -86zM475 -188c-50 -23 -124 -39 -195 -39c-154 0 -240 65 -240 189c0 100 89 160 165 187l8 107h113l11 -174c-81 -18 -153 -55 -153 -113c0 -53 35 -84 115 -84c45 0 100 14 133 30z" />
    <glyph glyph-name="Agrave" unicode="&#xc0;" horiz-adv-x="664" 
d="M657 0h-147l-53 169h-250l-53 -169h-147l242 724h166zM429 273l-76 247c-13 41 -20 88 -20 88h-2s-7 -47 -20 -88l-76 -247h194zM386 786h-93l-108 132c6 19 30 30 56 30s55 -9 75 -30z" />
    <glyph glyph-name="Aacute" unicode="&#xc1;" horiz-adv-x="664" 
d="M657 0h-147l-53 169h-250l-53 -169h-147l242 724h166zM429 273l-76 247c-13 41 -20 88 -20 88h-2s-7 -47 -20 -88l-76 -247h194zM479 918l-107 -132h-94l70 132c20 21 50 30 76 30s49 -11 55 -30z" />
    <glyph glyph-name="Acircumflex" unicode="&#xc2;" horiz-adv-x="664" 
d="M657 0h-147l-53 169h-250l-53 -169h-147l242 724h166zM429 273l-76 247c-13 41 -20 88 -20 88h-2s-7 -47 -20 -88l-76 -247h194zM481 821l-53 -45l-95 83l-96 -83l-53 45l104 104c12 13 28 20 45 20s32 -7 44 -20z" />
    <glyph glyph-name="Atilde" unicode="&#xc3;" horiz-adv-x="664" 
d="M657 0h-147l-53 169h-250l-53 -169h-147l242 724h166zM429 273l-76 247c-13 41 -20 88 -20 88h-2s-7 -47 -20 -88l-76 -247h194zM481 892c-6 -58 -39 -101 -90 -101c-52 0 -69 45 -105 45c-25 0 -41 -20 -46 -50l-61 36c6 58 38 101 89 101c52 0 69 -45 105 -45
c25 0 41 19 46 50z" />
    <glyph glyph-name="Adieresis" unicode="&#xc4;" horiz-adv-x="664" 
d="M657 0h-147l-53 169h-250l-53 -169h-147l242 724h166zM429 273l-76 247c-13 41 -20 88 -20 88h-2s-7 -47 -20 -88l-76 -247h194zM297 856c0 -34 -30 -63 -67 -63s-67 29 -67 63s30 62 67 62s67 -28 67 -62zM500 856c0 -34 -30 -63 -67 -63s-67 29 -67 63s30 62 67 62
s67 -28 67 -62z" />
    <glyph glyph-name="Aring" unicode="&#xc5;" horiz-adv-x="664" 
d="M657 0h-147l-53 169h-250l-53 -169h-147l242 724h166zM429 273l-76 247c-13 41 -20 88 -20 88h-2s-7 -47 -20 -88l-76 -247h194zM436 872c0 -55 -45 -98 -104 -98s-105 43 -105 98s46 97 105 97s104 -42 104 -97zM377 872c0 25 -20 44 -45 44s-46 -19 -46 -44
s21 -45 46 -45s45 20 45 45z" />
    <glyph glyph-name="AE" unicode="&#xc6;" horiz-adv-x="874" 
d="M838 0h-344l-30 169h-250l-75 -169h-150l335 724h455v-118h-266l39 -181h217v-116h-194l41 -191h222v-118zM449 273l-44 247c-7 41 -9 88 -9 88h-2s-12 -47 -30 -88l-110 -247h195z" />
    <glyph glyph-name="Ccedilla" unicode="&#xc7;" horiz-adv-x="524" 
d="M490 27c-34 -23 -91 -39 -157 -39c-159 0 -287 122 -287 374s128 374 287 374c64 0 123 -16 157 -39l-44 -113c-20 15 -56 29 -96 29c-93 0 -159 -86 -159 -250s66 -249 159 -249c40 0 76 13 96 28zM406 -126c0 -59 -69 -89 -184 -89c-26 0 -55 2 -86 5l29 53
c19 -2 35 -3 51 -3c56 0 91 13 91 34c0 19 -18 26 -57 26c-16 0 -35 -1 -57 -3l26 48c22 2 41 3 58 3c96 0 129 -30 129 -74z" />
    <glyph glyph-name="Egrave" unicode="&#xc8;" horiz-adv-x="497" 
d="M452 0h-385v724h385v-118h-247v-181h223v-116h-223v-191h247v-118zM318 786h-93l-108 132c6 19 30 30 56 30s55 -9 75 -30z" />
    <glyph glyph-name="Eacute" unicode="&#xc9;" horiz-adv-x="497" 
d="M452 0h-385v724h385v-118h-247v-181h223v-116h-223v-191h247v-118zM392 918l-107 -132h-94l70 132c20 21 50 30 76 30s49 -11 55 -30z" />
    <glyph glyph-name="Ecircumflex" unicode="&#xca;" horiz-adv-x="497" 
d="M452 0h-385v724h385v-118h-247v-181h223v-116h-223v-191h247v-118zM402 821l-53 -45l-95 83l-96 -83l-53 45l104 104c12 13 28 20 45 20s32 -7 44 -20z" />
    <glyph glyph-name="Edieresis" unicode="&#xcb;" horiz-adv-x="497" 
d="M452 0h-385v724h385v-118h-247v-181h223v-116h-223v-191h247v-118zM224 856c0 -34 -30 -63 -67 -63s-67 29 -67 63s30 62 67 62s67 -28 67 -62zM427 856c0 -34 -30 -63 -67 -63s-67 29 -67 63s30 62 67 62s67 -28 67 -62z" />
    <glyph glyph-name="Igrave" unicode="&#xcc;" horiz-adv-x="275" 
d="M208 0h-141v724h141v-724zM201 786h-93l-108 132c6 19 30 30 56 30s55 -9 75 -30z" />
    <glyph glyph-name="Iacute" unicode="&#xcd;" horiz-adv-x="275" 
d="M208 0h-141v724h141v-724zM275 918l-107 -132h-94l70 132c20 21 50 30 76 30s49 -11 55 -30z" />
    <glyph glyph-name="Icircumflex" unicode="&#xce;" horiz-adv-x="275" 
d="M286 821l-53 -45l-95 83l-96 -83l-53 45l104 104c12 13 28 20 45 20s32 -7 44 -20zM208 0h-141v724h141v-724z" />
    <glyph glyph-name="Idieresis" unicode="&#xcf;" horiz-adv-x="275" 
d="M208 0h-141v724h141v-724zM103 856c0 -34 -30 -63 -67 -63s-67 29 -67 63s30 62 67 62s67 -28 67 -62zM306 856c0 -34 -30 -63 -67 -63s-67 29 -67 63s30 62 67 62s67 -28 67 -62z" />
    <glyph glyph-name="Eth" unicode="&#xd0;" horiz-adv-x="642" 
d="M596 362c0 -243 -118 -374 -320 -374c-81 0 -155 17 -199 39v291h-51v101h51v278c45 22 120 39 199 39c202 0 320 -131 320 -374zM457 362c0 180 -72 256 -173 256c-27 0 -54 -4 -69 -10v-189h98v-101h-98v-203c13 -6 40 -9 69 -9c101 0 173 76 173 256z" />
    <glyph glyph-name="Ntilde" unicode="&#xd1;" horiz-adv-x="672" 
d="M605 0h-116l-259 429c-24 40 -43 85 -43 85h-2s2 -49 2 -94v-420h-120v724h121l253 -418c23 -39 43 -85 43 -85h2s-2 51 -2 97v406h121v-724zM481 892c-6 -58 -39 -101 -90 -101c-52 0 -69 45 -105 45c-25 0 -41 -20 -46 -50l-61 36c6 58 38 101 89 101
c52 0 69 -45 105 -45c25 0 41 19 46 50z" />
    <glyph glyph-name="Ograve" unicode="&#xd2;" horiz-adv-x="652" 
d="M606 362c0 -211 -90 -374 -280 -374s-280 163 -280 374s90 374 280 374s280 -163 280 -374zM465 362c0 149 -47 249 -139 249s-139 -100 -139 -249s47 -249 139 -249s139 100 139 249zM388 786h-93l-108 132c6 19 30 30 56 30s55 -9 75 -30z" />
    <glyph glyph-name="Oacute" unicode="&#xd3;" horiz-adv-x="652" 
d="M606 362c0 -211 -90 -374 -280 -374s-280 163 -280 374s90 374 280 374s280 -163 280 -374zM465 362c0 149 -47 249 -139 249s-139 -100 -139 -249s47 -249 139 -249s139 100 139 249zM464 918l-107 -132h-94l70 132c20 21 50 30 76 30s49 -11 55 -30z" />
    <glyph glyph-name="Ocircumflex" unicode="&#xd4;" horiz-adv-x="652" 
d="M606 362c0 -211 -90 -374 -280 -374s-280 163 -280 374s90 374 280 374s280 -163 280 -374zM465 362c0 149 -47 249 -139 249s-139 -100 -139 -249s47 -249 139 -249s139 100 139 249zM474 821l-53 -45l-95 83l-96 -83l-53 45l104 104c12 13 28 20 45 20s32 -7 44 -20z
" />
    <glyph glyph-name="Otilde" unicode="&#xd5;" horiz-adv-x="652" 
d="M606 362c0 -211 -90 -374 -280 -374s-280 163 -280 374s90 374 280 374s280 -163 280 -374zM465 362c0 149 -47 249 -139 249s-139 -100 -139 -249s47 -249 139 -249s139 100 139 249zM473 892c-6 -58 -39 -101 -90 -101c-52 0 -69 45 -105 45c-25 0 -41 -20 -46 -50
l-61 36c6 58 38 101 89 101c52 0 69 -45 105 -45c25 0 41 19 46 50z" />
    <glyph glyph-name="Odieresis" unicode="&#xd6;" horiz-adv-x="652" 
d="M606 362c0 -211 -90 -374 -280 -374s-280 163 -280 374s90 374 280 374s280 -163 280 -374zM465 362c0 149 -47 249 -139 249s-139 -100 -139 -249s47 -249 139 -249s139 100 139 249zM291 856c0 -34 -30 -63 -67 -63s-67 29 -67 63s30 62 67 62s67 -28 67 -62zM494 856
c0 -34 -30 -63 -67 -63s-67 29 -67 63s30 62 67 62s67 -28 67 -62z" />
    <glyph glyph-name="multiply" unicode="&#xd7;" horiz-adv-x="548" 
d="M499 177l-76 -76l-149 148l-148 -148l-76 76l148 148l-148 148l76 76l148 -148l149 148l76 -76l-149 -148z" />
    <glyph glyph-name="Oslash" unicode="&#xd8;" horiz-adv-x="652" 
d="M606 362c0 -211 -90 -374 -280 -374c-63 0 -115 19 -157 53l-59 -93l-63 41l69 109c-47 68 -70 161 -70 264c0 211 90 374 280 374c64 0 118 -20 160 -55l57 91l63 -41l-68 -108c45 -67 68 -159 68 -261zM420 579c-24 29 -55 44 -94 44c-101 0 -151 -106 -151 -261
c0 -54 6 -102 18 -142zM477 362c0 52 -6 99 -17 138l-226 -357c24 -27 54 -42 92 -42c101 0 151 106 151 261z" />
    <glyph glyph-name="Ugrave" unicode="&#xd9;" horiz-adv-x="628" 
d="M561 214c0 -143 -106 -224 -247 -224s-247 81 -247 224v510h141v-511c0 -64 47 -102 106 -102s106 38 106 102v511h141v-510zM380 786h-93l-108 132c6 19 30 30 56 30s55 -9 75 -30z" />
    <glyph glyph-name="Uacute" unicode="&#xda;" horiz-adv-x="628" 
d="M561 214c0 -143 -106 -224 -247 -224s-247 81 -247 224v510h141v-511c0 -64 47 -102 106 -102s106 38 106 102v511h141v-510zM449 918l-107 -132h-94l70 132c20 21 50 30 76 30s49 -11 55 -30z" />
    <glyph glyph-name="Ucircumflex" unicode="&#xdb;" horiz-adv-x="628" 
d="M561 214c0 -143 -106 -224 -247 -224s-247 81 -247 224v510h141v-511c0 -64 47 -102 106 -102s106 38 106 102v511h141v-510zM463 821l-53 -45l-95 83l-96 -83l-53 45l104 104c12 13 28 20 45 20s32 -7 44 -20z" />
    <glyph glyph-name="Udieresis" unicode="&#xdc;" horiz-adv-x="628" 
d="M561 214c0 -143 -106 -224 -247 -224s-247 81 -247 224v510h141v-511c0 -64 47 -102 106 -102s106 38 106 102v511h141v-510zM279 856c0 -34 -30 -63 -67 -63s-67 29 -67 63s30 62 67 62s67 -28 67 -62zM482 856c0 -34 -30 -63 -67 -63s-67 29 -67 63s30 62 67 62
s67 -28 67 -62z" />
    <glyph glyph-name="Yacute" unicode="&#xdd;" horiz-adv-x="585" 
d="M578 724l-215 -440v-284h-141v284l-215 440h152l132 -298h2l133 298h152zM432 918l-107 -132h-94l70 132c20 21 50 30 76 30s49 -11 55 -30z" />
    <glyph glyph-name="Thorn" unicode="&#xde;" horiz-adv-x="597" 
d="M555 367c0 -131 -96 -228 -283 -228c-24 0 -51 2 -67 5v-144h-138v724h138v-135c19 6 45 10 71 10c184 0 279 -89 279 -232zM417 368c0 83 -48 123 -139 123c-27 0 -55 -4 -73 -10v-230c14 -3 37 -5 60 -5c99 0 152 46 152 122z" />
    <glyph glyph-name="germandbls" unicode="&#xdf;" horiz-adv-x="635" 
d="M598 162c0 -107 -79 -172 -197 -172c-49 0 -107 13 -138 30l27 106c22 -12 56 -22 84 -22c52 0 84 24 84 67c0 44 -34 68 -70 95c-46 34 -99 75 -99 151c0 62 38 111 110 138c2 10 2 20 2 30c0 58 -28 104 -97 104c-74 0 -107 -58 -107 -145v-544h-136v544
c0 151 82 253 240 253c162 0 230 -102 230 -217c0 -29 -4 -60 -12 -89c-64 -9 -93 -37 -93 -78c0 -35 30 -57 64 -82c49 -36 108 -81 108 -169z" />
    <glyph glyph-name="agrave" unicode="&#xe0;" horiz-adv-x="541" 
d="M481 27c-40 -21 -121 -39 -202 -39c-162 0 -243 64 -243 174c0 147 153 176 316 185v28c0 56 -39 77 -101 77c-51 0 -113 -16 -151 -32l-34 92c45 19 122 39 200 39c138 0 215 -54 215 -192v-332zM352 96v164c-100 -5 -188 -14 -188 -95c0 -51 40 -80 111 -80
c29 0 63 5 77 11zM353 601h-93l-108 132c6 19 30 30 56 30s55 -9 75 -30z" />
    <glyph glyph-name="aacute" unicode="&#xe1;" horiz-adv-x="541" 
d="M481 27c-40 -21 -121 -39 -202 -39c-162 0 -243 64 -243 174c0 147 153 176 316 185v28c0 56 -39 77 -101 77c-51 0 -113 -16 -151 -32l-34 92c45 19 122 39 200 39c138 0 215 -54 215 -192v-332zM352 96v164c-100 -5 -188 -14 -188 -95c0 -51 40 -80 111 -80
c29 0 63 5 77 11zM411 733l-107 -132h-94l70 132c20 21 50 30 76 30s49 -11 55 -30z" />
    <glyph glyph-name="acircumflex" unicode="&#xe2;" horiz-adv-x="541" 
d="M481 27c-40 -21 -121 -39 -202 -39c-162 0 -243 64 -243 174c0 147 153 176 316 185v28c0 56 -39 77 -101 77c-51 0 -113 -16 -151 -32l-34 92c45 19 122 39 200 39c138 0 215 -54 215 -192v-332zM352 96v164c-100 -5 -188 -14 -188 -95c0 -51 40 -80 111 -80
c29 0 63 5 77 11zM418 636l-53 -45l-95 83l-96 -83l-53 45l104 104c12 13 28 20 45 20s32 -7 44 -20z" />
    <glyph glyph-name="atilde" unicode="&#xe3;" horiz-adv-x="541" 
d="M481 27c-40 -21 -121 -39 -202 -39c-162 0 -243 64 -243 174c0 147 153 176 316 185v28c0 56 -39 77 -101 77c-51 0 -113 -16 -151 -32l-34 92c45 19 122 39 200 39c138 0 215 -54 215 -192v-332zM352 96v164c-100 -5 -188 -14 -188 -95c0 -51 40 -80 111 -80
c29 0 63 5 77 11zM424 707c-6 -58 -39 -101 -90 -101c-52 0 -69 45 -105 45c-25 0 -41 -20 -46 -50l-61 36c6 58 38 101 89 101c52 0 69 -45 105 -45c25 0 41 19 46 50z" />
    <glyph glyph-name="adieresis" unicode="&#xe4;" horiz-adv-x="541" 
d="M481 27c-40 -21 -121 -39 -202 -39c-162 0 -243 64 -243 174c0 147 153 176 316 185v28c0 56 -39 77 -101 77c-51 0 -113 -16 -151 -32l-34 92c45 19 122 39 200 39c138 0 215 -54 215 -192v-332zM352 96v164c-100 -5 -188 -14 -188 -95c0 -51 40 -80 111 -80
c29 0 63 5 77 11zM243 671c0 -34 -29 -63 -66 -63s-67 29 -67 63s30 62 67 62s66 -28 66 -62zM447 671c0 -34 -29 -63 -66 -63s-67 29 -67 63s30 62 67 62s66 -28 66 -62z" />
    <glyph glyph-name="aring" unicode="&#xe5;" horiz-adv-x="541" 
d="M481 27c-40 -21 -121 -39 -202 -39c-162 0 -243 64 -243 174c0 147 153 176 316 185v28c0 56 -39 77 -101 77c-51 0 -113 -16 -151 -32l-34 92c45 19 122 39 200 39c138 0 215 -54 215 -192v-332zM352 96v164c-100 -5 -188 -14 -188 -95c0 -51 40 -80 111 -80
c29 0 63 5 77 11zM380 689c0 -55 -45 -98 -104 -98s-105 43 -105 98s46 97 105 97s104 -42 104 -97zM321 689c0 25 -20 44 -45 44s-46 -19 -46 -44s21 -45 46 -45s45 20 45 45z" />
    <glyph glyph-name="ae" unicode="&#xe6;" horiz-adv-x="864" 
d="M822 295c0 -11 0 -23 -1 -35l-344 -47c13 -79 70 -118 149 -118c52 0 109 14 147 34l39 -102c-43 -22 -114 -39 -194 -39c-95 0 -165 39 -193 86c-21 -46 -84 -86 -168 -86c-143 0 -221 68 -221 174c0 147 153 176 316 185v28c0 56 -39 77 -101 77
c-51 0 -113 -16 -151 -32l-34 92c45 19 121 39 194 39c93 0 144 -26 166 -79c36 50 88 79 168 79c147 0 228 -101 228 -256zM689 330c0 81 -41 122 -104 122c-71 0 -118 -54 -119 -153zM352 169v91c-100 -5 -188 -14 -188 -95c0 -49 34 -80 98 -80c55 0 90 36 90 84z" />
    <glyph glyph-name="ccedilla" unicode="&#xe7;" horiz-adv-x="457" 
d="M426 25c-35 -23 -79 -37 -143 -37c-126 0 -241 90 -241 282s115 281 241 281c64 0 109 -14 143 -37l-43 -98c-20 15 -49 23 -80 23c-67 0 -120 -56 -120 -168s55 -168 120 -168c31 0 60 9 80 24zM366 -126c0 -59 -69 -89 -184 -89c-26 0 -55 2 -86 5l29 53
c19 -2 35 -3 51 -3c56 0 91 13 91 34c0 19 -18 26 -57 26c-16 0 -35 -1 -57 -3l26 48c22 2 41 3 58 3c96 0 129 -30 129 -74z" />
    <glyph glyph-name="egrave" unicode="&#xe8;" horiz-adv-x="566" 
d="M524 306c0 -15 0 -30 -2 -46l-347 -47c12 -79 70 -118 149 -118c54 0 112 14 150 34l39 -102c-45 -23 -121 -39 -199 -39c-178 0 -272 116 -272 282c0 165 93 281 250 281c149 0 232 -98 232 -245zM392 330c0 81 -40 122 -103 122c-71 0 -121 -52 -123 -153zM357 601h-93
l-108 132c6 19 30 30 56 30s55 -9 75 -30z" />
    <glyph glyph-name="eacute" unicode="&#xe9;" horiz-adv-x="566" 
d="M524 306c0 -15 0 -30 -2 -46l-347 -47c12 -79 70 -118 149 -118c54 0 112 14 150 34l39 -102c-45 -23 -121 -39 -199 -39c-178 0 -272 116 -272 282c0 165 93 281 250 281c149 0 232 -98 232 -245zM392 330c0 81 -40 122 -103 122c-71 0 -121 -52 -123 -153zM428 733
l-107 -132h-94l70 132c20 21 50 30 76 30s49 -11 55 -30z" />
    <glyph glyph-name="ecircumflex" unicode="&#xea;" horiz-adv-x="566" 
d="M524 306c0 -15 0 -30 -2 -46l-347 -47c12 -79 70 -118 149 -118c54 0 112 14 150 34l39 -102c-45 -23 -121 -39 -199 -39c-178 0 -272 116 -272 282c0 165 93 281 250 281c149 0 232 -98 232 -245zM392 330c0 81 -40 122 -103 122c-71 0 -121 -52 -123 -153zM435 636
l-53 -45l-95 83l-96 -83l-53 45l104 104c12 13 28 20 45 20s32 -7 44 -20z" />
    <glyph glyph-name="edieresis" unicode="&#xeb;" horiz-adv-x="566" 
d="M524 306c0 -15 0 -30 -2 -46l-347 -47c12 -79 70 -118 149 -118c54 0 112 14 150 34l39 -102c-45 -23 -121 -39 -199 -39c-178 0 -272 116 -272 282c0 165 93 281 250 281c149 0 232 -98 232 -245zM392 330c0 81 -40 122 -103 122c-71 0 -121 -52 -123 -153zM251 671
c0 -34 -29 -63 -66 -63s-67 29 -67 63s30 62 67 62s66 -28 66 -62zM455 671c0 -34 -29 -63 -66 -63s-67 29 -67 63s30 62 67 62s66 -28 66 -62z" />
    <glyph glyph-name="igrave" unicode="&#xec;" horiz-adv-x="262" 
d="M199 0h-136v539h136v-539zM198 601h-93l-108 132c6 19 30 30 56 30s55 -9 75 -30z" />
    <glyph glyph-name="iacute" unicode="&#xed;" horiz-adv-x="262" 
d="M199 0h-136v539h136v-539zM265 733l-107 -132h-94l70 132c20 21 50 30 76 30s49 -11 55 -30z" />
    <glyph glyph-name="icircumflex" unicode="&#xee;" horiz-adv-x="262" 
d="M199 0h-136v539h136v-539zM280 636l-53 -45l-95 83l-96 -83l-53 45l104 104c12 13 28 20 45 20s32 -7 44 -20z" />
    <glyph glyph-name="idieresis" unicode="&#xef;" horiz-adv-x="262" 
d="M199 0h-136v539h136v-539zM96 671c0 -34 -29 -63 -66 -63s-67 29 -67 63s30 62 67 62s66 -28 66 -62zM299 671c0 -34 -29 -63 -66 -63s-67 29 -67 63s30 62 67 62s66 -28 66 -62z" />
    <glyph glyph-name="eth" unicode="&#xf0;" horiz-adv-x="573" 
d="M529 270c0 -161 -86 -282 -243 -282s-244 121 -244 282c0 163 95 274 244 274c19 0 35 -3 49 -7c-14 31 -32 60 -50 88l-92 -31l-44 66l90 30c-18 23 -38 45 -57 66l120 39c19 -20 38 -42 56 -65l86 29l45 -65l-83 -28c73 -110 123 -241 123 -396zM393 270
c0 58 -8 111 -23 162c-17 6 -39 10 -65 10c-77 0 -127 -66 -127 -171c0 -108 36 -172 108 -172s107 63 107 171z" />
    <glyph glyph-name="ntilde" unicode="&#xf1;" horiz-adv-x="571" 
d="M510 0h-137v355c0 54 -33 87 -95 87c-32 0 -63 -6 -81 -13v-429h-136v512c57 23 126 39 215 39c160 0 234 -66 234 -182v-369zM430 707c-6 -58 -39 -101 -90 -101c-52 0 -69 45 -105 45c-25 0 -41 -20 -46 -50l-61 36c6 58 38 101 89 101c52 0 69 -45 105 -45
c25 0 41 19 46 50z" />
    <glyph glyph-name="ograve" unicode="&#xf2;" horiz-adv-x="572" 
d="M530 270c0 -161 -87 -282 -244 -282s-244 121 -244 282s87 281 244 281s244 -120 244 -281zM394 271c0 108 -36 173 -108 173s-108 -65 -108 -173s36 -172 108 -172s108 64 108 172zM346 601h-93l-108 132c6 19 30 30 56 30s55 -9 75 -30z" />
    <glyph glyph-name="oacute" unicode="&#xf3;" horiz-adv-x="572" 
d="M530 270c0 -161 -87 -282 -244 -282s-244 121 -244 282s87 281 244 281s244 -120 244 -281zM394 271c0 108 -36 173 -108 173s-108 -65 -108 -173s36 -172 108 -172s108 64 108 172zM423 733l-107 -132h-94l70 132c20 21 50 30 76 30s49 -11 55 -30z" />
    <glyph glyph-name="ocircumflex" unicode="&#xf4;" horiz-adv-x="572" 
d="M530 270c0 -161 -87 -282 -244 -282s-244 121 -244 282s87 281 244 281s244 -120 244 -281zM394 271c0 108 -36 173 -108 173s-108 -65 -108 -173s36 -172 108 -172s108 64 108 172zM435 636l-53 -45l-95 83l-96 -83l-53 45l104 104c12 13 28 20 45 20s32 -7 44 -20z" />
    <glyph glyph-name="otilde" unicode="&#xf5;" horiz-adv-x="572" 
d="M530 270c0 -161 -87 -282 -244 -282s-244 121 -244 282s87 281 244 281s244 -120 244 -281zM394 271c0 108 -36 173 -108 173s-108 -65 -108 -173s36 -172 108 -172s108 64 108 172zM431 707c-6 -58 -39 -101 -90 -101c-52 0 -69 45 -105 45c-25 0 -41 -20 -46 -50
l-61 36c6 58 38 101 89 101c52 0 69 -45 105 -45c25 0 41 19 46 50z" />
    <glyph glyph-name="odieresis" unicode="&#xf6;" horiz-adv-x="572" 
d="M530 270c0 -161 -87 -282 -244 -282s-244 121 -244 282s87 281 244 281s244 -120 244 -281zM394 271c0 108 -36 173 -108 173s-108 -65 -108 -173s36 -172 108 -172s108 64 108 172zM251 671c0 -34 -29 -63 -66 -63s-67 29 -67 63s30 62 67 62s66 -28 66 -62zM455 671
c0 -34 -29 -63 -66 -63s-67 29 -67 63s30 62 67 62s66 -28 66 -62z" />
    <glyph glyph-name="divide" unicode="&#xf7;" horiz-adv-x="548" 
d="M344 505c0 -38 -32 -70 -70 -70s-69 32 -69 70s31 69 69 69s70 -31 70 -69zM487 278h-426v94h426v-94zM344 145c0 -38 -32 -69 -70 -69s-69 31 -69 69s31 70 69 70s70 -32 70 -70z" />
    <glyph glyph-name="oslash" unicode="&#xf8;" horiz-adv-x="572" 
d="M530 270c0 -161 -87 -282 -244 -282c-51 0 -96 14 -132 38l-59 -84l-52 40l62 88c-41 51 -63 121 -63 200c0 161 87 281 244 281c52 0 96 -14 132 -38l59 84l52 -40l-62 -88c41 -50 63 -121 63 -199zM357 427c-18 17 -42 27 -71 27c-82 0 -122 -79 -122 -183
c0 -36 4 -69 14 -97zM407 271c0 35 -4 67 -13 94l-178 -251c18 -16 42 -26 70 -26c82 0 121 79 121 183z" />
    <glyph glyph-name="ugrave" unicode="&#xf9;" horiz-adv-x="564" 
d="M503 27c-47 -23 -131 -39 -215 -39c-149 0 -227 60 -227 200v351h136v-354c0 -58 31 -85 91 -85c35 0 64 6 79 12v427h136v-512zM345 601h-93l-108 132c6 19 30 30 56 30s55 -9 75 -30z" />
    <glyph glyph-name="uacute" unicode="&#xfa;" horiz-adv-x="564" 
d="M503 27c-47 -23 -131 -39 -215 -39c-149 0 -227 60 -227 200v351h136v-354c0 -58 31 -85 91 -85c35 0 64 6 79 12v427h136v-512zM420 733l-107 -132h-94l70 132c20 21 50 30 76 30s49 -11 55 -30z" />
    <glyph glyph-name="ucircumflex" unicode="&#xfb;" horiz-adv-x="564" 
d="M503 27c-47 -23 -131 -39 -215 -39c-149 0 -227 60 -227 200v351h136v-354c0 -58 31 -85 91 -85c35 0 64 6 79 12v427h136v-512zM430 636l-53 -45l-95 83l-96 -83l-53 45l104 104c12 13 28 20 45 20s32 -7 44 -20z" />
    <glyph glyph-name="udieresis" unicode="&#xfc;" horiz-adv-x="564" 
d="M503 27c-47 -23 -131 -39 -215 -39c-149 0 -227 60 -227 200v351h136v-354c0 -58 31 -85 91 -85c35 0 64 6 79 12v427h136v-512zM247 671c0 -34 -29 -63 -66 -63s-67 29 -67 63s30 62 67 62s66 -28 66 -62zM450 671c0 -34 -29 -63 -66 -63s-67 29 -67 63s30 62 67 62
s66 -28 66 -62z" />
    <glyph glyph-name="yacute" unicode="&#xfd;" horiz-adv-x="577" 
d="M562 539l-282 -754h-143l81 215l-203 539h154l101 -339c12 -40 18 -85 18 -85h2s6 45 18 85l101 339h153zM434 733l-107 -132h-94l70 132c20 21 50 30 76 30s49 -11 55 -30z" />
    <glyph glyph-name="thorn" unicode="&#xfe;" horiz-adv-x="569" 
d="M527 278c0 -197 -99 -287 -263 -287c-24 0 -49 3 -67 9v-215h-136v1000h136v-257c24 11 63 18 95 18c140 0 235 -96 235 -268zM390 272c0 109 -47 169 -124 169c-25 0 -52 -6 -69 -14v-320c13 -6 38 -10 63 -10c78 0 130 54 130 175z" />
    <glyph glyph-name="ydieresis" unicode="&#xff;" horiz-adv-x="577" 
d="M562 539l-282 -754h-143l81 215l-203 539h154l101 -339c12 -40 18 -85 18 -85h2s6 45 18 85l101 339h153zM253 671c0 -34 -29 -63 -66 -63s-67 29 -67 63s30 62 67 62s66 -28 66 -62zM456 671c0 -34 -29 -63 -66 -63s-67 29 -67 63s30 62 67 62s66 -28 66 -62z" />
    <glyph glyph-name="Amacron" unicode="&#x100;" horiz-adv-x="664" 
d="M657 0h-147l-53 169h-250l-53 -169h-147l242 724h166zM429 273l-76 247c-13 41 -20 88 -20 88h-2s-7 -47 -20 -88l-76 -247h194zM474 810h-283v82h283v-82z" />
    <glyph glyph-name="amacron" unicode="&#x101;" horiz-adv-x="541" 
d="M481 27c-40 -21 -121 -39 -202 -39c-162 0 -243 64 -243 174c0 147 153 176 316 185v28c0 56 -39 77 -101 77c-51 0 -113 -16 -151 -32l-34 92c45 19 122 39 200 39c138 0 215 -54 215 -192v-332zM352 96v164c-100 -5 -188 -14 -188 -95c0 -51 40 -80 111 -80
c29 0 63 5 77 11zM420 624h-283v82h283v-82z" />
    <glyph glyph-name="Abreve" unicode="&#x102;" horiz-adv-x="664" 
d="M657 0h-147l-53 169h-250l-53 -169h-147l242 724h166zM429 273l-76 247c-13 41 -20 88 -20 88h-2s-7 -47 -20 -88l-76 -247h194zM481 931c-5 -92 -55 -152 -149 -152s-145 60 -150 152l77 12c6 -54 27 -83 73 -83s66 29 72 83z" />
    <glyph glyph-name="abreve" unicode="&#x103;" horiz-adv-x="541" 
d="M481 27c-40 -21 -121 -39 -202 -39c-162 0 -243 64 -243 174c0 147 153 176 316 185v28c0 56 -39 77 -101 77c-51 0 -113 -16 -151 -32l-34 92c45 19 122 39 200 39c138 0 215 -54 215 -192v-332zM352 96v164c-100 -5 -188 -14 -188 -95c0 -51 40 -80 111 -80
c29 0 63 5 77 11zM421 746c-5 -92 -55 -152 -149 -152s-145 60 -150 152l77 12c6 -54 27 -83 73 -83s66 29 72 83z" />
    <glyph glyph-name="Aogonek" unicode="&#x104;" horiz-adv-x="664" 
d="M657 0h-64c-52 -31 -74 -66 -74 -93c0 -23 17 -39 45 -39c18 0 37 4 55 12l24 -60c-27 -16 -67 -28 -104 -28c-70 0 -117 37 -117 91c0 39 28 84 87 119l-52 167h-250l-53 -169h-147l242 724h166zM429 273l-76 247c-13 41 -20 88 -20 88h-2s-7 -47 -20 -88l-76 -247h194z
" />
    <glyph glyph-name="aogonek" unicode="&#x105;" horiz-adv-x="541" 
d="M481 27c-11 -6 -26 -11 -42 -16c-66 -32 -94 -74 -94 -104c0 -23 17 -39 45 -39c18 0 38 4 56 12l23 -60c-27 -16 -66 -28 -103 -28c-70 0 -117 37 -117 91c0 35 22 74 68 107c-13 -1 -25 -2 -38 -2c-162 0 -243 64 -243 174c0 147 153 176 316 185v28
c0 56 -39 77 -101 77c-51 0 -113 -16 -151 -32l-34 92c45 19 122 39 200 39c138 0 215 -54 215 -192v-332zM352 96v164c-100 -5 -188 -14 -188 -95c0 -51 40 -80 111 -80c29 0 63 5 77 11z" />
    <glyph glyph-name="Cacute" unicode="&#x106;" horiz-adv-x="524" 
d="M490 27c-34 -23 -91 -39 -157 -39c-159 0 -287 122 -287 374s128 374 287 374c64 0 123 -16 157 -39l-44 -113c-20 15 -56 29 -96 29c-93 0 -159 -86 -159 -250s66 -249 159 -249c40 0 76 13 96 28zM446 918l-107 -132h-94l70 132c20 21 50 30 76 30s49 -11 55 -30z" />
    <glyph glyph-name="cacute" unicode="&#x107;" horiz-adv-x="457" 
d="M426 25c-35 -23 -79 -37 -143 -37c-126 0 -241 90 -241 282s115 281 241 281c64 0 109 -14 143 -37l-43 -98c-20 15 -49 23 -80 23c-67 0 -120 -56 -120 -168s55 -168 120 -168c31 0 60 9 80 24zM403 733l-107 -132h-94l70 132c20 21 50 30 76 30s49 -11 55 -30z" />
    <glyph glyph-name="Ccircumflex" unicode="&#x108;" horiz-adv-x="524" 
d="M490 27c-34 -23 -91 -39 -157 -39c-159 0 -287 122 -287 374s128 374 287 374c64 0 123 -16 157 -39l-44 -113c-20 15 -56 29 -96 29c-93 0 -159 -86 -159 -250s66 -249 159 -249c40 0 76 13 96 28zM455 821l-53 -45l-95 83l-96 -83l-53 45l104 104c12 13 28 20 45 20
s32 -7 44 -20z" />
    <glyph glyph-name="ccircumflex" unicode="&#x109;" horiz-adv-x="457" 
d="M426 25c-35 -23 -79 -37 -143 -37c-126 0 -241 90 -241 282s115 281 241 281c64 0 109 -14 143 -37l-43 -98c-20 15 -49 23 -80 23c-67 0 -120 -56 -120 -168s55 -168 120 -168c31 0 60 9 80 24zM411 636l-53 -45l-95 83l-96 -83l-53 45l104 104c12 13 28 20 45 20
s32 -7 44 -20z" />
    <glyph glyph-name="Cdotaccent" unicode="&#x10a;" horiz-adv-x="524" 
d="M490 27c-34 -23 -91 -39 -157 -39c-159 0 -287 122 -287 374s128 374 287 374c64 0 123 -16 157 -39l-44 -113c-20 15 -56 29 -96 29c-93 0 -159 -86 -159 -250s66 -249 159 -249c40 0 76 13 96 28zM385 866c0 -39 -33 -72 -75 -72s-76 33 -76 72s34 71 76 71
s75 -32 75 -71z" />
    <glyph glyph-name="cdotaccent" unicode="&#x10b;" horiz-adv-x="457" 
d="M426 25c-35 -23 -79 -37 -143 -37c-126 0 -241 90 -241 282s115 281 241 281c64 0 109 -14 143 -37l-43 -98c-20 15 -49 23 -80 23c-67 0 -120 -56 -120 -168s55 -168 120 -168c31 0 60 9 80 24zM337 681c0 -39 -33 -72 -75 -72s-76 33 -76 72s34 71 76 71s75 -32 75 -71
z" />
    <glyph glyph-name="Ccaron" unicode="&#x10c;" horiz-adv-x="524" 
d="M490 27c-34 -23 -91 -39 -157 -39c-159 0 -287 122 -287 374s128 374 287 374c64 0 123 -16 157 -39l-44 -113c-20 15 -56 29 -96 29c-93 0 -159 -86 -159 -250s66 -249 159 -249c40 0 76 13 96 28zM455 903l-104 -105c-12 -13 -27 -20 -44 -20s-33 7 -45 20l-104 105
l53 44l96 -82l95 82z" />
    <glyph glyph-name="ccaron" unicode="&#x10d;" horiz-adv-x="457" 
d="M426 25c-35 -23 -79 -37 -143 -37c-126 0 -241 90 -241 282s115 281 241 281c64 0 109 -14 143 -37l-43 -98c-20 15 -49 23 -80 23c-67 0 -120 -56 -120 -168s55 -168 120 -168c31 0 60 9 80 24zM410 718l-104 -105c-12 -13 -27 -20 -44 -20s-33 7 -45 20l-104 105l53 44
l96 -82l95 82z" />
    <glyph glyph-name="Dcaron" unicode="&#x10e;" horiz-adv-x="632" 
d="M586 362c0 -243 -118 -374 -320 -374c-81 0 -155 17 -199 39v670c45 22 120 39 199 39c202 0 320 -131 320 -374zM445 362c0 180 -71 255 -171 255c-27 0 -51 -4 -66 -10v-490c13 -6 38 -10 66 -10c100 0 171 75 171 255zM431 903l-104 -105c-12 -13 -27 -20 -44 -20
s-33 7 -45 20l-104 105l53 44l96 -82l95 82z" />
    <glyph glyph-name="dcaron" unicode="&#x10f;" horiz-adv-x="581" 
d="M508 27c-39 -21 -115 -39 -197 -39c-174 0 -269 103 -269 278c0 166 87 278 252 278c29 0 60 -5 77 -11v252h137v-758zM371 106v325c-11 5 -39 10 -63 10c-85 0 -130 -71 -130 -173c0 -109 46 -173 130 -173c24 0 52 5 63 11zM700 765l-37 -164h-76v164
c13 19 34 29 57 29s44 -10 56 -29z" />
    <glyph glyph-name="Dcroat" unicode="&#x110;" horiz-adv-x="642" 
d="M596 362c0 -243 -118 -374 -320 -374c-81 0 -155 17 -199 39v291h-51v101h51v278c45 22 120 39 199 39c202 0 320 -131 320 -374zM457 362c0 180 -72 256 -173 256c-27 0 -54 -4 -69 -10v-189h98v-101h-98v-203c13 -6 40 -9 69 -9c101 0 173 76 173 256z" />
    <glyph glyph-name="dcroat" unicode="&#x111;" horiz-adv-x="569" 
d="M575 617h-67v-590c-39 -21 -115 -39 -197 -39c-174 0 -269 103 -269 278c0 166 87 278 252 278c29 0 60 -5 77 -11v84h-149v81h149v87h137v-87h67v-81zM371 106v325c-11 5 -39 10 -63 10c-85 0 -130 -71 -130 -173c0 -109 46 -173 130 -173c24 0 52 5 63 11z" />
    <glyph glyph-name="Emacron" unicode="&#x112;" horiz-adv-x="497" 
d="M452 0h-385v724h385v-118h-247v-181h223v-116h-223v-191h247v-118zM399 810h-283v82h283v-82z" />
    <glyph glyph-name="emacron" unicode="&#x113;" horiz-adv-x="566" 
d="M524 306c0 -15 0 -30 -2 -46l-347 -47c12 -79 70 -118 149 -118c54 0 112 14 150 34l39 -102c-45 -23 -121 -39 -199 -39c-178 0 -272 116 -272 282c0 165 93 281 250 281c149 0 232 -98 232 -245zM392 330c0 81 -40 122 -103 122c-71 0 -121 -52 -123 -153zM428 624
h-283v82h283v-82z" />
    <glyph glyph-name="Ebreve" unicode="&#x114;" horiz-adv-x="497" 
d="M452 0h-385v724h385v-118h-247v-181h223v-116h-223v-191h247v-118zM406 931c-5 -92 -55 -152 -149 -152s-145 60 -150 152l77 12c6 -54 27 -83 73 -83s66 29 72 83z" />
    <glyph glyph-name="ebreve" unicode="&#x115;" horiz-adv-x="566" 
d="M524 306c0 -15 0 -30 -2 -46l-347 -47c12 -79 70 -118 149 -118c54 0 112 14 150 34l39 -102c-45 -23 -121 -39 -199 -39c-178 0 -272 116 -272 282c0 165 93 281 250 281c149 0 232 -98 232 -245zM392 330c0 81 -40 122 -103 122c-71 0 -121 -52 -123 -153zM436 746
c-5 -92 -55 -152 -149 -152s-145 60 -150 152l77 12c6 -54 27 -83 73 -83s66 29 72 83z" />
    <glyph glyph-name="Edotaccent" unicode="&#x116;" horiz-adv-x="497" 
d="M452 0h-385v724h385v-118h-247v-181h223v-116h-223v-191h247v-118zM331 866c0 -39 -33 -72 -75 -72s-76 33 -76 72s34 71 76 71s75 -32 75 -71z" />
    <glyph glyph-name="edotaccent" unicode="&#x117;" horiz-adv-x="566" 
d="M524 306c0 -15 0 -30 -2 -46l-347 -47c12 -79 70 -118 149 -118c54 0 112 14 150 34l39 -102c-45 -23 -121 -39 -199 -39c-178 0 -272 116 -272 282c0 165 93 281 250 281c149 0 232 -98 232 -245zM392 330c0 81 -40 122 -103 122c-71 0 -121 -52 -123 -153zM364 681
c0 -39 -33 -72 -75 -72s-76 33 -76 72s34 71 76 71s75 -32 75 -71z" />
    <glyph glyph-name="Eogonek" unicode="&#x118;" horiz-adv-x="497" 
d="M471 -180c-27 -16 -66 -28 -103 -28c-70 0 -118 37 -118 91c0 38 28 82 85 117h-268v724h385v-118h-247v-181h223v-116h-223v-191h247v-118h-31c-52 -31 -74 -66 -74 -93c0 -23 17 -39 45 -39c18 0 37 4 55 12z" />
    <glyph glyph-name="eogonek" unicode="&#x119;" horiz-adv-x="566" 
d="M524 306c0 -15 0 -30 -2 -46l-347 -47c12 -79 70 -118 149 -118c54 0 112 14 150 34l39 -102c-11 -6 -25 -11 -40 -16c-66 -32 -94 -74 -94 -104c0 -23 17 -39 45 -39c18 0 37 4 55 12l24 -60c-27 -16 -66 -28 -103 -28c-70 0 -118 37 -118 91c0 35 23 74 69 107
c-12 -1 -24 -2 -37 -2c-178 0 -272 116 -272 282c0 165 93 281 250 281c149 0 232 -98 232 -245zM392 330c0 81 -40 122 -103 122c-71 0 -121 -52 -123 -153z" />
    <glyph glyph-name="Ecaron" unicode="&#x11a;" horiz-adv-x="497" 
d="M452 0h-385v724h385v-118h-247v-181h223v-116h-223v-191h247v-118zM403 903l-104 -105c-12 -13 -27 -20 -44 -20s-33 7 -45 20l-104 105l53 44l96 -82l95 82z" />
    <glyph glyph-name="ecaron" unicode="&#x11b;" horiz-adv-x="566" 
d="M524 306c0 -15 0 -30 -2 -46l-347 -47c12 -79 70 -118 149 -118c54 0 112 14 150 34l39 -102c-45 -23 -121 -39 -199 -39c-178 0 -272 116 -272 282c0 165 93 281 250 281c149 0 232 -98 232 -245zM392 330c0 81 -40 122 -103 122c-71 0 -121 -52 -123 -153zM435 718
l-104 -105c-12 -13 -27 -20 -44 -20s-33 7 -45 20l-104 105l53 44l96 -82l95 82z" />
    <glyph glyph-name="Gcircumflex" unicode="&#x11c;" horiz-adv-x="637" 
d="M574 27c-39 -21 -113 -39 -199 -39c-202 0 -329 145 -329 374s135 374 341 374c74 0 144 -17 181 -39l-44 -110c-28 16 -75 29 -132 29c-114 0 -205 -80 -205 -253s85 -256 178 -256c35 0 64 5 77 11v202h-111v107h243v-400zM499 821l-53 -45l-95 83l-96 -83l-53 45
l104 104c12 13 28 20 45 20s32 -7 44 -20z" />
    <glyph glyph-name="gcircumflex" unicode="&#x11d;" horiz-adv-x="569" 
d="M508 7c0 -152 -93 -232 -238 -232c-86 0 -156 18 -205 42l39 107c36 -19 92 -33 152 -33c80 0 117 41 117 116v33c-26 -12 -65 -19 -100 -19c-137 0 -231 95 -231 257c0 182 107 273 276 273c76 0 146 -17 190 -39v-505zM373 139v296c-14 6 -39 11 -67 11
c-75 0 -128 -50 -128 -163c0 -106 49 -159 124 -159c25 0 55 7 71 15zM444 636l-53 -45l-95 83l-96 -83l-53 45l104 104c12 13 28 20 45 20s32 -7 44 -20z" />
    <glyph glyph-name="Gbreve" unicode="&#x11e;" horiz-adv-x="637" 
d="M574 27c-39 -21 -113 -39 -199 -39c-202 0 -329 145 -329 374s135 374 341 374c74 0 144 -17 181 -39l-44 -110c-28 16 -75 29 -132 29c-114 0 -205 -80 -205 -253s85 -256 178 -256c35 0 64 5 77 11v202h-111v107h243v-400zM491 931c-5 -92 -55 -152 -149 -152
s-145 60 -150 152l77 12c6 -54 27 -83 73 -83s66 29 72 83z" />
    <glyph glyph-name="gbreve" unicode="&#x11f;" horiz-adv-x="569" 
d="M508 7c0 -152 -93 -232 -238 -232c-86 0 -156 18 -205 42l39 107c36 -19 92 -33 152 -33c80 0 117 41 117 116v33c-26 -12 -65 -19 -100 -19c-137 0 -231 95 -231 257c0 182 107 273 276 273c76 0 146 -17 190 -39v-505zM373 139v296c-14 6 -39 11 -67 11
c-75 0 -128 -50 -128 -163c0 -106 49 -159 124 -159c25 0 55 7 71 15zM445 746c-5 -92 -55 -152 -149 -152s-145 60 -150 152l77 12c6 -54 27 -83 73 -83s66 29 72 83z" />
    <glyph glyph-name="Gdotaccent" unicode="&#x120;" horiz-adv-x="637" 
d="M574 27c-39 -21 -113 -39 -199 -39c-202 0 -329 145 -329 374s135 374 341 374c74 0 144 -17 181 -39l-44 -110c-28 16 -75 29 -132 29c-114 0 -205 -80 -205 -253s85 -256 178 -256c35 0 64 5 77 11v202h-111v107h243v-400zM431 866c0 -39 -33 -72 -75 -72
s-76 33 -76 72s34 71 76 71s75 -32 75 -71z" />
    <glyph glyph-name="gdotaccent" unicode="&#x121;" horiz-adv-x="569" 
d="M508 7c0 -152 -93 -232 -238 -232c-86 0 -156 18 -205 42l39 107c36 -19 92 -33 152 -33c80 0 117 41 117 116v33c-26 -12 -65 -19 -100 -19c-137 0 -231 95 -231 257c0 182 107 273 276 273c76 0 146 -17 190 -39v-505zM373 139v296c-14 6 -39 11 -67 11
c-75 0 -128 -50 -128 -163c0 -106 49 -159 124 -159c25 0 55 7 71 15zM372 681c0 -39 -33 -72 -75 -72s-76 33 -76 72s34 71 76 71s75 -32 75 -71z" />
    <glyph glyph-name="Gcommaaccent" unicode="&#x122;" horiz-adv-x="637" 
d="M574 27c-39 -21 -113 -39 -199 -39c-202 0 -329 145 -329 374s135 374 341 374c74 0 144 -17 181 -39l-44 -110c-28 16 -75 29 -132 29c-114 0 -205 -80 -205 -253s85 -256 178 -256c35 0 64 5 77 11v202h-111v107h243v-400zM410 -77l-83 -138h-93l48 138
c19 21 47 29 73 29c27 0 50 -12 55 -29z" />
    <glyph glyph-name="gcommaaccent" unicode="&#x123;" horiz-adv-x="569" 
d="M508 7c0 -152 -93 -232 -238 -232c-86 0 -156 18 -205 42l39 107c36 -19 92 -33 152 -33c80 0 117 41 117 116v33c-26 -12 -65 -19 -100 -19c-137 0 -231 95 -231 257c0 182 107 273 276 273c76 0 146 -17 190 -39v-505zM373 139v296c-14 6 -39 11 -67 11
c-75 0 -128 -50 -128 -163c0 -106 49 -159 124 -159c25 0 55 7 71 15zM420 763l-48 -138c-19 -21 -47 -29 -73 -29c-27 0 -50 12 -55 29l84 138h92z" />
    <glyph glyph-name="Hcircumflex" unicode="&#x124;" horiz-adv-x="638" 
d="M571 0h-141v309h-222v-309h-141v724h141v-299h222v299h141v-724zM467 821l-53 -45l-95 83l-96 -83l-53 45l104 104c12 13 28 20 45 20s32 -7 44 -20z" />
    <glyph glyph-name="hcircumflex" unicode="&#x125;" horiz-adv-x="571" 
d="M510 0h-137v352c0 59 -36 89 -98 89c-27 0 -57 -8 -78 -20v-421h-136v785h136v-262c32 15 73 25 113 25c127 0 200 -64 200 -182v-366zM278 859l-53 -45l-95 83l-96 -83l-53 45l104 104c12 13 28 20 45 20s32 -7 44 -20z" />
    <glyph glyph-name="Hbar" unicode="&#x126;" horiz-adv-x="638" 
d="M631 529h-59v-529h-139v309h-228v-309h-138v529h-60v75h60v120h138v-120h228v120h139v-120h59v-75zM433 422v107h-228v-107h228z" />
    <glyph glyph-name="hbar" unicode="&#x127;" horiz-adv-x="571" 
d="M510 0h-137v352c0 59 -36 89 -98 89c-27 0 -58 -8 -79 -20v-421h-134v620h-70v78h70v87h134v-87h149v-78h-149v-97c32 15 74 25 114 25c127 0 200 -64 200 -182v-366z" />
    <glyph glyph-name="Itilde" unicode="&#x128;" horiz-adv-x="275" 
d="M208 0h-141v724h141v-724zM289 892c-6 -58 -39 -101 -90 -101c-52 0 -69 45 -105 45c-25 0 -41 -20 -46 -50l-61 36c6 58 38 101 89 101c52 0 69 -45 105 -45c25 0 41 19 46 50z" />
    <glyph glyph-name="itilde" unicode="&#x129;" horiz-adv-x="262" 
d="M199 0h-136v539h136v-539zM282 707c-6 -58 -39 -101 -90 -101c-52 0 -69 45 -105 45c-25 0 -41 -20 -46 -50l-61 36c6 58 38 101 89 101c52 0 69 -45 105 -45c25 0 41 19 46 50z" />
    <glyph glyph-name="Imacron" unicode="&#x12a;" horiz-adv-x="275" 
d="M207 0h-141v724h141v-724zM279 810h-283v82h283v-82z" />
    <glyph glyph-name="imacron" unicode="&#x12b;" horiz-adv-x="262" 
d="M199 0h-136v539h136v-539zM273 624h-283v82h283v-82z" />
    <glyph glyph-name="Ibreve" unicode="&#x12c;" horiz-adv-x="275" 
d="M207 0h-141v724h141v-724zM287 931c-5 -92 -55 -152 -149 -152s-145 60 -150 152l77 12c6 -54 27 -83 73 -83s66 29 72 83z" />
    <glyph glyph-name="ibreve" unicode="&#x12d;" horiz-adv-x="262" 
d="M199 0h-136v539h136v-539zM281 746c-5 -92 -55 -152 -149 -152s-145 60 -150 152l77 12c6 -54 27 -83 73 -83s66 29 72 83z" />
    <glyph glyph-name="Iogonek" unicode="&#x12e;" horiz-adv-x="275" 
d="M208 0h-58c-52 -31 -74 -66 -74 -93c0 -23 17 -39 45 -39c18 0 38 4 56 12l23 -60c-27 -16 -66 -28 -103 -28c-70 0 -117 37 -117 91c0 39 28 84 87 119v722h141v-724z" />
    <glyph glyph-name="iogonek" unicode="&#x12f;" horiz-adv-x="262" 
d="M209 699c0 -41 -35 -74 -78 -74s-78 33 -78 74s35 73 78 73s78 -32 78 -73zM199 0h-54c-52 -31 -74 -66 -74 -93c0 -23 17 -39 45 -39c18 0 37 4 55 12l24 -60c-27 -16 -66 -28 -103 -28c-70 0 -118 37 -118 91c0 39 30 83 89 119v537h136v-539z" />
    <glyph glyph-name="Idotaccent" unicode="&#x130;" horiz-adv-x="262" 
d="M199 0h-136v539h136v-539zM207 681c0 -39 -33 -72 -75 -72s-76 33 -76 72s34 71 76 71s75 -32 75 -71z" />
    <glyph glyph-name="dotlessi" unicode="&#x131;" horiz-adv-x="262" 
d="M199 0h-136v539h136v-539z" />
    <glyph glyph-name="IJ" unicode="&#x132;" horiz-adv-x="551" 
d="M484 80c0 -184 -102 -278 -268 -299v121c76 19 127 72 127 178v644h141v-644zM208 0h-141v724h141v-724z" />
    <glyph glyph-name="ij" unicode="&#x133;" horiz-adv-x="524" 
d="M471 699c0 -41 -35 -74 -78 -74s-78 33 -78 74s35 73 78 73s78 -32 78 -73zM209 699c0 -41 -35 -74 -78 -74s-78 33 -78 74s35 73 78 73s78 -32 78 -73zM462 68c0 -201 -115 -272 -247 -291v113c58 18 110 67 110 178v471h137v-471zM199 0h-136v539h136v-539z" />
    <glyph glyph-name="Jcircumflex" unicode="&#x134;" horiz-adv-x="275" 
d="M208 80c0 -184 -101 -278 -267 -299v121c76 19 126 72 126 178v644h141v-644zM286 821l-53 -45l-95 83l-96 -83l-53 45l104 104c12 13 28 20 45 20s32 -7 44 -20z" />
    <glyph glyph-name="jcircumflex" unicode="&#x135;" horiz-adv-x="262" 
d="M199 68c0 -201 -114 -272 -246 -291v113c58 18 110 67 110 178v471h136v-471zM280 636l-53 -45l-95 83l-96 -83l-53 45l104 104c12 13 28 20 45 20s32 -7 44 -20z" />
    <glyph glyph-name="Kcommaaccent" unicode="&#x136;" horiz-adv-x="610" 
d="M601 0h-160l-231 360h-2v-360h-141v724h141v-328h2l227 328h159l-243 -346zM379 -77l-83 -138h-93l48 138c19 21 47 29 73 29c27 0 50 -12 55 -29z" />
    <glyph glyph-name="kcommaaccent" unicode="&#x137;" horiz-adv-x="554" 
d="M547 0h-154l-194 272h-2v-272h-135v785h135v-482h2l178 236h157l-194 -252zM348 -77l-83 -138h-93l48 138c19 21 47 29 73 29c27 0 50 -12 55 -29z" />
    <glyph glyph-name="kgreenlandic" unicode="&#x138;" horiz-adv-x="554" 
d="M547 0h-154l-194 272h-2v-272h-135v539h135v-236h2l178 236h157l-194 -252z" />
    <glyph glyph-name="Lacute" unicode="&#x139;" horiz-adv-x="464" 
d="M433 0h-366v724h141v-606h225v-118zM284 918l-107 -132h-94l70 132c20 21 50 30 76 30s49 -11 55 -30z" />
    <glyph glyph-name="lacute" unicode="&#x13a;" horiz-adv-x="262" 
d="M199 0h-136v785h136v-785zM283 963l-107 -132h-94l70 132c20 21 50 30 76 30s49 -11 55 -30z" />
    <glyph glyph-name="Lcommaaccent" unicode="&#x13b;" horiz-adv-x="464" 
d="M433 0h-366v724h141v-606h225v-118zM310 -77l-83 -138h-93l48 138c19 21 47 29 73 29c27 0 50 -12 55 -29z" />
    <glyph glyph-name="lcommaaccent" unicode="&#x13c;" horiz-adv-x="262" 
d="M199 0h-136v785h136v-785zM191 -77l-83 -138h-93l48 138c19 21 47 29 73 29c27 0 50 -12 55 -29z" />
    <glyph glyph-name="Lcaron" unicode="&#x13d;" horiz-adv-x="464" 
d="M433 0h-366v724h141v-606h225v-118zM400 702l-37 -164h-76v164c13 19 34 29 57 29s44 -10 56 -29z" />
    <glyph glyph-name="lcaron" unicode="&#x13e;" horiz-adv-x="274" 
d="M199 0h-136v785h136v-785zM391 765l-37 -164h-76v164c13 19 34 29 57 29s44 -10 56 -29z" />
    <glyph glyph-name="Ldot" unicode="&#x13f;" horiz-adv-x="464" 
d="M433 0h-366v724h141v-606h225v-118zM425 426c0 -38 -30 -71 -69 -71s-71 33 -71 71s32 69 71 69s69 -31 69 -69z" />
    <glyph glyph-name="ldot" unicode="&#x140;" horiz-adv-x="398" 
d="M199 0h-136v785h136v-785zM398 426c0 -38 -30 -71 -69 -71s-71 33 -71 71s32 69 71 69s69 -31 69 -69z" />
    <glyph glyph-name="Lslash" unicode="&#x141;" horiz-adv-x="479" 
d="M448 0h-366v305l-65 -37v101l65 37v318h141v-241l118 66v-101l-118 -66v-264h225v-118z" />
    <glyph glyph-name="lslash" unicode="&#x142;" horiz-adv-x="277" 
d="M280 451l-73 -41v-410h-137v336l-69 -39v98l69 39v351h137v-277l73 41v-98z" />
    <glyph glyph-name="Nacute" unicode="&#x143;" horiz-adv-x="672" 
d="M605 0h-116l-259 429c-24 40 -43 85 -43 85h-2s2 -49 2 -94v-420h-120v724h121l253 -418c23 -39 43 -85 43 -85h2s-2 51 -2 97v406h121v-724zM474 918l-107 -132h-94l70 132c20 21 50 30 76 30s49 -11 55 -30z" />
    <glyph glyph-name="nacute" unicode="&#x144;" horiz-adv-x="571" 
d="M510 0h-137v355c0 54 -33 87 -95 87c-32 0 -63 -6 -81 -13v-429h-136v512c57 23 126 39 215 39c160 0 234 -66 234 -182v-369zM414 733l-107 -132h-94l70 132c20 21 50 30 76 30s49 -11 55 -30z" />
    <glyph glyph-name="Ncommaaccent" unicode="&#x145;" horiz-adv-x="672" 
d="M605 0h-116l-259 429c-24 40 -43 85 -43 85h-2s2 -49 2 -94v-420h-120v724h121l253 -418c23 -39 43 -85 43 -85h2s-2 51 -2 97v406h121v-724zM402 -77l-83 -138h-93l48 138c19 21 47 29 73 29c27 0 50 -12 55 -29z" />
    <glyph glyph-name="ncommaaccent" unicode="&#x146;" horiz-adv-x="571" 
d="M510 0h-137v355c0 54 -33 87 -95 87c-32 0 -63 -6 -81 -13v-429h-136v512c57 23 126 39 215 39c160 0 234 -66 234 -182v-369zM351 -77l-83 -138h-93l48 138c19 21 47 29 73 29c27 0 50 -12 55 -29z" />
    <glyph glyph-name="Ncaron" unicode="&#x147;" horiz-adv-x="672" 
d="M605 0h-116l-259 429c-24 40 -43 85 -43 85h-2s2 -49 2 -94v-420h-120v724h121l253 -418c23 -39 43 -85 43 -85h2s-2 51 -2 97v406h121v-724zM483 903l-104 -105c-12 -13 -27 -20 -44 -20s-33 7 -45 20l-104 105l53 44l96 -82l95 82z" />
    <glyph glyph-name="ncaron" unicode="&#x148;" horiz-adv-x="571" 
d="M510 0h-137v355c0 54 -33 87 -95 87c-32 0 -63 -6 -81 -13v-429h-136v512c57 23 126 39 215 39c160 0 234 -66 234 -182v-369zM422 718l-104 -105c-12 -13 -27 -20 -44 -20s-33 7 -45 20l-104 105l53 44l96 -82l95 82z" />
    <glyph glyph-name="napostrophe" unicode="&#x149;" horiz-adv-x="685" 
d="M624 0h-137v355c0 54 -33 87 -95 87c-32 0 -63 -6 -81 -13v-429h-136v512c57 23 126 39 215 39c160 0 234 -66 234 -182v-369zM212 748l-128 -255h-81l85 255c16 24 39 42 72 42s50 -21 52 -42z" />
    <glyph glyph-name="Eng" unicode="&#x14a;" horiz-adv-x="672" 
d="M605 53c0 -157 -85 -251 -209 -273l-33 103c63 15 112 59 119 129l-252 417c-24 40 -43 85 -43 85h-2s2 -49 2 -94v-420h-120v724h121l253 -418c23 -39 43 -85 43 -85h2s-2 51 -2 97v406h121v-671z" />
    <glyph glyph-name="eng" unicode="&#x14b;" horiz-adv-x="571" 
d="M510 30c0 -141 -82 -227 -199 -252l-50 99c58 18 112 64 112 153v325c0 54 -33 87 -95 87c-32 0 -63 -6 -81 -13v-429h-136v512c57 23 126 39 215 39c160 0 234 -66 234 -182v-339z" />
    <glyph glyph-name="Omacron" unicode="&#x14c;" horiz-adv-x="652" 
d="M606 362c0 -211 -90 -374 -280 -374s-280 163 -280 374s90 374 280 374s280 -163 280 -374zM465 362c0 149 -47 249 -139 249s-139 -100 -139 -249s47 -249 139 -249s139 100 139 249zM467 810h-283v82h283v-82z" />
    <glyph glyph-name="omacron" unicode="&#x14d;" horiz-adv-x="572" 
d="M530 270c0 -161 -87 -282 -244 -282s-244 121 -244 282s87 281 244 281s244 -120 244 -281zM394 271c0 108 -36 173 -108 173s-108 -65 -108 -173s36 -172 108 -172s108 64 108 172zM429 624h-283v82h283v-82z" />
    <glyph glyph-name="Obreve" unicode="&#x14e;" horiz-adv-x="652" 
d="M606 362c0 -211 -90 -374 -280 -374s-280 163 -280 374s90 374 280 374s280 -163 280 -374zM465 362c0 149 -47 249 -139 249s-139 -100 -139 -249s47 -249 139 -249s139 100 139 249zM475 931c-5 -92 -55 -152 -149 -152s-145 60 -150 152l77 12c6 -54 27 -83 73 -83
s66 29 72 83z" />
    <glyph glyph-name="obreve" unicode="&#x14f;" horiz-adv-x="572" 
d="M530 270c0 -161 -87 -282 -244 -282s-244 121 -244 282s87 281 244 281s244 -120 244 -281zM394 271c0 108 -36 173 -108 173s-108 -65 -108 -173s36 -172 108 -172s108 64 108 172zM436 746c-5 -92 -55 -152 -149 -152s-145 60 -150 152l77 12c6 -54 27 -83 73 -83
s66 29 72 83z" />
    <glyph glyph-name="Ohungarumlaut" unicode="&#x150;" horiz-adv-x="652" 
d="M606 362c0 -211 -90 -374 -280 -374s-280 163 -280 374s90 374 280 374s280 -163 280 -374zM465 362c0 149 -47 249 -139 249s-139 -100 -139 -249s47 -249 139 -249s139 100 139 249zM534 918l-105 -132h-75l75 132c19 20 39 30 63 30s37 -13 42 -30zM371 918l-104 -132
h-76l75 132c19 20 39 30 63 30s37 -13 42 -30z" />
    <glyph glyph-name="ohungarumlaut" unicode="&#x151;" horiz-adv-x="572" 
d="M530 270c0 -161 -87 -282 -244 -282s-244 121 -244 282s87 281 244 281s244 -120 244 -281zM394 271c0 108 -36 173 -108 173s-108 -65 -108 -173s36 -172 108 -172s108 64 108 172zM496 733l-105 -132h-75l75 132c19 20 39 30 63 30s37 -13 42 -30zM333 733l-104 -132
h-76l75 132c19 20 39 30 63 30s37 -13 42 -30z" />
    <glyph glyph-name="OE" unicode="&#x152;" horiz-adv-x="858" 
d="M813 0h-351c-29 -7 -71 -12 -105 -12c-202 0 -311 149 -311 374s109 374 311 374c35 0 73 -4 105 -12h351v-118h-244v-181h220v-116h-220v-191h244v-118zM430 115v494c-24 6 -47 8 -69 8c-113 0 -174 -93 -174 -255s61 -255 174 -255c22 0 45 2 69 8z" />
    <glyph glyph-name="oe" unicode="&#x153;" horiz-adv-x="910" 
d="M868 295c0 -11 0 -23 -1 -35l-344 -47c13 -79 70 -118 149 -118c52 0 109 14 147 34l39 -102c-43 -22 -114 -39 -194 -39c-94 0 -162 35 -202 100c-34 -61 -93 -100 -176 -100c-157 0 -244 121 -244 282s87 281 244 281c82 0 137 -37 171 -95c36 59 95 95 179 95
c152 0 232 -101 232 -256zM735 330c0 81 -41 122 -104 122c-71 0 -118 -54 -119 -153zM394 271c0 108 -36 173 -108 173s-108 -65 -108 -173s36 -172 108 -172s108 64 108 172z" />
    <glyph glyph-name="Racute" unicode="&#x154;" horiz-adv-x="620" 
d="M597 0h-149l-91 222c-18 44 -48 72 -98 72h-53v-294h-139v697c57 25 137 39 217 39c181 0 273 -83 273 -218c0 -104 -66 -159 -141 -180v-2c38 -21 64 -59 84 -106zM419 510c0 75 -41 119 -132 119c-30 0 -62 -5 -81 -12v-223h75c89 0 138 36 138 116zM437 918l-107 -132
h-94l70 132c20 21 50 30 76 30s49 -11 55 -30z" />
    <glyph glyph-name="racute" unicode="&#x155;" horiz-adv-x="374" 
d="M351 546l-25 -113c-17 5 -39 8 -61 8c-25 0 -51 -4 -68 -11v-430h-136v512c56 22 133 39 220 39c28 0 52 -2 70 -5zM330 733l-107 -132h-94l70 132c20 21 50 30 76 30s49 -11 55 -30z" />
    <glyph glyph-name="Rcommaaccent" unicode="&#x156;" horiz-adv-x="620" 
d="M383 -77l-83 -138h-93l48 138c19 21 47 29 73 29c27 0 50 -12 55 -29zM597 0h-149l-91 222c-18 44 -48 72 -98 72h-53v-294h-139v697c57 25 137 39 217 39c181 0 273 -83 273 -218c0 -104 -66 -159 -141 -180v-2c38 -21 64 -59 84 -106zM419 510c0 75 -41 119 -132 119
c-30 0 -62 -5 -81 -12v-223h75c89 0 138 36 138 116z" />
    <glyph glyph-name="rcommaaccent" unicode="&#x157;" horiz-adv-x="374" 
d="M192 -77l-83 -138h-93l48 138c19 21 47 29 73 29c27 0 50 -12 55 -29zM351 546l-25 -113c-17 5 -39 8 -61 8c-25 0 -51 -4 -68 -11v-430h-136v512c56 22 133 39 220 39c28 0 52 -2 70 -5z" />
    <glyph glyph-name="Rcaron" unicode="&#x158;" horiz-adv-x="620" 
d="M597 0h-149l-91 222c-18 44 -48 72 -98 72h-53v-294h-139v697c57 25 137 39 217 39c181 0 273 -83 273 -218c0 -104 -66 -159 -141 -180v-2c38 -21 64 -59 84 -106zM419 510c0 75 -41 119 -132 119c-30 0 -62 -5 -81 -12v-223h75c89 0 138 36 138 116zM440 903l-104 -105
c-12 -13 -27 -20 -44 -20s-33 7 -45 20l-104 105l53 44l96 -82l95 82z" />
    <glyph glyph-name="rcaron" unicode="&#x159;" horiz-adv-x="374" 
d="M351 546l-25 -113c-17 5 -39 8 -61 8c-25 0 -51 -4 -68 -11v-430h-136v512c56 22 133 39 220 39c28 0 52 -2 70 -5zM349 718l-104 -105c-12 -13 -27 -20 -44 -20s-33 7 -45 20l-104 105l53 44l96 -82l95 82z" />
    <glyph glyph-name="Sacute" unicode="&#x15a;" horiz-adv-x="513" 
d="M470 210c0 -132 -91 -222 -247 -222c-71 0 -145 17 -186 39l46 122c32 -19 84 -34 133 -34c67 0 110 35 110 88c0 51 -46 77 -99 101c-81 37 -182 91 -182 218c0 129 90 214 235 214c71 0 132 -17 169 -39l-44 -114c-26 15 -73 32 -119 32c-61 0 -100 -34 -100 -85
c0 -50 49 -77 102 -103c79 -39 182 -89 182 -217zM400 918l-107 -132h-94l70 132c20 21 50 30 76 30s49 -11 55 -30z" />
    <glyph glyph-name="sacute" unicode="&#x15b;" horiz-adv-x="463" 
d="M424 155c0 -101 -75 -167 -219 -167c-67 0 -134 18 -174 39l44 104c27 -17 87 -35 126 -35c49 0 81 23 81 59c0 40 -35 57 -83 74c-68 25 -154 57 -154 163c0 95 72 159 198 159c69 0 125 -17 166 -39l-42 -93c-23 14 -71 31 -107 31c-48 0 -76 -24 -76 -56
c0 -41 35 -57 82 -74c71 -26 158 -56 158 -165zM372 733l-107 -132h-94l70 132c20 21 50 30 76 30s49 -11 55 -30z" />
    <glyph glyph-name="Scircumflex" unicode="&#x15c;" horiz-adv-x="513" 
d="M470 210c0 -132 -91 -222 -247 -222c-71 0 -145 17 -186 39l46 122c32 -19 84 -34 133 -34c67 0 110 35 110 88c0 51 -46 77 -99 101c-81 37 -182 91 -182 218c0 129 90 214 235 214c71 0 132 -17 169 -39l-44 -114c-26 15 -73 32 -119 32c-61 0 -100 -34 -100 -85
c0 -50 49 -77 102 -103c79 -39 182 -89 182 -217zM405 821l-53 -45l-95 83l-96 -83l-53 45l104 104c12 13 28 20 45 20s32 -7 44 -20z" />
    <glyph glyph-name="scircumflex" unicode="&#x15d;" horiz-adv-x="463" 
d="M424 155c0 -101 -75 -167 -219 -167c-67 0 -134 18 -174 39l44 104c27 -17 87 -35 126 -35c49 0 81 23 81 59c0 40 -35 57 -83 74c-68 25 -154 57 -154 163c0 95 72 159 198 159c69 0 125 -17 166 -39l-42 -93c-23 14 -71 31 -107 31c-48 0 -76 -24 -76 -56
c0 -41 35 -57 82 -74c71 -26 158 -56 158 -165zM382 636l-53 -45l-95 83l-96 -83l-53 45l104 104c12 13 28 20 45 20s32 -7 44 -20z" />
    <glyph glyph-name="Scedilla" unicode="&#x15e;" horiz-adv-x="513" 
d="M470 210c0 -132 -91 -222 -247 -222c-71 0 -145 17 -186 39l46 122c32 -19 84 -34 133 -34c67 0 110 35 110 88c0 51 -46 77 -99 101c-81 37 -182 91 -182 218c0 129 90 214 235 214c71 0 132 -17 169 -39l-44 -114c-26 15 -73 32 -119 32c-61 0 -100 -34 -100 -85
c0 -50 49 -77 102 -103c79 -39 182 -89 182 -217zM358 -126c0 -59 -69 -89 -184 -89c-26 0 -55 2 -86 5l29 53c19 -2 35 -3 51 -3c56 0 91 13 91 34c0 19 -18 26 -57 26c-16 0 -35 -1 -57 -3l26 48c22 2 41 3 58 3c96 0 129 -30 129 -74z" />
    <glyph glyph-name="scedilla" unicode="&#x15f;" horiz-adv-x="463" 
d="M424 155c0 -101 -75 -167 -219 -167c-67 0 -134 18 -174 39l44 104c27 -17 87 -35 126 -35c49 0 81 23 81 59c0 40 -35 57 -83 74c-68 25 -154 57 -154 163c0 95 72 159 198 159c69 0 125 -17 166 -39l-42 -93c-23 14 -71 31 -107 31c-48 0 -76 -24 -76 -56
c0 -41 35 -57 82 -74c71 -26 158 -56 158 -165zM336 -126c0 -59 -69 -89 -184 -89c-26 0 -55 2 -86 5l29 53c19 -2 35 -3 51 -3c56 0 91 13 91 34c0 19 -18 26 -57 26c-16 0 -35 -1 -57 -3l26 48c22 2 41 3 58 3c96 0 129 -30 129 -74z" />
    <glyph glyph-name="Scaron" unicode="&#x160;" horiz-adv-x="513" 
d="M470 210c0 -132 -91 -222 -247 -222c-71 0 -145 17 -186 39l46 122c32 -19 84 -34 133 -34c67 0 110 35 110 88c0 51 -46 77 -99 101c-81 37 -182 91 -182 218c0 129 90 214 235 214c71 0 132 -17 169 -39l-44 -114c-26 15 -73 32 -119 32c-61 0 -100 -34 -100 -85
c0 -50 49 -77 102 -103c79 -39 182 -89 182 -217zM406 903l-104 -105c-12 -13 -27 -20 -44 -20s-33 7 -45 20l-104 105l53 44l96 -82l95 82z" />
    <glyph glyph-name="scaron" unicode="&#x161;" horiz-adv-x="463" 
d="M424 155c0 -101 -75 -167 -219 -167c-67 0 -134 18 -174 39l44 104c27 -17 87 -35 126 -35c49 0 81 23 81 59c0 40 -35 57 -83 74c-68 25 -154 57 -154 163c0 95 72 159 198 159c69 0 125 -17 166 -39l-42 -93c-23 14 -71 31 -107 31c-48 0 -76 -24 -76 -56
c0 -41 35 -57 82 -74c71 -26 158 -56 158 -165zM384 718l-104 -105c-12 -13 -27 -20 -44 -20s-33 7 -45 20l-104 105l53 44l96 -82l95 82z" />
    <glyph glyph-name="Tcommaaccent" unicode="&#x162;" horiz-adv-x="508" 
d="M477 606h-152v-606h-141v606h-153v118h446v-118zM317 -77l-83 -138h-93l48 138c19 21 47 29 73 29c27 0 50 -12 55 -29z" />
    <glyph glyph-name="tcommaaccent" unicode="&#x163;" 
d="M332 7c-16 -8 -49 -15 -82 -15c-104 0 -153 57 -153 170v275h-69v102h69v120l134 39v-159h101v-102h-101v-266c0 -44 27 -59 62 -59c14 0 30 4 39 8v-113zM270 -77l-83 -138h-93l48 138c19 21 47 29 73 29c27 0 50 -12 55 -29z" />
    <glyph glyph-name="Tcaron" unicode="&#x164;" horiz-adv-x="508" 
d="M477 606h-152v-606h-141v606h-153v118h446v-118zM403 903l-104 -105c-12 -13 -27 -20 -44 -20s-33 7 -45 20l-104 105l53 44l96 -82l95 82z" />
    <glyph glyph-name="tcaron" unicode="&#x165;" 
d="M332 7c-16 -8 -49 -15 -82 -15c-104 0 -153 57 -153 170v275h-69v102h69v120l134 39v-159h101v-102h-101v-266c0 -44 27 -59 62 -59c14 0 30 4 39 8v-113zM423 765l-37 -164h-76v164c13 19 34 29 57 29s44 -10 56 -29z" />
    <glyph glyph-name="Tbar" unicode="&#x166;" horiz-adv-x="508" 
d="M477 606h-152v-178h126v-94h-126v-334h-141v334h-126v94h126v178h-153v118h446v-118z" />
    <glyph glyph-name="tbar" unicode="&#x167;" 
d="M332 7c-16 -8 -49 -15 -82 -15c-104 0 -153 57 -153 170v106h-69v76h69v97h-69v98h69v120l134 39v-159h101v-98h-101v-97h101v-76h-101v-97c0 -44 27 -59 62 -59c14 0 30 4 39 8v-113z" />
    <glyph glyph-name="Utilde" unicode="&#x168;" horiz-adv-x="628" 
d="M561 214c0 -143 -106 -224 -247 -224s-247 81 -247 224v510h141v-511c0 -64 47 -102 106 -102s106 38 106 102v511h141v-510zM463 892c-6 -58 -39 -101 -90 -101c-52 0 -69 45 -105 45c-25 0 -41 -20 -46 -50l-61 36c6 58 38 101 89 101c52 0 69 -45 105 -45
c25 0 41 19 46 50z" />
    <glyph glyph-name="utilde" unicode="&#x169;" horiz-adv-x="564" 
d="M503 27c-47 -23 -131 -39 -215 -39c-149 0 -227 60 -227 200v351h136v-354c0 -58 31 -85 91 -85c35 0 64 6 79 12v427h136v-512zM431 707c-6 -58 -39 -101 -90 -101c-52 0 -69 45 -105 45c-25 0 -41 -20 -46 -50l-61 36c6 58 38 101 89 101c52 0 69 -45 105 -45
c25 0 41 19 46 50z" />
    <glyph glyph-name="Umacron" unicode="&#x16a;" horiz-adv-x="628" 
d="M561 214c0 -143 -106 -224 -247 -224s-247 81 -247 224v510h141v-511c0 -64 47 -102 106 -102s106 38 106 102v511h141v-510zM456 810h-283v82h283v-82z" />
    <glyph glyph-name="umacron" unicode="&#x16b;" horiz-adv-x="564" 
d="M503 27c-47 -23 -131 -39 -215 -39c-149 0 -227 60 -227 200v351h136v-354c0 -58 31 -85 91 -85c35 0 64 6 79 12v427h136v-512zM423 624h-283v82h283v-82z" />
    <glyph glyph-name="Ubreve" unicode="&#x16c;" horiz-adv-x="628" 
d="M561 214c0 -143 -106 -224 -247 -224s-247 81 -247 224v510h141v-511c0 -64 47 -102 106 -102s106 38 106 102v511h141v-510zM464 931c-5 -92 -55 -152 -149 -152s-145 60 -150 152l77 12c6 -54 27 -83 73 -83s66 29 72 83z" />
    <glyph glyph-name="ubreve" unicode="&#x16d;" horiz-adv-x="564" 
d="M503 27c-47 -23 -131 -39 -215 -39c-149 0 -227 60 -227 200v351h136v-354c0 -58 31 -85 91 -85c35 0 64 6 79 12v427h136v-512zM432 746c-5 -92 -55 -152 -149 -152s-145 60 -150 152l77 12c6 -54 27 -83 73 -83s66 29 72 83z" />
    <glyph glyph-name="Uring" unicode="&#x16e;" horiz-adv-x="628" 
d="M561 214c0 -143 -106 -224 -247 -224s-247 81 -247 224v510h141v-511c0 -64 47 -102 106 -102s106 38 106 102v511h141v-510zM418 872c0 -55 -45 -98 -104 -98s-105 43 -105 98s46 97 105 97s104 -42 104 -97zM359 872c0 25 -20 44 -45 44s-46 -19 -46 -44s21 -45 46 -45
s45 20 45 45z" />
    <glyph glyph-name="uring" unicode="&#x16f;" horiz-adv-x="564" 
d="M503 27c-47 -23 -131 -39 -215 -39c-149 0 -227 60 -227 200v351h136v-354c0 -58 31 -85 91 -85c35 0 64 6 79 12v427h136v-512zM386 689c0 -55 -45 -98 -104 -98s-105 43 -105 98s46 97 105 97s104 -42 104 -97zM327 689c0 25 -20 44 -45 44s-46 -19 -46 -44
s21 -45 46 -45s45 20 45 45z" />
    <glyph glyph-name="Uhungarumlaut" unicode="&#x170;" horiz-adv-x="628" 
d="M561 214c0 -143 -106 -224 -247 -224s-247 81 -247 224v510h141v-511c0 -64 47 -102 106 -102s106 38 106 102v511h141v-510zM522 918l-105 -132h-75l75 132c19 20 39 30 63 30s37 -13 42 -30zM359 918l-104 -132h-76l75 132c19 20 39 30 63 30s37 -13 42 -30z" />
    <glyph glyph-name="uhungarumlaut" unicode="&#x171;" horiz-adv-x="564" 
d="M503 27c-47 -23 -131 -39 -215 -39c-149 0 -227 60 -227 200v351h136v-354c0 -58 31 -85 91 -85c35 0 64 6 79 12v427h136v-512zM493 733l-105 -132h-75l75 132c19 20 39 30 63 30s37 -13 42 -30zM330 733l-104 -132h-76l75 132c19 20 39 30 63 30s37 -13 42 -30z" />
    <glyph glyph-name="Uogonek" unicode="&#x172;" horiz-adv-x="628" 
d="M561 214c0 -109 -62 -182 -154 -210c-56 -31 -81 -69 -81 -97c0 -23 17 -39 45 -39c18 0 37 4 55 12l24 -60c-27 -16 -67 -28 -104 -28c-70 0 -117 37 -117 91c0 35 23 75 70 108c-133 5 -232 85 -232 223v510h141v-511c0 -64 47 -102 106 -102s106 38 106 102v511h141
v-510z" />
    <glyph glyph-name="uogonek" unicode="&#x173;" horiz-adv-x="564" 
d="M503 27c-10 -5 -22 -10 -36 -14c-68 -33 -98 -76 -98 -106c0 -23 17 -39 45 -39c18 0 38 4 56 12l23 -60c-27 -16 -66 -28 -103 -28c-70 0 -117 37 -117 91c0 35 23 74 70 107c-18 -2 -37 -2 -55 -2c-149 0 -227 60 -227 200v351h136v-354c0 -58 31 -85 91 -85
c35 0 64 6 79 12v427h136v-512z" />
    <glyph glyph-name="Wcircumflex" unicode="&#x174;" horiz-adv-x="913" 
d="M890 724l-179 -724h-137l-99 420c-11 48 -18 103 -18 103h-2s-7 -55 -18 -103l-98 -420h-137l-179 724h142l94 -455c9 -43 16 -96 16 -96h2s6 53 16 96l105 455h117l105 -455c10 -43 16 -96 16 -96h2s7 53 16 96l94 455h142zM606 821l-53 -45l-95 83l-96 -83l-53 45
l104 104c12 13 28 20 45 20s32 -7 44 -20z" />
    <glyph glyph-name="wcircumflex" unicode="&#x175;" horiz-adv-x="843" 
d="M819 539l-157 -539h-141l-83 307c-10 37 -15 81 -15 81h-2s-6 -44 -16 -81l-83 -307h-141l-157 539h137l77 -330c9 -40 14 -88 14 -88h2s8 48 18 88l87 330h125l87 -330c10 -40 18 -88 18 -88h2s5 48 14 88l77 330h137zM570 636l-53 -45l-95 83l-96 -83l-53 45l104 104
c12 13 28 20 45 20s32 -7 44 -20z" />
    <glyph glyph-name="Ycircumflex" unicode="&#x176;" horiz-adv-x="585" 
d="M578 724l-215 -440v-284h-141v284l-215 440h152l132 -298h2l133 298h152zM441 821l-53 -45l-95 83l-96 -83l-53 45l104 104c12 13 28 20 45 20s32 -7 44 -20z" />
    <glyph glyph-name="ycircumflex" unicode="&#x177;" horiz-adv-x="577" 
d="M562 539l-282 -754h-143l81 215l-203 539h154l101 -339c12 -40 18 -85 18 -85h2s6 45 18 85l101 339h153zM437 636l-53 -45l-95 83l-96 -83l-53 45l104 104c12 13 28 20 45 20s32 -7 44 -20z" />
    <glyph glyph-name="Ydieresis" unicode="&#x178;" horiz-adv-x="585" 
d="M578 724l-215 -440v-284h-141v284l-215 440h152l132 -298h2l133 298h152zM258 856c0 -34 -30 -63 -67 -63s-67 29 -67 63s30 62 67 62s67 -28 67 -62zM461 856c0 -34 -30 -63 -67 -63s-67 29 -67 63s30 62 67 62s67 -28 67 -62z" />
    <glyph glyph-name="Zacute" unicode="&#x179;" horiz-adv-x="519" 
d="M478 0h-457l262 606h-238v118h431l-261 -606h263v-118zM395 918l-107 -132h-94l70 132c20 21 50 30 76 30s49 -11 55 -30z" />
    <glyph glyph-name="zacute" unicode="&#x17a;" horiz-adv-x="474" 
d="M436 0h-411l217 432h-199v107h389l-216 -432h220v-107zM374 733l-107 -132h-94l70 132c20 21 50 30 76 30s49 -11 55 -30z" />
    <glyph glyph-name="Zdotaccent" unicode="&#x17b;" horiz-adv-x="519" 
d="M478 0h-457l262 606h-238v118h431l-261 -606h263v-118zM335 866c0 -39 -33 -72 -75 -72s-76 33 -76 72s34 71 76 71s75 -32 75 -71z" />
    <glyph glyph-name="zdotaccent" unicode="&#x17c;" horiz-adv-x="474" 
d="M436 0h-411l217 432h-199v107h389l-216 -432h220v-107zM312 681c0 -39 -33 -72 -75 -72s-76 33 -76 72s34 71 76 71s75 -32 75 -71z" />
    <glyph glyph-name="Zcaron" unicode="&#x17d;" horiz-adv-x="519" 
d="M478 0h-457l262 606h-238v118h431l-261 -606h263v-118zM400 903l-104 -105c-12 -13 -27 -20 -44 -20s-33 7 -45 20l-104 105l53 44l96 -82l95 82z" />
    <glyph glyph-name="zcaron" unicode="&#x17e;" horiz-adv-x="474" 
d="M436 0h-411l217 432h-199v107h389l-216 -432h220v-107zM378 718l-104 -105c-12 -13 -27 -20 -44 -20s-33 7 -45 20l-104 105l53 44l96 -82l95 82z" />
    <glyph glyph-name="longs" unicode="&#x17f;" horiz-adv-x="284" 
d="M331 678c-9 2 -20 3 -30 3c-69 0 -102 -32 -102 -109v-787h-136v787c0 149 79 217 214 217c18 0 40 -2 54 -5v-106z" />
    <glyph glyph-name="florin" unicode="&#x192;" horiz-adv-x="578" 
d="M548 711l-41 -107c-10 6 -27 11 -44 11c-48 0 -72 -25 -79 -81l-15 -115h114v-111h-128l-45 -345c-16 -122 -84 -187 -202 -187c-35 0 -75 9 -102 22l41 113c10 -6 27 -10 44 -10c48 0 73 25 80 81l42 326h-102v111h117l16 127c16 122 84 187 202 187c35 0 75 -9 102 -22
z" />
    <glyph glyph-name="AEacute" unicode="&#x1fc;" horiz-adv-x="874" 
d="M838 0h-344l-30 169h-250l-75 -169h-150l335 724h455v-118h-266l39 -181h217v-116h-194l41 -191h222v-118zM449 273l-44 247c-7 41 -9 88 -9 88h-2s-12 -47 -30 -88l-110 -247h195zM659 918l-107 -132h-94l70 132c20 21 50 30 76 30s49 -11 55 -30z" />
    <glyph glyph-name="aeacute" unicode="&#x1fd;" horiz-adv-x="864" 
d="M822 295c0 -11 0 -23 -1 -35l-344 -47c13 -79 70 -118 149 -118c52 0 109 14 147 34l39 -102c-43 -22 -114 -39 -194 -39c-95 0 -165 39 -193 86c-21 -46 -84 -86 -168 -86c-143 0 -221 68 -221 174c0 147 153 176 316 185v28c0 56 -39 77 -101 77
c-51 0 -113 -16 -151 -32l-34 92c45 19 121 39 194 39c93 0 144 -26 166 -79c36 50 88 79 168 79c147 0 228 -101 228 -256zM689 330c0 81 -41 122 -104 122c-71 0 -118 -54 -119 -153zM352 169v91c-100 -5 -188 -14 -188 -95c0 -49 34 -80 98 -80c55 0 90 36 90 84z
M567 733l-107 -132h-94l70 132c20 21 50 30 76 30s49 -11 55 -30z" />
    <glyph glyph-name="Oslashacute" unicode="&#x1fe;" horiz-adv-x="652" 
d="M606 362c0 -211 -90 -374 -280 -374c-63 0 -115 19 -157 53l-59 -93l-63 41l69 109c-47 68 -70 161 -70 264c0 211 90 374 280 374c64 0 118 -20 160 -55l57 91l63 -41l-68 -108c45 -67 68 -159 68 -261zM420 579c-24 29 -55 44 -94 44c-101 0 -151 -106 -151 -261
c0 -54 6 -102 18 -142zM477 362c0 52 -6 99 -17 138l-226 -357c24 -27 54 -42 92 -42c101 0 151 106 151 261zM464 918l-107 -132h-94l70 132c20 21 50 30 76 30s49 -11 55 -30z" />
    <glyph glyph-name="oslashacute" unicode="&#x1ff;" horiz-adv-x="572" 
d="M530 270c0 -161 -87 -282 -244 -282c-51 0 -96 14 -132 38l-59 -84l-52 40l62 88c-41 51 -63 121 -63 200c0 161 87 281 244 281c52 0 96 -14 132 -38l59 84l52 -40l-62 -88c41 -50 63 -121 63 -199zM357 427c-18 17 -42 27 -71 27c-82 0 -122 -79 -122 -183
c0 -36 4 -69 14 -97zM407 271c0 35 -4 67 -13 94l-178 -251c18 -16 42 -26 70 -26c82 0 121 79 121 183zM414 733l-107 -132h-94l70 132c20 21 50 30 76 30s49 -11 55 -30z" />
    <glyph glyph-name="Scommaaccent" unicode="&#x218;" horiz-adv-x="513" 
d="M470 210c0 -132 -91 -222 -247 -222c-71 0 -145 17 -186 39l46 122c32 -19 84 -34 133 -34c67 0 110 35 110 88c0 51 -46 77 -99 101c-81 37 -182 91 -182 218c0 129 90 214 235 214c71 0 132 -17 169 -39l-44 -114c-26 15 -73 32 -119 32c-61 0 -100 -34 -100 -85
c0 -50 49 -77 102 -103c79 -39 182 -89 182 -217zM317 -77l-83 -138h-93l48 138c19 21 47 29 73 29c27 0 50 -12 55 -29z" />
    <glyph glyph-name="scommaaccent" unicode="&#x219;" horiz-adv-x="463" 
d="M424 155c0 -101 -75 -167 -219 -167c-67 0 -134 18 -174 39l44 104c27 -17 87 -35 126 -35c49 0 81 23 81 59c0 40 -35 57 -83 74c-68 25 -154 57 -154 163c0 95 72 159 198 159c69 0 125 -17 166 -39l-42 -93c-23 14 -71 31 -107 31c-48 0 -76 -24 -76 -56
c0 -41 35 -57 82 -74c71 -26 158 -56 158 -165zM293 -77l-83 -138h-93l48 138c19 21 47 29 73 29c27 0 50 -12 55 -29z" />
    <glyph glyph-name="uni021A" unicode="&#x21a;" horiz-adv-x="508" 
d="M477 606h-152v-606h-141v606h-153v118h446v-118zM358 -126c0 -59 -69 -89 -184 -89c-26 0 -55 2 -86 5l29 53c19 -2 35 -3 51 -3c56 0 91 13 91 34c0 19 -18 26 -57 26c-16 0 -35 -1 -57 -3l26 48c22 2 41 3 58 3c96 0 129 -30 129 -74z" />
    <glyph glyph-name="uni021B" unicode="&#x21b;" 
d="M332 7c-16 -8 -49 -15 -82 -15c-104 0 -153 57 -153 170v275h-69v102h69v120l134 39v-159h101v-102h-101v-266c0 -44 27 -59 62 -59c14 0 30 4 39 8v-113zM309 -126c0 -59 -69 -89 -184 -89c-26 0 -55 2 -86 5l29 53c19 -2 35 -3 51 -3c56 0 91 13 91 34
c0 19 -18 26 -57 26c-16 0 -35 -1 -57 -3l26 48c22 2 41 3 58 3c96 0 129 -30 129 -74z" />
    <glyph glyph-name="dotlessj" unicode="&#x237;" horiz-adv-x="262" 
d="M199 68c0 -201 -114 -272 -246 -291v113c58 18 110 67 110 178v471h136v-471z" />
    <glyph glyph-name="afii57929" unicode="&#x2bc;" horiz-adv-x="123" 
d="M212 748l-128 -255h-81l85 255c16 24 39 42 72 42s50 -21 52 -42z" />
    <glyph glyph-name="circumflex" unicode="&#x2c6;" horiz-adv-x="343" 
d="M320 636l-53 -45l-95 83l-96 -83l-53 45l104 104c12 13 28 20 45 20s32 -7 44 -20z" />
    <glyph glyph-name="caron" unicode="&#x2c7;" horiz-adv-x="343" 
d="M320 718l-104 -105c-12 -13 -27 -20 -44 -20s-33 7 -45 20l-104 105l53 44l96 -82l95 82z" />
    <glyph glyph-name="breve" unicode="&#x2d8;" horiz-adv-x="343" 
d="M321 746c-5 -92 -55 -152 -149 -152s-145 60 -150 152l77 12c6 -54 27 -83 73 -83s66 29 72 83z" />
    <glyph glyph-name="dotaccent" unicode="&#x2d9;" horiz-adv-x="343" 
d="M247 681c0 -39 -33 -72 -75 -72s-76 33 -76 72s34 71 76 71s75 -32 75 -71z" />
    <glyph glyph-name="ring" unicode="&#x2da;" horiz-adv-x="343" 
d="M276 689c0 -55 -45 -98 -104 -98s-105 43 -105 98s46 97 105 97s104 -42 104 -97zM217 689c0 25 -20 44 -45 44s-46 -19 -46 -44s21 -45 46 -45s45 20 45 45z" />
    <glyph glyph-name="ogonek" unicode="&#x2db;" horiz-adv-x="343" 
d="M292 -180c-27 -16 -66 -28 -103 -28c-70 0 -118 37 -118 91c0 44 37 95 112 132h88c-72 -33 -103 -77 -103 -108c0 -23 17 -39 45 -39c18 0 37 4 55 12z" />
    <glyph glyph-name="tilde" unicode="&#x2dc;" horiz-adv-x="343" 
d="M323 707c-6 -58 -39 -101 -90 -101c-52 0 -69 45 -105 45c-25 0 -41 -20 -46 -50l-61 36c6 58 38 101 89 101c52 0 69 -45 105 -45c25 0 41 19 46 50z" />
    <glyph glyph-name="hungarumlaut" unicode="&#x2dd;" horiz-adv-x="343" 
d="M368 733l-105 -132h-75l75 132c19 20 39 30 63 30s37 -13 42 -30zM205 733l-104 -132h-76l75 132c19 20 39 30 63 30s37 -13 42 -30z" />
    <glyph glyph-name="uni0306" unicode="&#x306;" horiz-adv-x="1" 
d="M-89 746c-5 -92 -55 -152 -149 -152s-145 60 -150 152l77 12c6 -54 27 -83 73 -83s66 29 72 83z" />
    <glyph glyph-name="uni030F" unicode="&#x30f;" horiz-adv-x="0" 
d="M-29 601h-75l-105 132c5 17 18 30 42 30s44 -10 63 -30zM-192 601h-75l-105 132c5 17 18 30 42 30s44 -10 63 -30z" />
    <glyph glyph-name="uni0311" unicode="&#x311;" horiz-adv-x="1" 
d="M-23 607l-77 -13c-6 54 -26 83 -72 83s-67 -29 -73 -83l-77 13c5 92 56 151 150 151s144 -59 149 -151z" />
    <glyph glyph-name="tonos" unicode="&#x384;" horiz-adv-x="293" 
d="M252 742l-81 -141h-80l42 141c12 18 39 30 65 30c23 0 44 -9 54 -30z" />
    <glyph glyph-name="dieresistonos" unicode="&#x385;" horiz-adv-x="298" 
d="M322 671c0 -34 -23 -63 -53 -63s-54 29 -54 63s24 62 54 62s53 -28 53 -62zM196 748l-49 -147h-61l18 147c8 21 28 31 48 31s38 -10 44 -31zM55 671c0 -34 -23 -63 -53 -63s-54 29 -54 63s24 62 54 62s53 -28 53 -62z" />
    <glyph glyph-name="Alphatonos" unicode="&#x386;" horiz-adv-x="664" 
d="M657 0h-147l-53 169h-250l-53 -169h-147l242 724h166zM429 273l-76 247c-13 41 -20 88 -20 88h-2s-7 -47 -20 -88l-76 -247h194zM150 704l-37 -171h-78v171c13 18 36 29 59 29c22 0 44 -10 56 -29z" />
    <glyph glyph-name="anoteleia" unicode="&#x387;" horiz-adv-x="284" 
d="M236 325c0 -52 -42 -94 -94 -94s-94 42 -94 94s42 94 94 94s94 -42 94 -94z" />
    <glyph glyph-name="Epsilontonos" unicode="&#x388;" horiz-adv-x="604" 
d="M559 0h-385v724h385v-118h-247v-181h223v-116h-223v-191h247v-118zM115 704l-37 -171h-78v171c13 18 36 29 59 29c22 0 44 -10 56 -29z" />
    <glyph glyph-name="Etatonos" unicode="&#x389;" horiz-adv-x="745" 
d="M678 0h-141v309h-222v-309h-141v724h141v-299h222v299h141v-724zM115 704l-37 -171h-78v171c13 18 36 29 59 29c22 0 44 -10 56 -29z" />
    <glyph glyph-name="Iotatonos" unicode="&#x38a;" horiz-adv-x="382" 
d="M315 0h-141v724h141v-724zM115 704l-37 -171h-78v171c13 18 36 29 59 29c22 0 44 -10 56 -29z" />
    <glyph glyph-name="Omicrontonos" unicode="&#x38c;" horiz-adv-x="721" 
d="M675 362c0 -211 -90 -374 -280 -374s-280 163 -280 374s90 374 280 374s280 -163 280 -374zM534 362c0 149 -47 249 -139 249s-139 -100 -139 -249s47 -249 139 -249s139 100 139 249zM115 704l-37 -171h-78v171c13 18 36 29 59 29c22 0 44 -10 56 -29z" />
    <glyph glyph-name="Upsilontonos" unicode="&#x38e;" horiz-adv-x="736" 
d="M713 602c-131 -57 -210 -191 -210 -377v-225h-141v225c0 186 -79 320 -210 377l23 134c157 -56 241 -182 257 -303h2c16 121 100 247 257 303zM115 704l-37 -171h-78v171c13 18 36 29 59 29c22 0 44 -10 56 -29z" />
    <glyph glyph-name="Omegatonos" unicode="&#x38f;" horiz-adv-x="739" 
d="M115 704l-37 -171h-78v171c13 18 36 29 59 29c22 0 44 -10 56 -29zM703 0h-251v100c69 84 100 197 100 299c0 115 -46 212 -145 212s-144 -97 -144 -212c0 -102 31 -215 100 -299v-100h-252v109h126c-78 91 -116 201 -116 311c0 166 92 316 286 316s286 -150 286 -316
c0 -110 -37 -220 -115 -311h125v-109z" />
    <glyph glyph-name="iotadieresistonos" unicode="&#x390;" horiz-adv-x="281" 
d="M251 -12c-128 3 -188 60 -188 177v374h137v-374c0 -35 15 -55 51 -60v-117zM324 671c0 -34 -23 -63 -53 -63s-54 29 -54 63s24 62 54 62s53 -28 53 -62zM198 748l-49 -147h-61l18 147c8 21 28 31 48 31s38 -10 44 -31zM57 671c0 -34 -23 -63 -53 -63s-54 29 -54 63
s24 62 54 62s53 -28 53 -62z" />
    <glyph glyph-name="Alpha" unicode="&#x391;" horiz-adv-x="664" 
d="M657 0h-147l-53 169h-250l-53 -169h-147l242 724h166zM429 273l-76 247c-13 41 -20 88 -20 88h-2s-7 -47 -20 -88l-76 -247h194z" />
    <glyph glyph-name="Beta" unicode="&#x392;" horiz-adv-x="616" 
d="M574 197c0 -130 -98 -209 -287 -209c-82 0 -170 17 -220 39v670c54 23 135 39 218 39c184 0 270 -83 270 -198c0 -83 -55 -144 -113 -160v-2c58 -19 132 -76 132 -179zM421 525c0 65 -43 104 -136 104c-32 0 -65 -5 -84 -12v-199h89c49 0 75 7 96 24s35 47 35 83z
M435 206c0 40 -16 71 -45 89c-24 15 -49 23 -98 23h-91v-211c20 -7 55 -12 85 -12c99 0 149 36 149 111z" />
    <glyph glyph-name="Gamma" unicode="&#x393;" horiz-adv-x="478" 
d="M448 606h-241v-606h-139v724h380v-118z" />
    <glyph glyph-name="Delta" unicode="&#x394;" horiz-adv-x="664" 
d="M657 0h-650l242 724h166zM481 108l-129 412c-13 41 -19 86 -19 86h-2s-6 -45 -19 -86l-129 -412h298z" />
    <glyph glyph-name="Epsilon" unicode="&#x395;" horiz-adv-x="497" 
d="M452 0h-385v724h385v-118h-247v-181h223v-116h-223v-191h247v-118z" />
    <glyph glyph-name="Zeta" unicode="&#x396;" horiz-adv-x="519" 
d="M478 0h-457l262 606h-238v118h431l-261 -606h263v-118z" />
    <glyph glyph-name="Eta" unicode="&#x397;" horiz-adv-x="638" 
d="M571 0h-141v309h-222v-309h-141v724h141v-299h222v299h141v-724z" />
    <glyph glyph-name="Theta" unicode="&#x398;" horiz-adv-x="707" 
d="M661 362c0 -205 -105 -374 -308 -374s-307 169 -307 374s104 374 307 374s308 -169 308 -374zM528 362c0 145 -58 257 -175 257s-174 -112 -174 -257s57 -257 174 -257s175 112 175 257zM467 309h-226v116h226v-116z" />
    <glyph glyph-name="Iota" unicode="&#x399;" horiz-adv-x="275" 
d="M208 0h-141v724h141v-724z" />
    <glyph glyph-name="Kappa" unicode="&#x39a;" horiz-adv-x="610" 
d="M601 0h-160l-231 360h-2v-360h-141v724h141v-328h2l227 328h159l-243 -346z" />
    <glyph glyph-name="Lambda" unicode="&#x39b;" horiz-adv-x="664" 
d="M657 0h-154l-151 492c-13 44 -19 91 -19 91h-2s-6 -47 -19 -91l-151 -492h-154l242 724h166z" />
    <glyph glyph-name="Mu" unicode="&#x39c;" horiz-adv-x="871" 
d="M833 0h-131l-51 461c-5 45 -7 98 -7 98h-2s-10 -52 -24 -98l-137 -461h-90l-138 461c-14 46 -24 98 -24 98h-2s-2 -53 -7 -98l-51 -461h-131l90 724h160l126 -423c12 -42 21 -93 21 -93h2s9 51 21 93l125 423h160z" />
    <glyph glyph-name="Nu" unicode="&#x39d;" horiz-adv-x="672" 
d="M605 0h-116l-259 429c-24 40 -43 85 -43 85h-2s2 -49 2 -94v-420h-120v724h121l253 -418c23 -39 43 -85 43 -85h2s-2 51 -2 97v406h121v-724z" />
    <glyph glyph-name="Xi" unicode="&#x39e;" horiz-adv-x="547" 
d="M496 606h-444v118h444v-118zM464 309h-380v116h380v-116zM502 0h-457v118h457v-118z" />
    <glyph glyph-name="Omicron" unicode="&#x39f;" horiz-adv-x="652" 
d="M606 362c0 -211 -90 -374 -280 -374s-280 163 -280 374s90 374 280 374s280 -163 280 -374zM465 362c0 149 -47 249 -139 249s-139 -100 -139 -249s47 -249 139 -249s139 100 139 249z" />
    <glyph glyph-name="Pi" unicode="&#x3a0;" horiz-adv-x="638" 
d="M571 0h-141v608h-222v-608h-141v724h504v-724z" />
    <glyph glyph-name="Rho" unicode="&#x3a1;" horiz-adv-x="589" 
d="M555 504c0 -131 -96 -228 -283 -228c-24 0 -51 2 -67 5v-281h-138v697c55 24 127 39 209 39c180 0 279 -91 279 -232zM417 505c0 83 -48 123 -139 123c-28 0 -56 -5 -73 -11v-229c14 -3 37 -5 60 -5c99 0 152 46 152 122z" />
    <glyph glyph-name="Sigma" unicode="&#x3a3;" horiz-adv-x="538" 
d="M496 0h-457v90l216 278l-213 266v90h451v-118h-279l201 -238l-204 -250h285v-118z" />
    <glyph glyph-name="Tau" unicode="&#x3a4;" horiz-adv-x="508" 
d="M477 606h-152v-606h-141v606h-153v118h446v-118z" />
    <glyph glyph-name="Upsilon" unicode="&#x3a5;" horiz-adv-x="607" 
d="M584 602c-131 -57 -210 -191 -210 -377v-225h-141v225c0 186 -79 320 -210 377l23 134c157 -56 241 -182 257 -303h2c16 121 100 247 257 303z" />
    <glyph glyph-name="Phi" unicode="&#x3a6;" horiz-adv-x="839" 
d="M797 364c0 -165 -117 -310 -316 -318v-70h-124v70c-199 8 -315 153 -315 318s116 310 315 318v66h124v-66c199 -8 316 -153 316 -318zM658 365c0 109 -62 205 -177 209v-419c115 3 177 101 177 210zM357 155v419c-115 -4 -177 -100 -177 -209s62 -207 177 -210z" />
    <glyph glyph-name="Chi" unicode="&#x3a7;" horiz-adv-x="601" 
d="M593 0h-155l-136 263h-2l-137 -263h-155l209 375l-194 349h154l123 -237h2l122 237h154l-194 -349z" />
    <glyph glyph-name="Psi" unicode="&#x3a8;" horiz-adv-x="812" 
d="M753 456c0 -163 -96 -265 -282 -271v-185h-130v185c-186 6 -282 108 -282 271v268h129v-268c0 -104 45 -157 153 -162v430h130v-430c108 5 152 58 152 162v268h130v-268z" />
    <glyph glyph-name="Omega" unicode="&#x3a9;" horiz-adv-x="672" 
d="M632 0h-251v100c69 84 100 197 100 299c0 115 -46 212 -145 212s-144 -97 -144 -212c0 -102 31 -215 100 -299v-100h-252v109h126c-78 91 -116 201 -116 311c0 166 92 316 286 316s286 -150 286 -316c0 -110 -37 -220 -115 -311h125v-109z" />
    <glyph glyph-name="Iotadieresis" unicode="&#x3aa;" horiz-adv-x="275" 
d="M208 0h-141v724h141v-724zM103 856c0 -34 -30 -63 -67 -63s-67 29 -67 63s30 62 67 62s67 -28 67 -62zM306 856c0 -34 -30 -63 -67 -63s-67 29 -67 63s30 62 67 62s67 -28 67 -62z" />
    <glyph glyph-name="Upsilondieresis" unicode="&#x3ab;" horiz-adv-x="607" 
d="M584 602c-131 -57 -210 -191 -210 -377v-225h-141v225c0 186 -79 320 -210 377l23 134c157 -56 241 -182 257 -303h2c16 121 100 247 257 303zM472 834c0 -34 -30 -63 -67 -63s-67 29 -67 63s30 62 67 62s67 -28 67 -62zM269 834c0 -34 -30 -63 -67 -63s-67 29 -67 63
s30 62 67 62s67 -28 67 -62z" />
    <glyph glyph-name="alphatonos" unicode="&#x3ac;" horiz-adv-x="649" 
d="M611 0h-129c-7 38 -21 94 -32 132h-2c-39 -80 -90 -144 -192 -144c-134 0 -214 124 -214 281s80 282 214 282c97 0 156 -67 193 -143h2c11 37 23 93 29 131h128c-17 -86 -49 -195 -76 -268c27 -73 61 -185 79 -271zM409 270c-29 86 -69 173 -133 173
c-66 0 -98 -86 -98 -172s32 -174 98 -174c64 0 105 86 133 173zM449 742l-81 -141h-80l42 141c12 18 39 30 65 30c23 0 44 -9 54 -30z" />
    <glyph glyph-name="epsilontonos" unicode="&#x3ad;" horiz-adv-x="501" 
d="M479 27c-53 -24 -128 -39 -200 -39c-142 0 -240 58 -240 160c0 72 53 115 114 134v2c-56 18 -95 62 -95 118c0 89 73 149 213 149c69 0 142 -15 195 -39l-37 -89c-38 18 -89 29 -134 29c-57 0 -99 -24 -99 -65c0 -42 37 -70 118 -70h62v-83h-65c-92 0 -130 -31 -130 -74
c0 -46 49 -71 114 -71c51 0 106 12 143 29zM376 742l-81 -141h-80l42 141c12 18 39 30 65 30c23 0 44 -9 54 -30z" />
    <glyph glyph-name="etatonos" unicode="&#x3ae;" horiz-adv-x="572" 
d="M511 -215h-135v571c0 55 -32 86 -98 86c-34 0 -64 -6 -82 -13v-429h-135v512c57 23 126 39 215 39c161 0 235 -77 235 -195v-571zM395 742l-81 -141h-80l42 141c12 18 39 30 65 30c23 0 44 -9 54 -30z" />
    <glyph glyph-name="iotatonos" unicode="&#x3af;" horiz-adv-x="281" 
d="M251 -12c-128 3 -188 60 -188 177v374h137v-374c0 -35 15 -55 51 -60v-117zM246 742l-81 -141h-80l42 141c12 18 39 30 65 30c23 0 44 -9 54 -30z" />
    <glyph glyph-name="upsilondieresistonos" unicode="&#x3b0;" horiz-adv-x="564" 
d="M503 179c0 -117 -84 -191 -221 -191s-221 74 -221 191v360h136v-361c0 -51 36 -83 85 -83s85 32 85 83v361h136v-360zM471 671c0 -34 -23 -63 -53 -63s-54 29 -54 63s24 62 54 62s53 -28 53 -62zM345 748l-49 -147h-61l18 147c8 21 28 31 48 31s38 -10 44 -31zM204 671
c0 -34 -23 -63 -53 -63s-54 29 -54 63s24 62 54 62s53 -28 53 -62z" />
    <glyph glyph-name="alpha" unicode="&#x3b1;" horiz-adv-x="649" 
d="M611 0h-129c-7 38 -21 94 -32 132h-2c-39 -80 -90 -144 -192 -144c-134 0 -214 124 -214 281s80 282 214 282c97 0 156 -67 193 -143h2c11 37 23 93 29 131h128c-17 -86 -49 -195 -76 -268c27 -73 61 -185 79 -271zM409 270c-29 86 -69 173 -133 173
c-66 0 -98 -86 -98 -172s32 -174 98 -174c64 0 105 86 133 173z" />
    <glyph glyph-name="beta" unicode="&#x3b2;" horiz-adv-x="599" 
d="M560 212c0 -125 -95 -221 -255 -221c-37 0 -78 7 -111 21v-227h-132v734c0 176 81 278 234 278c140 0 212 -102 212 -198c0 -78 -42 -140 -111 -170v-2c109 -34 163 -119 163 -215zM419 229c0 84 -64 141 -148 141h-15v95c83 8 125 51 125 121c0 56 -27 104 -87 104
c-70 0 -100 -61 -100 -159v-417c27 -13 59 -20 88 -20c93 0 137 65 137 135z" />
    <glyph glyph-name="gamma" unicode="&#x3b3;" horiz-adv-x="579" 
d="M543 539c-5 -175 -86 -362 -187 -539v-215h-135v97c0 171 -67 365 -210 657h155c68 -147 111 -290 128 -422h2c62 125 99 269 104 422h143z" />
    <glyph glyph-name="delta" unicode="&#x3b4;" horiz-adv-x="580" 
d="M538 256c0 -136 -76 -268 -243 -268c-160 0 -253 123 -253 274c0 126 67 220 192 253c-49 50 -90 103 -90 173c0 34 10 66 26 97h310v-107h-199c-2 -3 -3 -8 -3 -13c0 -54 60 -105 96 -136c73 -62 164 -142 164 -273zM403 256c0 77 -46 129 -96 178
c-94 -19 -130 -92 -130 -172c0 -97 47 -163 115 -163c72 0 111 61 111 157z" />
    <glyph glyph-name="epsilon" unicode="&#x3b5;" horiz-adv-x="501" 
d="M479 27c-53 -24 -128 -39 -200 -39c-142 0 -240 58 -240 160c0 72 53 115 114 134v2c-56 18 -95 62 -95 118c0 89 73 149 213 149c69 0 142 -15 195 -39l-37 -89c-38 18 -89 29 -134 29c-57 0 -99 -24 -99 -65c0 -42 37 -70 118 -70h62v-83h-65c-92 0 -130 -31 -130 -74
c0 -46 49 -71 114 -71c51 0 106 12 143 29z" />
    <glyph glyph-name="zeta" unicode="&#x3b6;" horiz-adv-x="457" 
d="M434 699l-117 -164c-74 -104 -132 -194 -132 -285c0 -118 83 -164 247 -164l-37 -260l-104 14l10 148c-159 18 -260 87 -260 238c0 143 86 243 168 354l72 98h-202v107h355v-86z" />
    <glyph glyph-name="eta" unicode="&#x3b7;" horiz-adv-x="572" 
d="M511 -215h-135v571c0 55 -32 86 -98 86c-34 0 -64 -6 -82 -13v-429h-135v512c57 23 126 39 215 39c161 0 235 -77 235 -195v-571z" />
    <glyph glyph-name="theta" unicode="&#x3b8;" horiz-adv-x="598" 
d="M551 392c0 -230 -73 -404 -252 -404s-252 174 -252 404s73 405 252 405s252 -175 252 -405zM422 449c-6 146 -41 246 -123 246s-117 -100 -123 -246h246zM422 343h-246c5 -147 40 -250 123 -250s118 103 123 250z" />
    <glyph glyph-name="iota" unicode="&#x3b9;" horiz-adv-x="281" 
d="M251 -12c-128 3 -188 60 -188 177v374h137v-374c0 -35 15 -55 51 -60v-117z" />
    <glyph glyph-name="kappa" unicode="&#x3ba;" horiz-adv-x="548" 
d="M538 0h-149l-76 164c-22 49 -62 88 -118 88v-252h-134v539h134v-237h2l177 237h156l-197 -240c53 -22 91 -64 118 -120z" />
    <glyph glyph-name="lambda" unicode="&#x3bb;" horiz-adv-x="588" 
d="M575 0h-152l-108 335c-13 39 -18 82 -18 82h-2s-6 -42 -19 -82l-111 -335h-152l215 539l-97 246h143z" />
    <glyph glyph-name="mu" unicode="&#x3bc;" horiz-adv-x="564" 
d="M503 43c-41 -34 -111 -55 -180 -55c-47 0 -93 10 -126 27v-230h-136v754h136v-419c22 -15 56 -23 89 -23c31 0 63 9 81 23v419h136v-496z" />
    <glyph glyph-name="nu" unicode="&#x3bd;" horiz-adv-x="579" 
d="M543 539c-5 -175 -86 -362 -187 -539h-151l-190 539h154l117 -423h2c62 126 107 270 112 423h143z" />
    <glyph glyph-name="xi" unicode="&#x3be;" horiz-adv-x="486" 
d="M459 86l-37 -260l-103 14l9 148c-167 18 -288 77 -288 230c0 116 71 181 163 214v2c-81 37 -128 102 -128 195c0 58 19 112 52 156h313v-107h-211c-13 -18 -20 -44 -20 -71c0 -85 68 -132 188 -136v-104h-42c-85 0 -170 -38 -170 -137c0 -104 108 -144 274 -144z" />
    <glyph glyph-name="omicron" unicode="&#x3bf;" horiz-adv-x="572" 
d="M530 270c0 -161 -87 -282 -244 -282s-244 121 -244 282s87 281 244 281s244 -120 244 -281zM394 271c0 108 -36 173 -108 173s-108 -65 -108 -173s36 -172 108 -172s108 64 108 172z" />
    <glyph glyph-name="pi" unicode="&#x3c0;" horiz-adv-x="646" 
d="M614 432h-79v-432h-133v434h-139l-48 -434h-134l49 432h-98v107h582v-107z" />
    <glyph glyph-name="rho" unicode="&#x3c1;" horiz-adv-x="579" 
d="M537 272c0 -143 -75 -281 -242 -281c-29 0 -63 8 -89 19c14 -76 32 -153 54 -225h-135c-44 139 -76 298 -76 458c0 175 78 308 244 308c157 0 244 -124 244 -279zM400 273c0 103 -35 171 -108 171c-80 0 -109 -79 -109 -199c0 -44 3 -86 8 -127c23 -13 57 -22 88 -22
c92 0 121 86 121 177z" />
    <glyph glyph-name="sigma1" unicode="&#x3c2;" horiz-adv-x="481" 
d="M450 514l-43 -98c-25 15 -57 23 -90 23c-83 0 -133 -70 -133 -160c0 -134 92 -187 259 -196l-37 -257l-103 14l10 148c-172 33 -271 122 -271 283c0 178 111 280 254 280c59 0 112 -12 154 -37z" />
    <glyph glyph-name="sigma" unicode="&#x3c3;" horiz-adv-x="620" 
d="M592 432h-50c-29 0 -60 2 -81 6v-2c39 -39 66 -105 66 -185c0 -135 -70 -263 -241 -263c-157 0 -244 121 -244 282s87 281 244 281c53 0 76 -12 144 -12h162v-107zM394 271c0 117 -43 173 -108 173c-72 0 -108 -65 -108 -173s36 -172 108 -172s108 64 108 172z" />
    <glyph glyph-name="tau" unicode="&#x3c4;" horiz-adv-x="459" 
d="M431 432h-133v-432h-137v432h-133v107h403v-107z" />
    <glyph glyph-name="upsilon" unicode="&#x3c5;" horiz-adv-x="564" 
d="M503 179c0 -117 -84 -191 -221 -191s-221 74 -221 191v360h136v-361c0 -51 36 -83 85 -83s85 32 85 83v361h136v-360z" />
    <glyph glyph-name="phi" unicode="&#x3c6;" horiz-adv-x="788" 
d="M746 288c0 -158 -101 -290 -293 -298v-205h-127v205c-189 9 -284 139 -284 287c0 120 67 224 173 274l55 -96c-57 -26 -99 -91 -99 -175c0 -99 49 -184 155 -188v420c49 25 103 39 171 39c165 0 249 -116 249 -263zM619 282c0 89 -39 166 -116 166c-17 0 -35 -4 -50 -11
v-345c112 4 166 84 166 190z" />
    <glyph glyph-name="chi" unicode="&#x3c7;" horiz-adv-x="572" 
d="M570 -215h-149l-142 294h-2c-55 -67 -112 -173 -131 -294h-140c31 166 129 301 207 392l-191 362h148l123 -273h2c49 64 92 162 106 273h139c-25 -157 -109 -281 -180 -367z" />
    <glyph glyph-name="psi" unicode="&#x3c8;" horiz-adv-x="787" 
d="M730 267c0 -170 -98 -269 -273 -277v-205h-126v205c-175 8 -274 107 -274 277v272h126v-272c0 -105 43 -168 148 -172v553h126v-553c105 4 147 67 147 172v272h126v-272z" />
    <glyph glyph-name="omega" unicode="&#x3c9;" horiz-adv-x="804" 
d="M759 270c0 -146 -61 -282 -209 -282c-92 0 -135 66 -147 138h-2c-12 -72 -55 -138 -147 -138c-148 0 -209 136 -209 282c0 101 31 207 81 269h142c-59 -72 -90 -182 -90 -272c0 -91 28 -158 85 -158c49 0 77 51 77 145v173h124v-173c0 -94 28 -145 77 -145
c57 0 84 67 84 158c0 90 -30 200 -89 272h142c50 -62 81 -168 81 -269z" />
    <glyph glyph-name="iotadieresis" unicode="&#x3ca;" horiz-adv-x="281" 
d="M251 -12c-128 3 -188 60 -188 177v374h137v-374c0 -35 15 -55 51 -60v-117zM301 671c0 -34 -30 -63 -67 -63s-66 29 -66 63s29 62 66 62s67 -28 67 -62zM98 671c0 -34 -30 -63 -67 -63s-67 29 -67 63s30 62 67 62s67 -28 67 -62z" />
    <glyph glyph-name="upsilondieresis" unicode="&#x3cb;" horiz-adv-x="564" 
d="M503 179c0 -117 -84 -191 -221 -191s-221 74 -221 191v360h136v-361c0 -51 36 -83 85 -83s85 32 85 83v361h136v-360zM450 671c0 -34 -30 -63 -67 -63s-66 29 -66 63s29 62 66 62s67 -28 67 -62zM247 671c0 -34 -30 -63 -67 -63s-67 29 -67 63s30 62 67 62s67 -28 67 -62
z" />
    <glyph glyph-name="omicrontonos" unicode="&#x3cc;" horiz-adv-x="572" 
d="M530 270c0 -161 -87 -282 -244 -282s-244 121 -244 282s87 281 244 281s244 -120 244 -281zM394 271c0 108 -36 173 -108 173s-108 -65 -108 -173s36 -172 108 -172s108 64 108 172zM393 742l-81 -141h-80l42 141c12 18 39 30 65 30c23 0 44 -9 54 -30z" />
    <glyph glyph-name="upsilontonos" unicode="&#x3cd;" horiz-adv-x="564" 
d="M503 179c0 -117 -84 -191 -221 -191s-221 74 -221 191v360h136v-361c0 -51 36 -83 85 -83s85 32 85 83v361h136v-360zM388 742l-81 -141h-80l42 141c12 18 39 30 65 30c23 0 44 -9 54 -30z" />
    <glyph glyph-name="omegatonos" unicode="&#x3ce;" horiz-adv-x="804" 
d="M759 270c0 -146 -61 -282 -209 -282c-92 0 -135 66 -147 138h-2c-12 -72 -55 -138 -147 -138c-148 0 -209 136 -209 282c0 101 31 207 81 269h142c-59 -72 -90 -182 -90 -272c0 -91 28 -158 85 -158c49 0 77 51 77 145v173h124v-173c0 -94 28 -145 77 -145
c57 0 84 67 84 158c0 90 -30 200 -89 272h142c50 -62 81 -168 81 -269zM505 742l-81 -141h-80l42 141c12 18 39 30 65 30c23 0 44 -9 54 -30z" />
    <glyph glyph-name="afii10023" unicode="&#x401;" horiz-adv-x="497" 
d="M452 0h-385v724h385v-118h-247v-181h223v-116h-223v-191h247v-118zM426 856c0 -34 -30 -63 -67 -63s-66 29 -66 63s29 62 66 62s67 -28 67 -62zM223 856c0 -34 -30 -63 -67 -63s-67 29 -67 63s30 62 67 62s67 -28 67 -62z" />
    <glyph glyph-name="afii10051" unicode="&#x402;" horiz-adv-x="693" 
d="M648 179c0 -161 -80 -302 -221 -368l-59 102c96 52 140 153 140 266c0 104 -40 177 -135 177c-26 0 -59 -8 -81 -20v-336h-139v606h-118v118h483v-118h-226v-163c33 16 80 25 119 25c159 0 237 -111 237 -289z" />
    <glyph glyph-name="afii10052" unicode="&#x403;" horiz-adv-x="478" 
d="M448 606h-241v-606h-139v724h380v-118zM394 918l-107 -132h-94l70 132c20 21 50 30 76 30s49 -11 55 -30z" />
    <glyph glyph-name="afii10053" unicode="&#x404;" horiz-adv-x="599" 
d="M566 27c-40 -23 -104 -39 -181 -39c-195 0 -339 127 -339 374s144 374 339 374c75 0 141 -16 181 -39l-50 -105c-31 17 -79 27 -126 27c-99 0 -182 -58 -200 -193h295v-115h-296c14 -143 99 -205 201 -205c47 0 96 11 126 28z" />
    <glyph glyph-name="afii10054" unicode="&#x405;" horiz-adv-x="513" 
d="M470 210c0 -132 -91 -222 -247 -222c-71 0 -145 17 -186 39l46 122c32 -19 84 -34 133 -34c67 0 110 35 110 88c0 51 -46 77 -99 101c-81 37 -182 91 -182 218c0 129 90 214 235 214c71 0 132 -17 169 -39l-44 -114c-26 15 -73 32 -119 32c-61 0 -100 -34 -100 -85
c0 -50 49 -77 102 -103c79 -39 182 -89 182 -217z" />
    <glyph glyph-name="afii10055" unicode="&#x406;" horiz-adv-x="275" 
d="M208 0h-141v724h141v-724z" />
    <glyph glyph-name="afii10056" unicode="&#x407;" horiz-adv-x="275" 
d="M208 0h-141v724h141v-724zM306 856c0 -34 -30 -63 -67 -63s-66 29 -66 63s29 62 66 62s67 -28 67 -62zM103 856c0 -34 -30 -63 -67 -63s-67 29 -67 63s30 62 67 62s67 -28 67 -62z" />
    <glyph glyph-name="afii10057" unicode="&#x408;" horiz-adv-x="275" 
d="M208 80c0 -184 -101 -278 -267 -299v121c76 19 126 72 126 178v644h141v-644z" />
    <glyph glyph-name="afii10058" unicode="&#x409;" horiz-adv-x="965" 
d="M925 221c0 -141 -99 -233 -279 -233c-82 0 -153 15 -208 39v581h-127l-17 -180c-19 -197 -72 -372 -242 -446l-42 121c103 63 131 183 147 340l29 281h389v-281c16 4 46 8 72 8c183 0 278 -97 278 -230zM786 221c0 78 -51 123 -146 123c-23 0 -51 -4 -65 -8v-229
c17 -6 44 -11 72 -11c91 0 139 42 139 125z" />
    <glyph glyph-name="afii10059" unicode="&#x40a;" horiz-adv-x="939" 
d="M899 221c0 -141 -99 -233 -279 -233c-82 0 -153 15 -208 39v282h-207v-309h-138v724h138v-299h207v299h137v-281c16 4 46 8 72 8c183 0 278 -97 278 -230zM761 221c0 78 -51 123 -146 123c-23 0 -52 -4 -66 -8v-229c17 -6 45 -11 73 -11c91 0 139 42 139 125z" />
    <glyph glyph-name="afii10060" unicode="&#x40b;" horiz-adv-x="689" 
d="M625 0h-139v263c0 65 -38 97 -105 97c-29 0 -65 -8 -89 -20v-340h-139v606h-118v118h483v-118h-226v-163c34 16 80 25 123 25c130 0 210 -71 210 -197v-271z" />
    <glyph glyph-name="afii10061" unicode="&#x40c;" horiz-adv-x="621" 
d="M447 918l-107 -132h-94l70 132c20 21 50 30 76 30s49 -11 55 -30zM608 0h-158l-96 232c-25 60 -77 106 -146 106v-338h-141v724h141v-326h2l227 326h163l-247 -329c67 -26 114 -76 145 -146z" />
    <glyph glyph-name="afii10062" unicode="&#x40e;" horiz-adv-x="609" 
d="M578 724c-18 -175 -95 -360 -177 -510l-117 -214h-159l118 205c-107 155 -192 334 -213 519h149c19 -148 70 -282 134 -401h2c54 117 98 252 114 401h149zM454 931c-5 -92 -55 -152 -149 -152s-145 60 -150 152l77 12c6 -54 27 -83 73 -83s66 29 72 83z" />
    <glyph glyph-name="afii10145" unicode="&#x40f;" horiz-adv-x="630" 
d="M564 0h-195l-4 -146h-99l-5 146h-194v724h141v-606h214v606h142v-724z" />
    <glyph glyph-name="afii10017" unicode="&#x410;" horiz-adv-x="664" 
d="M657 0h-147l-53 169h-250l-53 -169h-147l242 724h166zM429 273l-76 247c-13 41 -20 88 -20 88h-2s-7 -47 -20 -88l-76 -247h194z" />
    <glyph glyph-name="afii10018" unicode="&#x411;" horiz-adv-x="603" 
d="M562 212c0 -134 -90 -224 -278 -224c-82 0 -166 17 -217 39v697h418v-118h-283v-176c19 5 53 9 86 9c179 0 274 -90 274 -227zM422 215c0 74 -51 119 -148 119c-26 0 -55 -4 -72 -8v-219c18 -6 49 -12 80 -12c91 0 140 44 140 120z" />
    <glyph glyph-name="afii10019" unicode="&#x412;" horiz-adv-x="616" 
d="M574 197c0 -130 -98 -209 -287 -209c-82 0 -170 17 -220 39v670c54 23 135 39 218 39c184 0 270 -83 270 -198c0 -83 -55 -144 -113 -160v-2c58 -19 132 -76 132 -179zM421 525c0 65 -43 104 -136 104c-32 0 -65 -5 -84 -12v-199h89c49 0 75 7 96 24s35 47 35 83z
M435 206c0 40 -16 71 -45 89c-24 15 -49 23 -98 23h-91v-211c20 -7 55 -12 85 -12c99 0 149 36 149 111z" />
    <glyph glyph-name="afii10020" unicode="&#x413;" horiz-adv-x="478" 
d="M448 606h-241v-606h-139v724h380v-118z" />
    <glyph glyph-name="afii10021" unicode="&#x414;" horiz-adv-x="759" 
d="M718 96l-7 -242h-97l-4 146h-470l-4 -146h-97l-8 242c125 96 166 285 185 446l22 182h362l67 -606zM530 111l-52 497h-122l-9 -80c-16 -145 -54 -327 -137 -417h320z" />
    <glyph glyph-name="afii10022" unicode="&#x415;" horiz-adv-x="497" 
d="M452 0h-385v724h385v-118h-247v-181h223v-116h-223v-191h247v-118z" />
    <glyph glyph-name="afii10024" unicode="&#x416;" horiz-adv-x="915" 
d="M902 0h-149l-99 239c-24 57 -66 100 -130 100v-339h-134v339c-64 0 -105 -43 -129 -100l-99 -239h-149l109 254c29 67 74 114 133 141l-233 329h160l206 -328h2v328h134v-328h2l207 328h160l-233 -329c59 -27 104 -74 133 -141z" />
    <glyph glyph-name="afii10025" unicode="&#x417;" horiz-adv-x="561" 
d="M519 208c0 -133 -105 -220 -284 -220c-77 0 -148 15 -209 40l45 108c45 -18 98 -30 162 -30c91 0 142 41 142 103c0 75 -90 113 -211 113h-17v103c126 4 205 50 205 113c0 51 -41 82 -120 82c-51 0 -107 -13 -152 -32l-41 108c64 25 136 40 212 40
c162 0 243 -74 243 -187c0 -73 -60 -133 -126 -159v-2c74 -24 151 -78 151 -180z" />
    <glyph glyph-name="afii10026" unicode="&#x418;" horiz-adv-x="677" 
d="M610 0h-125v420c0 45 2 94 2 94h-2s-19 -45 -43 -85l-259 -429h-116v724h125v-406c0 -46 -2 -97 -2 -97h2s20 46 43 85l253 418h122v-724z" />
    <glyph glyph-name="afii10027" unicode="&#x419;" horiz-adv-x="677" 
d="M610 0h-125v420c0 45 2 94 2 94h-2s-19 -45 -43 -85l-259 -429h-116v724h125v-406c0 -46 -2 -97 -2 -97h2s20 46 43 85l253 418h122v-724zM487 931c-5 -92 -55 -152 -149 -152s-145 60 -150 152l77 12c6 -54 27 -83 73 -83s66 29 72 83z" />
    <glyph glyph-name="afii10028" unicode="&#x41a;" horiz-adv-x="621" 
d="M608 0h-158l-96 232c-25 60 -77 106 -146 106v-338h-141v724h141v-326h2l227 326h163l-247 -329c67 -26 114 -76 145 -146z" />
    <glyph glyph-name="afii10029" unicode="&#x41b;" horiz-adv-x="687" 
d="M644 0h-144l-63 608h-121l-18 -180c-20 -197 -71 -373 -245 -447l-42 123c107 63 134 181 150 339l29 281h374z" />
    <glyph glyph-name="afii10030" unicode="&#x41c;" horiz-adv-x="871" 
d="M833 0h-131l-51 461c-5 45 -7 98 -7 98h-2s-10 -52 -24 -98l-137 -461h-90l-138 461c-14 46 -24 98 -24 98h-2s-2 -53 -7 -98l-51 -461h-131l90 724h160l126 -423c12 -42 21 -93 21 -93h2s9 51 21 93l125 423h160z" />
    <glyph glyph-name="afii10031" unicode="&#x41d;" horiz-adv-x="638" 
d="M571 0h-141v309h-222v-309h-141v724h141v-299h222v299h141v-724z" />
    <glyph glyph-name="afii10032" unicode="&#x41e;" horiz-adv-x="652" 
d="M606 362c0 -211 -90 -374 -280 -374s-280 163 -280 374s90 374 280 374s280 -163 280 -374zM465 362c0 149 -47 249 -139 249s-139 -100 -139 -249s47 -249 139 -249s139 100 139 249z" />
    <glyph glyph-name="afii10033" unicode="&#x41f;" horiz-adv-x="638" 
d="M571 0h-141v608h-222v-608h-141v724h504v-724z" />
    <glyph glyph-name="afii10034" unicode="&#x420;" horiz-adv-x="589" 
d="M555 504c0 -131 -96 -228 -283 -228c-24 0 -51 2 -67 5v-281h-138v697c55 24 127 39 209 39c180 0 279 -91 279 -232zM417 505c0 83 -48 123 -139 123c-28 0 -56 -5 -73 -11v-229c14 -3 37 -5 60 -5c99 0 152 46 152 122z" />
    <glyph glyph-name="afii10035" unicode="&#x421;" horiz-adv-x="524" 
d="M490 27c-34 -23 -91 -39 -157 -39c-159 0 -287 122 -287 374s128 374 287 374c64 0 123 -16 157 -39l-44 -113c-20 15 -56 29 -96 29c-93 0 -159 -86 -159 -250s66 -249 159 -249c40 0 76 13 96 28z" />
    <glyph glyph-name="afii10036" unicode="&#x422;" horiz-adv-x="508" 
d="M477 606h-152v-606h-141v606h-153v118h446v-118z" />
    <glyph glyph-name="afii10037" unicode="&#x423;" horiz-adv-x="609" 
d="M578 724c-18 -175 -95 -360 -177 -510l-117 -214h-159l118 205c-107 155 -192 334 -213 519h149c19 -148 70 -282 134 -401h2c54 117 98 252 114 401h149z" />
    <glyph glyph-name="afii10038" unicode="&#x424;" horiz-adv-x="839" 
d="M797 364c0 -165 -117 -310 -316 -318v-70h-124v70c-199 8 -315 153 -315 318s116 310 315 318v66h124v-66c199 -8 316 -153 316 -318zM658 365c0 109 -62 205 -177 209v-419c115 3 177 101 177 210zM357 155v419c-115 -4 -177 -100 -177 -209s62 -207 177 -210z" />
    <glyph glyph-name="afii10039" unicode="&#x425;" horiz-adv-x="601" 
d="M593 0h-155l-136 263h-2l-137 -263h-155l209 375l-194 349h154l123 -237h2l122 237h154l-194 -349z" />
    <glyph glyph-name="afii10040" unicode="&#x426;" horiz-adv-x="657" 
d="M614 96l-7 -242h-97l-4 146h-439v724h141v-606h214v606h142v-605z" />
    <glyph glyph-name="afii10041" unicode="&#x427;" horiz-adv-x="622" 
d="M555 0h-141v269c-32 -15 -84 -25 -126 -25c-138 0 -225 86 -225 220v260h141v-248c0 -72 45 -109 115 -109c30 0 74 9 95 21v336h141v-724z" />
    <glyph glyph-name="afii10042" unicode="&#x428;" horiz-adv-x="915" 
d="M848 0h-781v724h134v-606h189v606h135v-606h188v606h135v-724z" />
    <glyph glyph-name="afii10043" unicode="&#x429;" horiz-adv-x="942" 
d="M899 96l-8 -242h-97l-4 146h-723v724h134v-606h189v606h135v-606h188v606h135v-606z" />
    <glyph glyph-name="afii10044" unicode="&#x42a;" horiz-adv-x="677" 
d="M637 221c0 -141 -99 -233 -279 -233c-82 0 -153 15 -208 39v579h-122v118h259v-281c16 4 46 8 72 8c183 0 278 -97 278 -230zM498 221c0 78 -51 123 -146 123c-23 0 -51 -4 -65 -8v-229c17 -6 44 -11 72 -11c91 0 139 42 139 125z" />
    <glyph glyph-name="afii10045" unicode="&#x42b;" horiz-adv-x="839" 
d="M771 0h-141v724h141v-724zM554 221c0 -141 -99 -233 -279 -233c-82 0 -153 15 -208 39v697h137v-281c16 4 46 8 72 8c183 0 278 -97 278 -230zM415 221c0 78 -51 123 -146 123c-23 0 -51 -4 -65 -8v-229c17 -6 44 -11 72 -11c91 0 139 42 139 125z" />
    <glyph glyph-name="afii10046" unicode="&#x42c;" horiz-adv-x="594" 
d="M554 221c0 -141 -99 -233 -279 -233c-82 0 -153 15 -208 39v697h137v-281c16 4 46 8 72 8c183 0 278 -97 278 -230zM415 221c0 78 -51 123 -146 123c-23 0 -51 -4 -65 -8v-229c17 -6 44 -11 72 -11c91 0 139 42 139 125z" />
    <glyph glyph-name="afii10047" unicode="&#x42d;" horiz-adv-x="599" 
d="M553 362c0 -247 -144 -374 -339 -374c-77 0 -141 16 -181 39l50 107c30 -17 79 -28 126 -28c102 0 187 62 201 205h-296v115h295c-18 135 -101 193 -200 193c-47 0 -95 -10 -126 -27l-50 105c40 23 106 39 181 39c195 0 339 -127 339 -374z" />
    <glyph glyph-name="afii10048" unicode="&#x42e;" horiz-adv-x="895" 
d="M847 362c0 -212 -77 -374 -259 -374c-167 0 -244 138 -256 321h-127v-309h-138v724h138v-299h127c14 179 92 311 256 311c182 0 259 -162 259 -374zM710 363c0 157 -36 265 -122 265s-122 -108 -122 -265s36 -264 122 -264s122 107 122 264z" />
    <glyph glyph-name="afii10049" unicode="&#x42f;" horiz-adv-x="626" 
d="M559 0h-138v294h-60c-50 0 -81 -28 -99 -72l-91 -222h-148l97 230c20 47 45 85 83 106v2c-75 21 -140 76 -140 180c0 136 94 218 277 218c82 0 162 -14 219 -39v-697zM421 394v223c-19 7 -52 12 -84 12c-94 0 -136 -43 -136 -119c0 -80 49 -116 138 -116h82z" />
    <glyph glyph-name="afii10065" unicode="&#x430;" horiz-adv-x="541" 
d="M481 27c-40 -21 -121 -39 -202 -39c-162 0 -243 64 -243 174c0 147 153 176 316 185v28c0 56 -39 77 -101 77c-51 0 -113 -16 -151 -32l-34 92c45 19 122 39 200 39c138 0 215 -54 215 -192v-332zM352 96v164c-100 -5 -188 -14 -188 -95c0 -51 40 -80 111 -80
c29 0 63 5 77 11z" />
    <glyph glyph-name="afii10066" unicode="&#x431;" horiz-adv-x="573" 
d="M532 270c0 -163 -86 -282 -240 -282c-163 0 -245 132 -245 337c0 279 98 437 428 472v-113c-159 -18 -238 -62 -272 -157c28 12 59 20 98 20c156 0 231 -122 231 -277zM397 270c0 106 -37 181 -118 181c-32 0 -65 -8 -94 -20c-4 -33 -6 -70 -6 -112
c0 -139 41 -220 115 -220c68 0 103 72 103 171z" />
    <glyph glyph-name="afii10067" unicode="&#x432;" horiz-adv-x="548" 
d="M508 145c0 -107 -85 -157 -248 -157c-74 0 -147 14 -199 39v485c52 25 125 39 198 39c152 0 235 -56 235 -150c0 -61 -51 -110 -106 -122v-1c54 -13 120 -52 120 -133zM363 391c0 47 -32 76 -104 76c-25 0 -53 -5 -68 -11v-144h74c36 0 56 5 72 17s26 36 26 62zM373 153
c0 29 -13 52 -34 65c-18 11 -34 16 -72 16h-76v-151c16 -7 45 -11 69 -11c77 0 113 26 113 81z" />
    <glyph glyph-name="afii10068" unicode="&#x433;" horiz-adv-x="407" 
d="M381 433h-182v-433h-137v539h319v-106z" />
    <glyph glyph-name="afii10069" unicode="&#x434;" horiz-adv-x="647" 
d="M612 86l-8 -232h-94l-5 146h-371l-5 -146h-94l-9 232c102 62 134 196 152 317l20 136h321l46 -433zM441 102l-32 335h-104l-9 -60c-14 -91 -36 -208 -106 -275h251z" />
    <glyph glyph-name="afii10070" unicode="&#x435;" horiz-adv-x="566" 
d="M524 306c0 -15 0 -30 -2 -46l-347 -47c12 -79 70 -118 149 -118c54 0 112 14 150 34l39 -102c-45 -23 -121 -39 -199 -39c-178 0 -272 116 -272 282c0 165 93 281 250 281c149 0 232 -98 232 -245zM392 330c0 81 -40 122 -103 122c-71 0 -121 -52 -123 -153z" />
    <glyph glyph-name="afii10072" unicode="&#x436;" horiz-adv-x="790" 
d="M779 0h-142l-70 164c-20 48 -57 90 -110 90v-254h-124v254c-53 0 -91 -42 -111 -90l-69 -164h-142l81 179c25 56 62 97 113 120l-186 240h148l164 -239h2v239h124v-239h2l164 239h148l-186 -240c51 -23 87 -64 112 -120z" />
    <glyph glyph-name="afii10073" unicode="&#x437;" horiz-adv-x="501" 
d="M461 148c0 -102 -97 -160 -239 -160c-72 0 -148 15 -201 39l42 91c37 -17 92 -29 143 -29c65 0 114 25 114 71c0 43 -39 74 -131 74h-64v83h61c81 0 118 28 118 70c0 41 -41 65 -98 65c-45 0 -97 -11 -135 -29l-37 89c53 24 127 39 196 39c140 0 213 -60 213 -149
c0 -56 -40 -100 -96 -118v-2c61 -19 114 -62 114 -134z" />
    <glyph glyph-name="afii10074" unicode="&#x438;" horiz-adv-x="598" 
d="M537 0h-120v307c0 34 2 72 2 72h-2s-15 -34 -33 -64l-193 -315h-130v539h120v-296c0 -35 -2 -74 -2 -74h2s15 35 33 64l188 306h135v-539z" />
    <glyph glyph-name="afii10075" unicode="&#x439;" horiz-adv-x="598" 
d="M537 0h-120v307c0 34 2 72 2 72h-2s-15 -34 -33 -64l-193 -315h-130v539h120v-296c0 -35 -2 -74 -2 -74h2s15 35 33 64l188 306h135v-539zM446 746c-5 -92 -55 -152 -149 -152s-145 60 -150 152l77 12c6 -54 27 -83 73 -83s66 29 72 83z" />
    <glyph glyph-name="afii10076" unicode="&#x43a;" horiz-adv-x="548" 
d="M538 0h-149l-76 164c-22 49 -62 88 -118 88v-252h-134v539h134v-237h2l177 237h156l-197 -240c53 -22 91 -64 118 -120z" />
    <glyph glyph-name="afii10077" unicode="&#x43b;" horiz-adv-x="611" 
d="M572 0h-137l-44 433h-103l-16 -115c-19 -135 -64 -289 -219 -335l-44 109c85 35 116 136 130 239l29 208h347z" />
    <glyph glyph-name="afii10078" unicode="&#x43c;" horiz-adv-x="774" 
d="M739 0h-128l-37 338c-4 35 -6 77 -6 77h-2s-7 -42 -18 -77l-108 -338h-106l-108 338c-11 35 -19 77 -19 77h-2s-1 -42 -5 -77l-37 -338h-128l73 539h163l99 -310c10 -31 16 -71 16 -71h2s6 40 16 71l98 310h164z" />
    <glyph glyph-name="afii10079" unicode="&#x43d;" horiz-adv-x="567" 
d="M506 0h-136v227h-173v-227h-136v539h136v-221h173v221h136v-539z" />
    <glyph glyph-name="afii10080" unicode="&#x43e;" horiz-adv-x="572" 
d="M530 270c0 -161 -87 -282 -244 -282s-244 121 -244 282s87 281 244 281s244 -120 244 -281zM394 271c0 108 -36 173 -108 173s-108 -65 -108 -173s36 -172 108 -172s108 64 108 172z" />
    <glyph glyph-name="afii10081" unicode="&#x43f;" horiz-adv-x="569" 
d="M508 0h-136v433h-175v-433h-136v539h447v-539z" />
    <glyph glyph-name="afii10082" unicode="&#x440;" horiz-adv-x="569" 
d="M527 272c0 -166 -87 -278 -252 -278c-29 0 -61 6 -78 12v-221h-136v727c40 21 116 39 197 39c174 0 269 -104 269 -279zM390 272c0 109 -46 173 -130 173c-25 0 -51 -5 -63 -11v-326c11 -5 40 -10 64 -10c85 0 129 72 129 174z" />
    <glyph glyph-name="afii10083" unicode="&#x441;" horiz-adv-x="457" 
d="M426 25c-35 -23 -79 -37 -143 -37c-126 0 -241 90 -241 282s115 281 241 281c64 0 109 -14 143 -37l-43 -98c-20 15 -49 23 -80 23c-67 0 -120 -56 -120 -168s55 -168 120 -168c31 0 60 9 80 24z" />
    <glyph glyph-name="afii10084" unicode="&#x442;" horiz-adv-x="459" 
d="M431 432h-133v-432h-137v432h-133v107h403v-107z" />
    <glyph glyph-name="afii10085" unicode="&#x443;" horiz-adv-x="559" 
d="M531 539c-17 -182 -94 -374 -169 -531l-107 -223h-142l107 215c-92 166 -174 352 -192 539h144c17 -153 58 -288 113 -418h2c48 128 85 263 100 418h144z" />
    <glyph glyph-name="afii10086" unicode="&#x444;" horiz-adv-x="798" 
d="M755 270c0 -156 -73 -278 -210 -278c-31 0 -61 8 -82 21v-228h-128v228c-21 -13 -51 -21 -82 -21c-137 0 -210 122 -210 278s73 278 210 278c31 0 61 -8 82 -21v258h128v-258c21 13 51 21 82 21c137 0 210 -122 210 -278zM627 270c0 95 -27 181 -107 181
c-22 0 -42 -6 -57 -15v-333c15 -9 35 -14 57 -14c80 0 107 86 107 181zM335 103v333c-15 9 -35 15 -57 15c-80 0 -107 -86 -107 -181s27 -181 107 -181c22 0 42 5 57 14z" />
    <glyph glyph-name="afii10087" unicode="&#x445;" horiz-adv-x="551" 
d="M544 0h-157l-111 187h-2l-110 -187h-157l184 279l-169 260h154l98 -172h2l99 172h153l-168 -260z" />
    <glyph glyph-name="afii10088" unicode="&#x446;" horiz-adv-x="586" 
d="M549 86l-7 -232h-95l-4 146h-382v539h136v-433h170v433h137v-433z" />
    <glyph glyph-name="afii10089" unicode="&#x447;" horiz-adv-x="563" 
d="M502 0h-136v200c-32 -15 -72 -26 -112 -26c-129 0 -197 65 -197 186v179h137v-164c0 -61 30 -92 95 -92c27 0 56 8 77 20v236h136v-539z" />
    <glyph glyph-name="afii10090" unicode="&#x448;" horiz-adv-x="852" 
d="M791 0h-730v539h136v-433h161v433h136v-433h161v433h136v-539z" />
    <glyph glyph-name="afii10091" unicode="&#x449;" horiz-adv-x="874" 
d="M837 86l-8 -232h-94l-5 146h-669v539h136v-433h161v433h136v-433h161v433h136v-433z" />
    <glyph glyph-name="afii10092" unicode="&#x44a;" horiz-adv-x="599" 
d="M562 167c0 -115 -86 -179 -240 -179c-68 0 -143 14 -192 39v406h-107v106h241v-201c16 4 45 8 67 8c150 0 231 -67 231 -179zM428 167c0 59 -34 92 -109 92c-18 0 -42 -3 -55 -7v-166c13 -6 37 -11 59 -11c70 0 105 30 105 92z" />
    <glyph glyph-name="afii10093" unicode="&#x44b;" horiz-adv-x="759" 
d="M699 0h-137v539h137v-539zM493 167c0 -115 -86 -179 -240 -179c-68 0 -143 14 -192 39v512h134v-201c16 4 45 8 67 8c150 0 231 -67 231 -179zM359 167c0 59 -34 92 -109 92c-18 0 -42 -3 -55 -7v-166c13 -6 36 -11 58 -11c70 0 106 30 106 92z" />
    <glyph glyph-name="afii10094" unicode="&#x44c;" horiz-adv-x="530" 
d="M493 167c0 -115 -86 -179 -240 -179c-68 0 -143 14 -192 39v512h134v-201c16 4 45 8 67 8c150 0 231 -67 231 -179zM359 167c0 59 -34 92 -109 92c-18 0 -42 -3 -55 -7v-166c13 -6 36 -11 58 -11c70 0 106 30 106 92z" />
    <glyph glyph-name="afii10095" unicode="&#x44d;" horiz-adv-x="519" 
d="M477 270c0 -186 -118 -282 -285 -282c-60 0 -123 15 -161 39l38 88c27 -17 73 -29 113 -29c80 0 145 43 157 142h-243v92h242c-15 94 -79 134 -156 134c-40 0 -86 -12 -113 -29l-38 87c37 24 101 39 161 39c167 0 285 -95 285 -281z" />
    <glyph glyph-name="afii10096" unicode="&#x44e;" horiz-adv-x="788" 
d="M745 270c0 -161 -76 -282 -229 -282c-136 0 -211 98 -225 234h-96v-222h-134v539h134v-214h96c16 132 91 226 225 226c153 0 229 -120 229 -281zM614 271c0 108 -32 175 -98 175s-99 -67 -99 -175s33 -175 99 -175s98 67 98 175z" />
    <glyph glyph-name="afii10097" unicode="&#x44f;" horiz-adv-x="558" 
d="M496 0h-133v209h-57c-38 0 -65 -20 -79 -54l-62 -155h-142l68 164c13 31 38 62 67 78v2c-57 18 -105 67 -105 137c0 105 87 170 238 170c73 0 155 -15 205 -39v-512zM363 291v163c-18 7 -44 11 -73 11c-70 0 -104 -33 -104 -89c0 -53 34 -85 104 -85h73z" />
    <glyph glyph-name="afii10071" unicode="&#x451;" horiz-adv-x="566" 
d="M455 671c0 -34 -30 -63 -67 -63s-66 29 -66 63s29 62 66 62s67 -28 67 -62zM252 671c0 -34 -30 -63 -67 -63s-67 29 -67 63s30 62 67 62s67 -28 67 -62zM524 306c0 -15 0 -30 -2 -46l-347 -47c12 -79 70 -118 149 -118c54 0 112 14 150 34l39 -102
c-45 -23 -121 -39 -199 -39c-178 0 -272 116 -272 282c0 165 93 281 250 281c149 0 232 -98 232 -245zM392 330c0 81 -40 122 -103 122c-71 0 -121 -52 -123 -153z" />
    <glyph glyph-name="afii10099" unicode="&#x452;" horiz-adv-x="574" 
d="M530 225c0 -185 -78 -338 -207 -411l-71 90c103 72 141 176 141 321c0 123 -36 216 -125 216c-25 0 -51 -8 -72 -20v-421h-134v620h-70v78h70v87h134v-87h159v-78h-159v-97c27 15 64 25 101 25c156 0 233 -125 233 -323z" />
    <glyph glyph-name="afii10100" unicode="&#x453;" horiz-adv-x="407" 
d="M381 433h-182v-433h-137v539h319v-106zM348 733l-107 -132h-94l70 132c20 21 50 30 76 30s49 -11 55 -30z" />
    <glyph glyph-name="afii10101" unicode="&#x454;" horiz-adv-x="519" 
d="M488 27c-38 -24 -101 -39 -161 -39c-167 0 -285 96 -285 282s118 281 285 281c60 0 124 -15 161 -39l-38 -87c-27 17 -73 29 -113 29c-77 0 -141 -40 -156 -134h242v-92h-243c12 -99 77 -142 157 -142c40 0 86 12 113 29z" />
    <glyph glyph-name="afii10102" unicode="&#x455;" horiz-adv-x="463" 
d="M424 155c0 -101 -75 -167 -219 -167c-67 0 -134 18 -174 39l44 104c27 -17 87 -35 126 -35c49 0 81 23 81 59c0 40 -35 57 -83 74c-68 25 -154 57 -154 163c0 95 72 159 198 159c69 0 125 -17 166 -39l-42 -93c-23 14 -71 31 -107 31c-48 0 -76 -24 -76 -56
c0 -41 35 -57 82 -74c71 -26 158 -56 158 -165z" />
    <glyph glyph-name="afii10103" unicode="&#x456;" horiz-adv-x="262" 
d="M199 0h-136v539h136v-539zM207 681c0 -39 -33 -72 -75 -72s-76 33 -76 72s34 71 76 71s75 -32 75 -71z" />
    <glyph glyph-name="afii10104" unicode="&#x457;" horiz-adv-x="262" 
d="M199 0h-136v539h136v-539zM299 671c0 -34 -29 -63 -66 -63s-67 29 -67 63s30 62 67 62s66 -28 66 -62zM96 671c0 -34 -29 -63 -66 -63s-67 29 -67 63s30 62 67 62s66 -28 66 -62z" />
    <glyph glyph-name="afii10105" unicode="&#x458;" horiz-adv-x="262" 
d="M199 68c0 -201 -114 -272 -246 -291v113c58 18 110 67 110 178v471h136v-471zM207 681c0 -39 -33 -72 -75 -72s-76 33 -76 72s34 71 76 71s75 -32 75 -71z" />
    <glyph glyph-name="afii10106" unicode="&#x459;" horiz-adv-x="859" 
d="M821 167c0 -134 -117 -179 -240 -179c-68 0 -143 14 -192 39v406h-105l-15 -115c-18 -135 -64 -289 -215 -335l-45 109c82 35 113 135 127 239l28 208h359v-201c16 4 45 8 67 8c150 0 231 -67 231 -179zM687 167c0 59 -34 92 -109 92c-18 0 -42 -3 -55 -7v-166
c13 -6 37 -11 59 -11c70 0 105 30 105 92z" />
    <glyph glyph-name="afii10107" unicode="&#x45a;" horiz-adv-x="832" 
d="M794 167c0 -115 -86 -179 -240 -179c-68 0 -143 14 -192 39v195h-167v-222h-134v539h134v-214h167v214h134v-201c16 4 45 8 67 8c150 0 231 -67 231 -179zM660 167c0 59 -34 92 -109 92c-18 0 -42 -3 -55 -7v-166c13 -6 37 -11 59 -11c70 0 105 30 105 92z" />
    <glyph glyph-name="afii10108" unicode="&#x45b;" horiz-adv-x="568" 
d="M507 0h-136v352c0 59 -35 89 -97 89c-27 0 -57 -8 -78 -20v-421h-134v620h-70v78h70v87h134v-87h159v-78h-159v-97c32 15 72 25 112 25c127 0 199 -64 199 -182v-366z" />
    <glyph glyph-name="afii10109" unicode="&#x45c;" horiz-adv-x="548" 
d="M538 0h-149l-76 164c-22 49 -62 88 -118 88v-252h-134v539h134v-237h2l177 237h156l-197 -240c53 -22 91 -64 118 -120zM413 733l-107 -132h-94l70 132c20 21 50 30 76 30s49 -11 55 -30z" />
    <glyph glyph-name="afii10110" unicode="&#x45e;" horiz-adv-x="559" 
d="M531 539c-17 -182 -94 -374 -169 -531l-107 -223h-142l107 215c-92 166 -174 352 -192 539h144c17 -153 58 -288 113 -418h2c48 128 85 263 100 418h144zM429 746c-5 -92 -55 -152 -149 -152s-145 60 -150 152l77 12c6 -54 27 -83 73 -83s66 29 72 83z" />
    <glyph glyph-name="afii10193" unicode="&#x45f;" horiz-adv-x="567" 
d="M506 0h-171l-4 -146h-95l-4 146h-171v539h136v-433h172v433h137v-539z" />
    <glyph glyph-name="afii10050" unicode="&#x490;" horiz-adv-x="493" 
d="M463 606h-256v-606h-139v724h285v130h110v-248z" />
    <glyph glyph-name="afii10098" unicode="&#x491;" horiz-adv-x="429" 
d="M402 433h-203v-433h-137v539h235v123h105v-229z" />
    <glyph glyph-name="afii10846" unicode="&#x4d9;" horiz-adv-x="566" 
d="M524 269c0 -165 -93 -281 -250 -281c-149 0 -232 98 -232 245c0 22 1 37 2 46l346 47c-12 79 -69 118 -148 118c-54 0 -112 -14 -150 -34l-39 102c45 23 121 39 199 39c178 0 272 -116 272 -282zM399 240l-225 -31c0 -81 40 -122 103 -122c71 0 120 52 122 153z" />
    <glyph glyph-name="Wgrave" unicode="&#x1e80;" horiz-adv-x="913" 
d="M890 724l-179 -724h-137l-99 420c-11 48 -18 103 -18 103h-2s-7 -55 -18 -103l-98 -420h-137l-179 724h142l94 -455c9 -43 16 -96 16 -96h2s6 53 16 96l105 455h117l105 -455c10 -43 16 -96 16 -96h2s7 53 16 96l94 455h142zM516 786h-93l-108 132c6 19 30 30 56 30
s55 -9 75 -30z" />
    <glyph glyph-name="wgrave" unicode="&#x1e81;" horiz-adv-x="843" 
d="M819 539l-157 -539h-141l-83 307c-10 37 -15 81 -15 81h-2s-6 -44 -16 -81l-83 -307h-141l-157 539h137l77 -330c9 -40 14 -88 14 -88h2s8 48 18 88l87 330h125l87 -330c10 -40 18 -88 18 -88h2s5 48 14 88l77 330h137zM472 601h-93l-108 132c6 19 30 30 56 30
s55 -9 75 -30z" />
    <glyph glyph-name="Wacute" unicode="&#x1e82;" horiz-adv-x="913" 
d="M890 724l-179 -724h-137l-99 420c-11 48 -18 103 -18 103h-2s-7 -55 -18 -103l-98 -420h-137l-179 724h142l94 -455c9 -43 16 -96 16 -96h2s6 53 16 96l105 455h117l105 -455c10 -43 16 -96 16 -96h2s7 53 16 96l94 455h142zM597 918l-107 -132h-94l70 132
c20 21 50 30 76 30s49 -11 55 -30z" />
    <glyph glyph-name="wacute" unicode="&#x1e83;" horiz-adv-x="843" 
d="M819 539l-157 -539h-141l-83 307c-10 37 -15 81 -15 81h-2s-6 -44 -16 -81l-83 -307h-141l-157 539h137l77 -330c9 -40 14 -88 14 -88h2s8 48 18 88l87 330h125l87 -330c10 -40 18 -88 18 -88h2s5 48 14 88l77 330h137zM564 733l-107 -132h-94l70 132c20 21 50 30 76 30
s49 -11 55 -30z" />
    <glyph glyph-name="Wdieresis" unicode="&#x1e84;" horiz-adv-x="913" 
d="M890 724l-179 -724h-137l-99 420c-11 48 -18 103 -18 103h-2s-7 -55 -18 -103l-98 -420h-137l-179 724h142l94 -455c9 -43 16 -96 16 -96h2s6 53 16 96l105 455h117l105 -455c10 -43 16 -96 16 -96h2s7 53 16 96l94 455h142zM625 856c0 -34 -30 -63 -67 -63
s-66 29 -66 63s29 62 66 62s67 -28 67 -62zM422 856c0 -34 -30 -63 -67 -63s-67 29 -67 63s30 62 67 62s67 -28 67 -62z" />
    <glyph glyph-name="wdieresis" unicode="&#x1e85;" horiz-adv-x="843" 
d="M819 539l-157 -539h-141l-83 307c-10 37 -15 81 -15 81h-2s-6 -44 -16 -81l-83 -307h-141l-157 539h137l77 -330c9 -40 14 -88 14 -88h2s8 48 18 88l87 330h125l87 -330c10 -40 18 -88 18 -88h2s5 48 14 88l77 330h137zM590 671c0 -34 -30 -63 -67 -63s-66 29 -66 63
s29 62 66 62s67 -28 67 -62zM387 671c0 -34 -30 -63 -67 -63s-67 29 -67 63s30 62 67 62s67 -28 67 -62z" />
    <glyph glyph-name="Ygrave" unicode="&#x1ef2;" horiz-adv-x="585" 
d="M578 724l-215 -440v-284h-141v284l-215 440h152l132 -298h2l133 298h152zM359 786h-93l-108 132c6 19 30 30 56 30s55 -9 75 -30z" />
    <glyph glyph-name="ygrave" unicode="&#x1ef3;" horiz-adv-x="577" 
d="M562 539l-282 -754h-143l81 215l-203 539h154l101 -339c12 -40 18 -85 18 -85h2s6 45 18 85l101 339h153zM358 601h-93l-108 132c6 19 30 30 56 30s55 -9 75 -30z" />
    <glyph glyph-name="endash" unicode="&#x2013;" horiz-adv-x="419" 
d="M423 272h-427v106h427v-106z" />
    <glyph glyph-name="emdash" unicode="&#x2014;" horiz-adv-x="838" 
d="M767 272h-696v106h696v-106z" />
    <glyph glyph-name="afii00208" unicode="&#x2015;" horiz-adv-x="838" 
d="M838 272h-838v106h838v-106z" />
    <glyph glyph-name="quoteleft" unicode="&#x2018;" horiz-adv-x="309" 
d="M272 785l-93 -284c-18 -27 -46 -48 -83 -48s-56 24 -59 48l143 284h92z" />
    <glyph glyph-name="quoteright" unicode="&#x2019;" horiz-adv-x="309" 
d="M272 744l-143 -284h-92l93 284c18 27 45 48 82 48s57 -24 60 -48z" />
    <glyph glyph-name="quotesinglbase" unicode="&#x201a;" horiz-adv-x="309" 
d="M272 115l-143 -284h-92l93 284c18 27 45 48 82 48s57 -24 60 -48z" />
    <glyph glyph-name="quotedblleft" unicode="&#x201c;" horiz-adv-x="528" 
d="M491 785l-93 -284c-18 -27 -45 -48 -82 -48s-57 24 -60 48l143 284h92zM272 785l-93 -284c-18 -27 -46 -48 -83 -48s-56 24 -59 48l143 284h92z" />
    <glyph glyph-name="quotedblright" unicode="&#x201d;" horiz-adv-x="528" 
d="M491 744l-143 -284h-92l93 284c18 27 45 48 82 48s57 -24 60 -48zM272 744l-143 -284h-92l93 284c18 27 45 48 82 48s57 -24 60 -48z" />
    <glyph glyph-name="quotedblbase" unicode="&#x201e;" horiz-adv-x="528" 
d="M491 115l-143 -284h-92l93 284c18 27 45 48 82 48s57 -24 60 -48zM272 115l-143 -284h-92l93 284c18 27 45 48 82 48s57 -24 60 -48z" />
    <glyph glyph-name="dagger" unicode="&#x2020;" horiz-adv-x="654" 
d="M601 413h-206v-628h-137v628h-205v126h205v246h137v-246h206v-126z" />
    <glyph glyph-name="daggerdbl" unicode="&#x2021;" horiz-adv-x="654" 
d="M601 93h-206v-308h-137v308h-205v126h205v194h-205v126h205v246h137v-246h206v-126h-206v-194h206v-126z" />
    <glyph glyph-name="bullet" unicode="&#x2022;" horiz-adv-x="414" 
d="M349 325c0 -79 -63 -142 -142 -142s-142 63 -142 142s63 142 142 142s142 -63 142 -142z" />
    <glyph glyph-name="ellipsis" unicode="&#x2026;" horiz-adv-x="814" 
d="M493 77c0 -47 -39 -86 -86 -86s-86 39 -86 86s39 86 86 86s86 -39 86 -86zM222 77c0 -47 -39 -86 -86 -86s-86 39 -86 86s39 86 86 86s86 -39 86 -86zM764 77c0 -47 -39 -86 -86 -86s-86 39 -86 86s39 86 86 86s86 -39 86 -86z" />
    <glyph glyph-name="perthousand" unicode="&#x2030;" horiz-adv-x="1320" 
d="M1267 190c0 -122 -65 -202 -168 -202s-168 80 -168 202s65 202 168 202s168 -80 168 -202zM872 190c0 -122 -65 -202 -168 -202s-168 80 -168 202s65 202 168 202s168 -80 168 -202zM637 710l-266 -722l-84 26l267 722zM389 534c0 -122 -65 -202 -168 -202
s-168 80 -168 202s65 202 168 202s168 -80 168 -202zM1166 191c0 71 -24 116 -67 116s-67 -45 -67 -116s24 -115 67 -115s67 44 67 115zM771 191c0 71 -24 116 -67 116s-67 -45 -67 -116s24 -115 67 -115s67 44 67 115zM289 535c0 71 -25 116 -68 116s-67 -45 -67 -116
s24 -115 67 -115s68 44 68 115z" />
    <glyph glyph-name="guilsinglleft" unicode="&#x2039;" horiz-adv-x="366" 
d="M311 112l-80 -60l-188 253l188 253l80 -60l-144 -193z" />
    <glyph glyph-name="guilsinglright" unicode="&#x203a;" horiz-adv-x="366" 
d="M323 305l-188 -253l-79 60l143 193l-143 193l79 60z" />
    <glyph glyph-name="fraction" unicode="&#x2044;" horiz-adv-x="153" 
d="M301 704l-382 -720l-67 36l382 720z" />
    <glyph glyph-name="uni2070" unicode="&#x2070;" 
d="M337 712c0 -126 -48 -220 -153 -220s-153 94 -153 220s48 220 153 220s153 -94 153 -220zM250 713c0 92 -19 151 -66 151s-66 -59 -66 -151s19 -152 66 -152s66 60 66 152z" />
    <glyph glyph-name="uni2074" unicode="&#x2074;" 
d="M339 604h-43v-104h-79v104h-191v61l178 259h92v-259h43v-61zM222 850h-2s-11 -25 -25 -46l-95 -139h120v132c0 25 2 53 2 53z" />
    <glyph glyph-name="uni2075" unicode="&#x2075;" 
d="M326 630c0 -91 -74 -138 -172 -138c-44 0 -90 9 -127 24l28 66c26 -11 66 -18 97 -18c54 0 87 24 87 63c0 41 -32 70 -116 70c-20 0 -42 -2 -68 -5l27 232h235v-71h-161l-11 -92h9c113 0 172 -49 172 -131z" />
    <glyph glyph-name="uni2076" unicode="&#x2076;" 
d="M338 631c0 -78 -61 -139 -151 -139c-107 0 -155 77 -155 166c0 143 107 243 248 274l22 -71c-79 -18 -137 -54 -166 -110c17 5 38 9 55 9c90 0 147 -50 147 -129zM254 631c0 45 -31 70 -76 70c-20 0 -42 -5 -60 -12c-2 -10 -3 -20 -3 -31c0 -57 26 -97 72 -97
c41 0 67 33 67 70z" />
    <glyph glyph-name="uni2077" unicode="&#x2077;" 
d="M345 924l-184 -424h-96l163 353h-197v71h314z" />
    <glyph glyph-name="uni2078" unicode="&#x2078;" 
d="M338 607c0 -71 -65 -115 -154 -115s-154 41 -154 115c0 59 40 90 84 112c-39 21 -73 49 -73 100c0 70 60 113 143 113c81 0 143 -46 143 -113c0 -51 -34 -79 -73 -100c44 -22 84 -53 84 -112zM246 819c0 29 -22 53 -62 53s-62 -24 -62 -53c0 -34 27 -53 62 -69
c35 16 62 35 62 69zM254 610c0 38 -31 59 -70 77c-39 -18 -70 -39 -70 -77c0 -33 29 -55 70 -55s70 22 70 55z" />
    <glyph glyph-name="uni2079" unicode="&#x2079;" 
d="M336 766c0 -143 -107 -243 -248 -274l-22 71c79 18 137 54 166 110c-17 -5 -38 -9 -55 -9c-90 0 -147 50 -147 129c0 78 61 139 151 139c107 0 155 -77 155 -166zM253 767c0 57 -26 97 -72 97c-41 0 -67 -33 -67 -70c0 -45 31 -70 76 -70c20 0 42 4 60 11c2 10 3 21 3 32
z" />
    <glyph glyph-name="uni207A" unicode="&#x207a;" 
d="M317 681h-97v-99h-72v99h-97v67h97v99h72v-99h97v-67z" />
    <glyph glyph-name="uni207B" unicode="&#x207b;" 
d="M317 681h-266v67h266v-67z" />
    <glyph glyph-name="uni207C" unicode="&#x207c;" 
d="M317 746h-266v68h266v-68zM317 616h-266v67h266v-67z" />
    <glyph glyph-name="uni207D" unicode="&#x207d;" horiz-adv-x="266" 
d="M245 436l-65 -35c-79 84 -131 188 -131 311s52 227 131 311l65 -35c-59 -74 -101 -166 -101 -276s42 -202 101 -276z" />
    <glyph glyph-name="uni207E" unicode="&#x207e;" horiz-adv-x="266" 
d="M217 712c0 -123 -52 -227 -131 -311l-65 35c59 74 102 166 102 276s-43 202 -102 276l65 35c79 -84 131 -188 131 -311z" />
    <glyph glyph-name="uni207F" unicode="&#x207f;" horiz-adv-x="414" 
d="M363 500h-86v259c0 43 -25 66 -75 66c-26 0 -48 -5 -64 -11v-314h-87v363c39 18 93 31 150 31c111 0 162 -46 162 -136v-258z" />
    <glyph glyph-name="uni2080" unicode="&#x2080;" 
d="M337 -3c0 -126 -48 -220 -153 -220s-153 94 -153 220s48 220 153 220s153 -94 153 -220zM250 -2c0 92 -19 151 -66 151s-66 -59 -66 -151s19 -152 66 -152s66 60 66 152z" />
    <glyph glyph-name="uni2081" unicode="&#x2081;" 
d="M275 -215h-87v328c-27 -15 -78 -29 -115 -34l-14 66c55 9 119 33 148 64h68v-424z" />
    <glyph glyph-name="uni2082" unicode="&#x2082;" 
d="M328 -215h-316l185 227c18 22 33 44 33 70c0 37 -26 64 -76 64c-30 0 -68 -7 -96 -19l-23 66c37 15 83 24 125 24c104 0 159 -52 159 -131c0 -46 -28 -84 -53 -112l-107 -118h169v-71z" />
    <glyph glyph-name="uni2083" unicode="&#x2083;" 
d="M323 -93c0 -78 -62 -130 -167 -130c-46 0 -94 9 -131 24l27 66c27 -11 66 -18 104 -18c52 0 80 22 80 58c0 40 -48 65 -119 65h-9v63c75 4 114 30 114 64c0 30 -23 47 -67 47c-30 0 -67 -7 -95 -19l-25 66c39 15 86 24 132 24c95 0 142 -44 142 -112
c0 -41 -31 -73 -68 -90v-2c43 -16 82 -50 82 -106z" />
    <glyph glyph-name="uni2084" unicode="&#x2084;" 
d="M339 -111h-43v-104h-79v104h-191v61l178 259h92v-259h43v-61zM222 135h-2s-11 -25 -25 -46l-95 -139h120v132c0 25 2 53 2 53z" />
    <glyph glyph-name="uni2085" unicode="&#x2085;" 
d="M326 -85c0 -91 -74 -138 -172 -138c-44 0 -90 9 -127 24l28 66c26 -11 66 -18 97 -18c54 0 87 24 87 63c0 41 -32 70 -116 70c-20 0 -42 -2 -68 -5l27 232h235v-71h-161l-11 -92h9c113 0 172 -49 172 -131z" />
    <glyph glyph-name="uni2086" unicode="&#x2086;" 
d="M338 -84c0 -78 -61 -139 -151 -139c-107 0 -155 77 -155 166c0 143 107 243 248 274l22 -71c-79 -18 -137 -54 -166 -110c17 5 38 9 55 9c90 0 147 -50 147 -129zM254 -84c0 45 -31 70 -76 70c-20 0 -42 -5 -60 -12c-2 -10 -3 -20 -3 -31c0 -57 26 -97 72 -97
c41 0 67 33 67 70z" />
    <glyph glyph-name="uni2087" unicode="&#x2087;" 
d="M345 209l-184 -424h-96l163 353h-197v71h314z" />
    <glyph glyph-name="uni2088" unicode="&#x2088;" 
d="M338 -108c0 -71 -65 -115 -154 -115s-154 41 -154 115c0 59 40 90 84 112c-39 21 -73 49 -73 100c0 70 60 113 143 113c81 0 143 -46 143 -113c0 -51 -34 -79 -73 -100c44 -22 84 -53 84 -112zM246 104c0 29 -22 53 -62 53s-62 -24 -62 -53c0 -34 27 -53 62 -69
c35 16 62 35 62 69zM254 -105c0 38 -31 59 -70 77c-39 -18 -70 -39 -70 -77c0 -33 29 -55 70 -55s70 22 70 55z" />
    <glyph glyph-name="uni2089" unicode="&#x2089;" 
d="M336 51c0 -143 -107 -243 -248 -274l-22 71c79 18 137 54 166 110c-17 -5 -38 -9 -55 -9c-90 0 -147 50 -147 129c0 78 61 139 151 139c107 0 155 -77 155 -166zM253 52c0 57 -26 97 -72 97c-41 0 -67 -33 -67 -70c0 -45 31 -70 76 -70c20 0 42 4 60 11c2 10 3 21 3 32z
" />
    <glyph glyph-name="uni208A" unicode="&#x208a;" 
d="M317 -34h-97v-99h-72v99h-97v67h97v99h72v-99h97v-67z" />
    <glyph glyph-name="uni208B" unicode="&#x208b;" 
d="M317 -34h-266v67h266v-67z" />
    <glyph glyph-name="uni208C" unicode="&#x208c;" 
d="M317 31h-266v68h266v-68zM317 -99h-266v67h266v-67z" />
    <glyph glyph-name="uni208D" unicode="&#x208d;" horiz-adv-x="266" 
d="M245 -279l-65 -35c-79 84 -131 188 -131 311s52 227 131 311l65 -35c-59 -74 -101 -166 -101 -276s42 -202 101 -276z" />
    <glyph glyph-name="uni208E" unicode="&#x208e;" horiz-adv-x="266" 
d="M217 -3c0 -123 -52 -227 -131 -311l-65 35c59 74 102 166 102 276s-43 202 -102 276l65 35c79 -84 131 -188 131 -311z" />
    <glyph glyph-name="Euro" unicode="&#x20ac;" horiz-adv-x="688" 
d="M652 27c-39 -23 -100 -39 -176 -39c-154 0 -279 87 -317 258h-106v70h95c-1 15 -2 30 -2 46c0 18 1 34 3 50h-96v70h106c39 168 164 254 317 254c73 0 137 -16 176 -39l-48 -102c-30 17 -77 28 -123 28c-83 0 -155 -44 -184 -141h253v-70h-268c-2 -15 -2 -32 -2 -49
s1 -32 2 -47h268v-70h-253c28 -99 101 -142 184 -142c46 0 93 10 123 27z" />
    <glyph glyph-name="afii61289" unicode="&#x2113;" horiz-adv-x="336" 
d="M301 7c-16 -8 -49 -15 -82 -15c-104 0 -156 57 -156 170v623h136v-614c0 -44 28 -59 63 -59c14 0 30 4 39 8v-113z" />
    <glyph glyph-name="afii61352" unicode="&#x2116;" horiz-adv-x="1086" 
d="M1039 550c0 -106 -62 -187 -173 -187s-173 81 -173 187s62 185 173 185s173 -79 173 -185zM1028 215h-325v80h325v-80zM605 0h-116l-259 429c-24 40 -43 85 -43 85h-2s2 -49 2 -94v-420h-120v724h121l253 -418c23 -39 43 -85 43 -85h2s-2 51 -2 97v406h121v-724zM939 550
c0 70 -25 111 -73 111s-74 -41 -74 -111s26 -111 74 -111s73 41 73 111z" />
    <glyph glyph-name="uni2117" unicode="&#x2117;" horiz-adv-x="860" 
d="M810 362c0 -210 -161 -374 -380 -374s-380 164 -380 374s161 374 380 374s380 -164 380 -374zM724 362c0 167 -123 297 -294 297s-294 -130 -294 -297s123 -297 294 -297s294 130 294 297zM599 443c0 -74 -59 -128 -171 -128c-13 0 -28 1 -38 2v-154h-84v387
c33 14 77 23 126 23c108 0 167 -51 167 -130zM514 443c0 45 -28 67 -82 67c-15 0 -31 -2 -42 -7v-123c8 -1 22 -2 35 -2c59 0 89 24 89 65z" />
    <glyph glyph-name="trademark" unicode="&#x2122;" horiz-adv-x="946" 
d="M891 294h-88l-31 270c-3 27 -4 58 -4 58h-2s-7 -31 -15 -58l-84 -270h-69l-84 270c-8 27 -15 58 -15 58h-2s-1 -31 -4 -58l-31 -270h-88l56 430h112l77 -248c8 -25 13 -54 13 -54h2s5 29 13 54l76 248h112zM353 644h-104v-350h-98v350h-104v80h306v-80z" />
    <glyph glyph-name="uni2126" unicode="&#x2126;" horiz-adv-x="672" 
d="M632 0h-251v100c69 84 100 197 100 299c0 115 -46 212 -145 212s-144 -97 -144 -212c0 -102 31 -215 100 -299v-100h-252v109h126c-78 91 -116 201 -116 311c0 166 92 316 286 316s286 -150 286 -316c0 -110 -37 -220 -115 -311h125v-109z" />
    <glyph glyph-name="estimated" unicode="&#x212e;" horiz-adv-x="932" 
d="M862 347h-632v-241c57 -48 135 -79 236 -79c131 0 225 51 285 129l33 -28c-68 -85 -173 -141 -318 -141c-264 0 -396 187 -396 374s132 376 396 376s396 -188 396 -375v-15zM702 387v231c-57 48 -135 79 -236 79s-179 -31 -236 -79v-231h472z" />
    <glyph glyph-name="onethird" unicode="&#x2153;" horiz-adv-x="858" 
d="M626 704l-381 -720l-68 36l382 720zM237 300h-87v328c-27 -15 -77 -29 -114 -34l-15 66c55 9 119 33 148 64h68v-424zM813 122c0 -78 -62 -130 -167 -130c-46 0 -94 9 -131 24l27 66c27 -11 66 -18 104 -18c52 0 80 22 80 58c0 40 -48 65 -119 65h-9v63
c75 4 114 30 114 64c0 30 -23 47 -67 47c-30 0 -67 -7 -95 -19l-25 66c39 15 86 24 132 24c95 0 142 -44 142 -112c0 -41 -31 -73 -68 -90v-2c43 -16 82 -50 82 -106z" />
    <glyph glyph-name="twothirds" unicode="&#x2154;" horiz-adv-x="858" 
d="M659 704l-382 -720l-67 36l382 720zM325 300h-312l186 227c18 22 33 44 33 70c0 37 -27 64 -77 64c-30 0 -67 -7 -95 -19l-24 66c37 15 84 24 126 24c104 0 159 -52 159 -131c0 -46 -29 -84 -54 -112l-107 -118h165v-71zM824 122c0 -78 -62 -130 -167 -130
c-46 0 -94 9 -131 24l27 66c27 -11 66 -18 104 -18c52 0 80 22 80 58c0 40 -48 65 -119 65h-9v63c75 4 114 30 114 64c0 30 -23 47 -67 47c-30 0 -67 -7 -95 -19l-25 66c39 15 86 24 132 24c95 0 142 -44 142 -112c0 -41 -31 -73 -68 -90v-2c43 -16 82 -50 82 -106z" />
    <glyph glyph-name="uni2155" unicode="&#x2155;" horiz-adv-x="858" 
d="M815 130c0 -91 -74 -138 -172 -138c-44 0 -90 9 -127 24l28 66c26 -11 66 -18 97 -18c54 0 87 24 87 63c0 41 -32 70 -116 70c-20 0 -42 -2 -68 -5l27 232h235v-71h-161l-11 -92h9c113 0 172 -49 172 -131zM627 704l-381 -720l-67 36l381 720zM237 300h-87v328
c-27 -15 -77 -29 -114 -34l-15 66c55 9 119 33 148 64h68v-424z" />
    <glyph glyph-name="uni2156" unicode="&#x2156;" horiz-adv-x="858" 
d="M824 130c0 -91 -74 -138 -172 -138c-44 0 -90 9 -127 24l28 66c26 -11 66 -18 97 -18c54 0 87 24 87 63c0 41 -32 70 -116 70c-20 0 -42 -2 -68 -5l27 232h235v-71h-161l-11 -92h9c113 0 172 -49 172 -131zM673 704l-381 -720l-68 36l382 720zM325 300h-312l186 227
c18 22 33 44 33 70c0 37 -27 64 -77 64c-30 0 -67 -7 -95 -19l-24 66c37 15 84 24 126 24c104 0 159 -52 159 -131c0 -46 -29 -84 -54 -112l-107 -118h165v-71z" />
    <glyph glyph-name="uni2157" unicode="&#x2157;" horiz-adv-x="858" 
d="M815 130c0 -91 -74 -138 -172 -138c-44 0 -90 9 -127 24l28 66c26 -11 66 -18 97 -18c54 0 87 24 87 63c0 41 -32 70 -116 70c-20 0 -42 -2 -68 -5l27 232h235v-71h-161l-11 -92h9c113 0 172 -49 172 -131zM650 704l-382 -720l-67 36l382 720zM323 422
c0 -78 -62 -130 -167 -130c-46 0 -94 9 -131 24l27 66c27 -11 66 -18 104 -18c52 0 80 22 80 58c0 40 -48 65 -119 65h-9v63c75 4 114 30 114 64c0 30 -23 47 -67 47c-30 0 -67 -7 -95 -19l-25 66c39 15 86 24 132 24c95 0 142 -44 142 -112c0 -41 -31 -73 -68 -90v-2
c43 -16 82 -50 82 -106z" />
    <glyph glyph-name="uni2158" unicode="&#x2158;" horiz-adv-x="858" 
d="M815 130c0 -91 -74 -138 -172 -138c-44 0 -90 9 -127 24l28 66c26 -11 66 -18 97 -18c54 0 87 24 87 63c0 41 -32 70 -116 70c-20 0 -42 -2 -68 -5l27 232h235v-71h-161l-11 -92h9c113 0 172 -49 172 -131zM659 704l-381 -720l-68 36l382 720zM339 404h-43v-104h-79v104
h-191v61l178 259h92v-259h43v-61zM222 650h-2s-11 -25 -25 -46l-95 -139h120v132c0 25 2 53 2 53z" />
    <glyph glyph-name="uni2159" unicode="&#x2159;" horiz-adv-x="858" 
d="M812 131c0 -78 -61 -139 -151 -139c-107 0 -155 77 -155 166c0 143 108 243 249 274l22 -71c-79 -18 -138 -54 -167 -110c17 5 38 9 55 9c90 0 147 -50 147 -129zM637 704l-381 -720l-68 36l382 720zM237 300h-87v328c-27 -15 -77 -29 -114 -34l-15 66
c55 9 119 33 148 64h68v-424zM728 131c0 45 -31 70 -76 70c-20 0 -42 -5 -60 -12c-2 -10 -3 -20 -3 -31c0 -57 26 -97 72 -97c41 0 67 33 67 70z" />
    <glyph glyph-name="uni215A" unicode="&#x215a;" horiz-adv-x="858" 
d="M812 131c0 -78 -61 -139 -151 -139c-107 0 -155 77 -155 166c0 143 108 243 249 274l22 -71c-79 -18 -138 -54 -167 -110c17 5 38 9 55 9c90 0 147 -50 147 -129zM664 704l-382 -720l-67 36l382 720zM329 430c0 -91 -74 -138 -172 -138c-44 0 -90 9 -127 24l28 66
c26 -11 66 -18 97 -18c54 0 87 24 87 63c0 41 -32 70 -116 70c-20 0 -42 -2 -68 -5l27 232h235v-71h-161l-11 -92h9c113 0 172 -49 172 -131zM728 131c0 45 -31 70 -76 70c-20 0 -42 -5 -60 -12c-2 -10 -3 -20 -3 -31c0 -57 26 -97 72 -97c41 0 67 33 67 70z" />
    <glyph glyph-name="oneeighth" unicode="&#x215b;" horiz-adv-x="858" 
d="M815 107c0 -71 -65 -115 -154 -115s-154 41 -154 115c0 59 40 90 84 112c-39 21 -73 49 -73 100c0 70 60 113 143 113c81 0 143 -46 143 -113c0 -51 -34 -79 -73 -100c44 -22 84 -53 84 -112zM622 704l-382 -720l-67 36l381 720zM237 300h-87v328
c-27 -15 -77 -29 -114 -34l-15 66c55 9 119 33 148 64h68v-424zM723 319c0 29 -22 53 -62 53s-62 -24 -62 -53c0 -34 27 -52 62 -68c35 16 62 34 62 68zM731 110c0 38 -31 58 -70 76c-39 -18 -69 -38 -69 -76c0 -33 28 -55 69 -55s70 22 70 55z" />
    <glyph glyph-name="threeeighths" unicode="&#x215c;" horiz-adv-x="858" 
d="M815 107c0 -71 -65 -115 -154 -115s-154 41 -154 115c0 59 40 90 84 112c-39 21 -73 49 -73 100c0 70 60 113 143 113c81 0 143 -46 143 -113c0 -51 -34 -79 -73 -100c44 -22 84 -53 84 -112zM642 704l-381 -720l-68 36l382 720zM723 319c0 29 -22 53 -62 53
s-62 -24 -62 -53c0 -34 27 -52 62 -68c35 16 62 34 62 68zM731 110c0 38 -31 58 -70 76c-39 -18 -69 -38 -69 -76c0 -33 28 -55 69 -55s70 22 70 55zM323 422c0 -78 -62 -130 -167 -130c-46 0 -94 9 -131 24l27 66c27 -11 66 -18 104 -18c52 0 80 22 80 58
c0 40 -48 65 -119 65h-9v63c75 4 114 30 114 64c0 30 -23 47 -67 47c-30 0 -67 -7 -95 -19l-25 66c39 15 86 24 132 24c95 0 142 -44 142 -112c0 -41 -31 -73 -68 -90v-2c43 -16 82 -50 82 -106z" />
    <glyph glyph-name="fiveeighths" unicode="&#x215d;" horiz-adv-x="858" 
d="M815 107c0 -71 -65 -115 -154 -115s-154 41 -154 115c0 59 40 90 84 112c-39 21 -73 49 -73 100c0 70 60 113 143 113c81 0 143 -46 143 -113c0 -51 -34 -79 -73 -100c44 -22 84 -53 84 -112zM643 704l-382 -720l-67 36l382 720zM325 430c0 -91 -74 -138 -172 -138
c-44 0 -90 9 -127 24l28 66c26 -11 66 -18 97 -18c54 0 87 24 87 63c0 41 -32 70 -116 70c-20 0 -42 -2 -68 -5l27 232h235v-71h-161l-11 -92h9c113 0 172 -49 172 -131zM723 319c0 29 -22 53 -62 53s-62 -24 -62 -53c0 -34 27 -52 62 -68c35 16 62 34 62 68zM731 110
c0 38 -31 58 -70 76c-39 -18 -69 -38 -69 -76c0 -33 28 -55 69 -55s70 22 70 55z" />
    <glyph glyph-name="seveneighths" unicode="&#x215e;" horiz-adv-x="858" 
d="M815 107c0 -71 -65 -115 -154 -115s-154 41 -154 115c0 59 40 90 84 112c-39 21 -73 49 -73 100c0 70 60 113 143 113c81 0 143 -46 143 -113c0 -51 -34 -79 -73 -100c44 -22 84 -53 84 -112zM615 704l-381 -720l-68 36l382 720zM365 724l-181 -424h-96l160 353h-194v71
h311zM723 319c0 29 -22 53 -62 53s-62 -24 -62 -53c0 -34 27 -52 62 -68c35 16 62 34 62 68zM731 110c0 38 -31 58 -70 76c-39 -18 -69 -38 -69 -76c0 -33 28 -55 69 -55s70 22 70 55z" />
    <glyph glyph-name="uni215F" unicode="&#x215f;" horiz-adv-x="503" 
d="M651 704l-381 -720l-68 36l382 720zM237 300h-87v328c-27 -15 -77 -29 -114 -34l-15 66c55 9 119 33 148 64h68v-424z" />
    <glyph glyph-name="arrowleft" unicode="&#x2190;" horiz-adv-x="993" 
d="M997 272h-706l159 -143l-80 -81l-277 277l277 277l80 -81l-159 -143h706v-106z" />
    <glyph glyph-name="arrowup" unicode="&#x2191;" horiz-adv-x="744" 
d="M649 520l-80 -80l-137 150v-590h-119v590l-137 -150l-81 80l277 277z" />
    <glyph glyph-name="arrowright" unicode="&#x2192;" horiz-adv-x="993" 
d="M900 325l-277 -277l-81 81l160 143h-706v106h706l-160 143l81 81z" />
    <glyph glyph-name="arrowdown" unicode="&#x2193;" horiz-adv-x="744" 
d="M649 265l-277 -277l-277 277l81 80l137 -150v590h119v-590l137 150z" />
    <glyph glyph-name="arrowboth" unicode="&#x2194;" horiz-adv-x="1386" 
d="M1293 325l-277 -277l-81 81l159 143h-803l159 -143l-80 -81l-277 277l277 277l80 -81l-159 -143h803l-159 143l81 81z" />
    <glyph glyph-name="uni2196" unicode="&#x2196;" horiz-adv-x="774" 
d="M693 283l-80 -80l-394 394l9 -204h-118v392h392v-110l-212 10z" />
    <glyph glyph-name="uni2197" unicode="&#x2197;" horiz-adv-x="774" 
d="M664 393h-118l10 204l-395 -394l-80 80l403 402l-211 -10v110h391v-392z" />
    <glyph glyph-name="uni2198" unicode="&#x2198;" horiz-adv-x="774" 
d="M664 -215h-391v110l211 -10l-403 402l80 80l395 -394l-10 204h118v-392z" />
    <glyph glyph-name="uni2199" unicode="&#x2199;" horiz-adv-x="774" 
d="M693 287l-403 -402l212 10v-110h-392v392h118l-9 -204l394 394z" />
    <glyph glyph-name="carriagereturn" unicode="&#x21b5;" horiz-adv-x="950" 
d="M861 0h-610l160 -144l-81 -80l-277 277l277 277l81 -81l-160 -143h495v236h-136v106h251v-448z" />
    <glyph glyph-name="uni21E6" unicode="&#x21e6;" horiz-adv-x="970" 
d="M881 185h-367v-185h-99l-362 362l362 362h99v-185h367v-354zM775 276v172h-359v136l-222 -222l222 -222v136h359z" />
    <glyph glyph-name="uni21E7" unicode="&#x21e7;" horiz-adv-x="870" 
d="M797 342h-168v-342h-388v342h-168v91l362 362l362 -362v-91zM655 433l-220 221l-220 -221h129v-339h182v339h129z" />
    <glyph glyph-name="uni21E8" unicode="&#x21e8;" horiz-adv-x="970" 
d="M917 362l-362 -362h-99v185h-367v354h367v185h99zM776 362l-222 222v-136h-359v-172h359v-136z" />
    <glyph glyph-name="uni21E9" unicode="&#x21e9;" horiz-adv-x="870" 
d="M797 291l-362 -362l-362 362v91h168v342h388v-342h168v-91zM655 291h-129v339h-182v-339h-129l220 -221z" />
    <glyph glyph-name="partialdiff" unicode="&#x2202;" horiz-adv-x="572" 
d="M530 275c0 -155 -91 -287 -263 -287c-149 0 -226 104 -226 223c0 134 98 251 250 251c19 0 38 -2 56 -6c-44 75 -118 136 -228 174l46 107c245 -80 365 -290 365 -462zM395 275c0 30 -4 60 -11 89c-20 6 -42 8 -67 8c-80 0 -139 -66 -139 -158c0 -60 30 -118 96 -118
c76 0 121 81 121 179z" />
    <glyph glyph-name="uni2206" unicode="&#x2206;" horiz-adv-x="664" 
d="M657 0h-650l242 724h166zM481 108l-129 412c-13 41 -19 86 -19 86h-2s-6 -45 -19 -86l-129 -412h298z" />
    <glyph glyph-name="product" unicode="&#x220f;" horiz-adv-x="808" 
d="M761 606h-105v-821h-141v821h-222v-821h-141v821h-105v118h714v-118z" />
    <glyph glyph-name="summation" unicode="&#x2211;" horiz-adv-x="559" 
d="M521 -215h-510v92l255 403l-229 352v92h484v-118h-321l216 -326l-243 -377h348v-118z" />
    <glyph glyph-name="minus" unicode="&#x2212;" horiz-adv-x="548" 
d="M487 272h-426v106h426v-106z" />
    <glyph glyph-name="uni2215" unicode="&#x2215;" horiz-adv-x="148" 
d="M312 697l-380 -717l-88 47l380 717z" />
    <glyph glyph-name="uni2219" unicode="&#x2219;" horiz-adv-x="272" 
d="M222 325c0 -47 -39 -86 -86 -86s-86 39 -86 86s39 86 86 86s86 -39 86 -86z" />
    <glyph glyph-name="radical" unicode="&#x221a;" horiz-adv-x="783" 
d="M732 785l-306 -1000h-143l-168 487h-91v106h193l112 -348c14 -43 22 -96 22 -96h2s7 53 19 96l208 755h152z" />
    <glyph glyph-name="infinity" unicode="&#x221e;" horiz-adv-x="947" 
d="M897 325c0 -137 -86 -235 -217 -235c-107 0 -159 60 -207 136c-48 -76 -99 -136 -206 -136c-131 0 -217 98 -217 235s86 235 217 235c107 0 158 -60 206 -136c48 76 100 136 207 136c131 0 217 -98 217 -235zM777 325c0 74 -44 122 -104 122c-69 0 -101 -52 -139 -122
c38 -70 70 -122 139 -122c60 0 104 48 104 122zM413 325c-38 70 -70 122 -139 122c-60 0 -104 -48 -104 -122s44 -122 104 -122c69 0 101 52 139 122z" />
    <glyph glyph-name="uni2224" unicode="&#x2224;" horiz-adv-x="272" 
d="M222 325c0 -47 -39 -86 -86 -86s-86 39 -86 86s39 86 86 86s86 -39 86 -86z" />
    <glyph glyph-name="logicaland" unicode="&#x2227;" horiz-adv-x="272" 
d="M222 325c0 -47 -39 -86 -86 -86s-86 39 -86 86s39 86 86 86s86 -39 86 -86z" />
    <glyph glyph-name="integral" unicode="&#x222b;" horiz-adv-x="425" 
d="M424 775l-34 -105c-10 5 -23 7 -34 7c-44 0 -74 -29 -74 -85v-614c0 -127 -72 -200 -192 -200c-33 0 -67 7 -89 17l34 105c10 -5 23 -7 34 -7c44 0 74 29 74 85v614c0 127 72 200 192 200c33 0 67 -7 89 -17z" />
    <glyph glyph-name="approxequal" unicode="&#x2248;" horiz-adv-x="548" 
d="M496 434c-24 -49 -75 -81 -127 -81c-72 0 -116 58 -183 58c-39 0 -71 -20 -91 -51l-42 76c24 49 75 81 127 81c72 0 115 -58 182 -58c39 0 71 21 91 52zM496 213c-24 -49 -75 -81 -127 -81c-72 0 -116 58 -183 58c-39 0 -71 -20 -91 -51l-42 77c24 49 75 80 127 80
c72 0 115 -58 182 -58c39 0 71 21 91 52z" />
    <glyph glyph-name="notequal" unicode="&#x2260;" horiz-adv-x="548" 
d="M487 162h-248l-57 -121l-65 31l43 90h-99v105h147l55 116h-202v105h250l53 114l66 -31l-40 -83h97v-105h-145l-55 -116h200v-105z" />
    <glyph glyph-name="lessequal" unicode="&#x2264;" horiz-adv-x="548" 
d="M487 167l-426 170v83l426 170v-104l-303 -108l303 -106v-105zM487 0h-426v96h426v-96z" />
    <glyph glyph-name="greaterequal" unicode="&#x2265;" horiz-adv-x="548" 
d="M487 337l-426 -170v105l303 106l-303 108v104l426 -170v-83zM487 0h-426v96h426v-96z" />
    <glyph glyph-name="dotmath" unicode="&#x22c5;" horiz-adv-x="272" 
d="M222 325c0 -47 -39 -86 -86 -86s-86 39 -86 86s39 86 86 86s86 -39 86 -86z" />
    <glyph glyph-name="uni2300" unicode="&#x2300;" horiz-adv-x="931" 
d="M874 689l-105 -105c47 -62 75 -139 75 -222c0 -206 -170 -374 -379 -374c-83 0 -158 26 -220 71l-106 -105l-82 82l105 104c-47 62 -75 139 -75 222c0 206 169 374 378 374c83 0 159 -27 221 -72l106 106zM602 580c-39 27 -86 44 -137 44c-142 0 -257 -117 -257 -262
c0 -50 15 -97 41 -135zM723 362c0 50 -15 97 -41 135l-354 -354c38 -27 86 -43 137 -43c142 0 258 117 258 262z" />
    <glyph glyph-name="uni2318" unicode="&#x2318;" horiz-adv-x="914" 
d="M836 137c0 -85 -66 -148 -150 -148c-104 0 -159 65 -159 171v57h-139v-57c0 -106 -56 -171 -160 -171c-84 0 -150 63 -150 148c0 97 64 154 173 154h54v142h-54c-109 0 -173 57 -173 154c0 85 66 148 150 148c104 0 160 -65 160 -171v-57h139v57c0 106 55 171 159 171
c84 0 150 -63 150 -148c0 -97 -63 -154 -172 -154h-55v-142h55c109 0 172 -57 172 -154zM754 587c0 41 -27 75 -68 75c-50 0 -77 -36 -77 -98v-57h55c63 0 90 32 90 80zM754 137c0 48 -27 80 -90 80h-55v-57c0 -62 27 -98 77 -98c41 0 68 34 68 75zM527 291v142h-139v-142
h139zM305 507v57c0 62 -26 98 -76 98c-41 0 -68 -34 -68 -75c0 -48 27 -80 90 -80h54zM305 160v57h-54c-63 0 -90 -32 -90 -80c0 -41 27 -75 68 -75c50 0 76 36 76 98z" />
    <glyph glyph-name="uni2324" unicode="&#x2324;" horiz-adv-x="907" 
d="M824 618h-740v106h740v-106zM783 287l-78 -78l-251 251l-251 -251l-79 78l330 329z" />
    <glyph glyph-name="uni2325" unicode="&#x2325;" horiz-adv-x="907" 
d="M826 342h-366v106h366v-106zM826 0h-439l-151 342h-170v106h251l151 -342h358v-106z" />
    <glyph glyph-name="uni2326" unicode="&#x2326;" horiz-adv-x="1238" 
d="M1185 362l-362 -362h-734v724h734zM1046 362l-270 269h-584v-538h584zM749 224l-73 -73l-139 140l-139 -140l-73 73l140 139l-140 139l73 73l139 -140l139 140l73 -73l-139 -139z" />
    <glyph glyph-name="uni232B" unicode="&#x232b;" horiz-adv-x="1238" 
d="M1149 0h-734l-362 362l362 362h734v-724zM1046 93v538h-585l-269 -269l269 -269h585zM912 224l-73 -73l-139 140l-139 -140l-72 73l139 139l-139 139l72 73l139 -140l139 140l73 -73l-139 -139z" />
    <glyph glyph-name="uni2460" unicode="&#x2460;" horiz-adv-x="919" 
d="M868 393c0 -223 -182 -405 -408 -405s-409 182 -409 405s183 404 409 404s408 -181 408 -404zM793 393c0 186 -149 336 -333 336s-334 -150 -334 -336s150 -336 334 -336s333 150 333 336zM533 184h-87v328c-27 -15 -77 -29 -114 -34l-14 66c55 9 118 33 147 64h68v-424z
" />
    <glyph glyph-name="uni2461" unicode="&#x2461;" horiz-adv-x="919" 
d="M868 393c0 -223 -182 -405 -408 -405s-409 182 -409 405s183 404 409 404s408 -181 408 -404zM793 393c0 186 -149 336 -333 336s-334 -150 -334 -336s150 -336 334 -336s333 150 333 336zM619 184h-316l185 227c18 22 33 44 33 70c0 37 -26 64 -76 64
c-30 0 -68 -7 -96 -19l-24 66c37 15 84 24 126 24c104 0 159 -52 159 -131c0 -46 -28 -84 -53 -112l-108 -118h170v-71z" />
    <glyph glyph-name="uni2462" unicode="&#x2462;" horiz-adv-x="919" 
d="M868 393c0 -223 -182 -405 -408 -405s-409 182 -409 405s183 404 409 404s408 -181 408 -404zM793 393c0 186 -149 336 -333 336s-334 -150 -334 -336s150 -336 334 -336s333 150 333 336zM620 306c0 -78 -62 -130 -167 -130c-46 0 -94 9 -131 24l27 66
c27 -11 66 -18 104 -18c52 0 80 22 80 58c0 40 -48 65 -119 65h-9v63c75 4 114 30 114 64c0 30 -23 47 -67 47c-30 0 -67 -7 -95 -19l-25 66c39 15 86 24 132 24c95 0 142 -44 142 -112c0 -41 -31 -73 -68 -90v-2c43 -16 82 -50 82 -106z" />
    <glyph glyph-name="uni2463" unicode="&#x2463;" horiz-adv-x="919" 
d="M868 393c0 -223 -182 -405 -408 -405s-409 182 -409 405s183 404 409 404s408 -181 408 -404zM793 393c0 186 -149 336 -333 336s-334 -150 -334 -336s150 -336 334 -336s333 150 333 336zM604 288h-47v-104h-79v104h-191v61l177 259h93v-259h47v-61zM483 534h-2
s-11 -25 -25 -46l-95 -139h120v132c0 25 2 53 2 53z" />
    <glyph glyph-name="uni2464" unicode="&#x2464;" horiz-adv-x="919" 
d="M868 393c0 -223 -182 -405 -408 -405s-409 182 -409 405s183 404 409 404s408 -181 408 -404zM793 393c0 186 -149 336 -333 336s-334 -150 -334 -336s150 -336 334 -336s333 150 333 336zM605 314c0 -91 -74 -138 -172 -138c-44 0 -90 9 -127 24l28 66
c26 -11 66 -18 97 -18c54 0 87 24 87 63c0 41 -32 70 -116 70c-20 0 -42 -2 -68 -5l27 232h235v-71h-161l-11 -92h9c113 0 172 -49 172 -131z" />
    <glyph glyph-name="uni2465" unicode="&#x2465;" horiz-adv-x="919" 
d="M868 393c0 -223 -182 -405 -408 -405s-409 182 -409 405s183 404 409 404s408 -181 408 -404zM793 393c0 186 -149 336 -333 336s-334 -150 -334 -336s150 -336 334 -336s333 150 333 336zM606 315c0 -78 -61 -139 -151 -139c-107 0 -155 77 -155 166
c0 143 108 243 249 274l22 -71c-79 -18 -138 -54 -167 -110c17 5 38 9 55 9c90 0 147 -50 147 -129zM522 315c0 45 -31 70 -76 70c-20 0 -42 -5 -60 -12c-2 -10 -3 -20 -3 -31c0 -57 26 -97 72 -97c41 0 67 33 67 70z" />
    <glyph glyph-name="uni2466" unicode="&#x2466;" horiz-adv-x="919" 
d="M868 393c0 -223 -182 -405 -408 -405s-409 182 -409 405s183 404 409 404s408 -181 408 -404zM793 393c0 186 -149 336 -333 336s-334 -150 -334 -336s150 -336 334 -336s333 150 333 336zM628 608l-183 -424h-97l163 353h-196v71h313z" />
    <glyph glyph-name="uni2467" unicode="&#x2467;" horiz-adv-x="919" 
d="M868 393c0 -223 -182 -405 -408 -405s-409 182 -409 405s183 404 409 404s408 -181 408 -404zM793 393c0 186 -149 336 -333 336s-334 -150 -334 -336s150 -336 334 -336s333 150 333 336zM613 291c0 -71 -64 -115 -153 -115s-154 41 -154 115c0 59 40 90 84 112
c-39 21 -74 49 -74 100c0 70 61 113 144 113c81 0 143 -46 143 -113c0 -51 -35 -79 -74 -100c44 -22 84 -53 84 -112zM521 503c0 29 -21 53 -61 53s-62 -24 -62 -53c0 -34 27 -53 62 -69c35 16 61 35 61 69zM529 294c0 38 -30 59 -69 77c-39 -18 -70 -39 -70 -77
c0 -33 29 -55 70 -55s69 22 69 55z" />
    <glyph glyph-name="uni2468" unicode="&#x2468;" horiz-adv-x="919" 
d="M868 393c0 -223 -182 -405 -408 -405s-409 182 -409 405s183 404 409 404s408 -181 408 -404zM793 393c0 186 -149 336 -333 336s-334 -150 -334 -336s150 -336 334 -336s333 150 333 336zM618 450c0 -143 -108 -243 -249 -274l-22 71c79 18 137 54 166 110
c-17 -5 -37 -9 -54 -9c-90 0 -147 50 -147 129c0 78 61 139 151 139c107 0 155 -77 155 -166zM535 451c0 57 -26 97 -72 97c-41 0 -67 -33 -67 -70c0 -45 31 -70 76 -70c20 0 42 4 60 11c2 10 3 21 3 32z" />
    <glyph glyph-name="uni2469" unicode="&#x2469;" horiz-adv-x="1223" 
d="M1172 393c0 -223 -183 -405 -409 -405h-303c-226 0 -409 182 -409 405s183 404 409 404h303c226 0 409 -181 409 -404zM1097 393c0 186 -150 336 -334 336h-303c-184 0 -334 -150 -334 -336s150 -336 334 -336h303c184 0 334 150 334 336zM918 396
c0 -126 -53 -220 -158 -220s-153 94 -153 220s48 220 153 220s158 -94 158 -220zM510 184h-87v328c-27 -15 -77 -29 -114 -34l-15 66c55 9 119 33 148 64h68v-424zM826 397c0 92 -19 151 -66 151s-66 -59 -66 -151s19 -152 66 -152s66 60 66 152z" />
    <glyph glyph-name="uni246A" unicode="&#x246a;" horiz-adv-x="1223" 
d="M1172 393c0 -223 -183 -405 -409 -405h-303c-226 0 -409 182 -409 405s183 404 409 404h303c226 0 409 -181 409 -404zM1097 393c0 186 -150 336 -334 336h-303c-184 0 -334 -150 -334 -336s150 -336 334 -336h303c184 0 334 150 334 336zM838 184h-87v328
c-27 -15 -78 -29 -115 -34l-14 66c55 9 119 33 148 64h68v-424zM533 184h-87v328c-27 -15 -78 -29 -115 -34l-14 66c55 9 119 33 148 64h68v-424z" />
    <glyph glyph-name="uni246B" unicode="&#x246b;" horiz-adv-x="1223" 
d="M1172 393c0 -223 -183 -405 -409 -405h-303c-226 0 -409 182 -409 405s183 404 409 404h303c226 0 409 -181 409 -404zM1097 393c0 186 -150 336 -334 336h-303c-184 0 -334 -150 -334 -336s150 -336 334 -336h303c184 0 334 150 334 336zM897 184h-316l185 227
c18 22 33 44 33 70c0 37 -26 64 -76 64c-30 0 -67 -7 -95 -19l-24 66c37 15 83 24 125 24c104 0 160 -52 160 -131c0 -46 -29 -84 -54 -112l-107 -118h169v-71zM511 184h-87v328c-27 -15 -78 -29 -115 -34l-14 66c55 9 119 33 148 64h68v-424z" />
    <glyph glyph-name="uni246C" unicode="&#x246c;" horiz-adv-x="1223" 
d="M1172 393c0 -223 -183 -405 -409 -405h-303c-226 0 -409 182 -409 405s183 404 409 404h303c226 0 409 -181 409 -404zM1097 393c0 186 -150 336 -334 336h-303c-184 0 -334 -150 -334 -336s150 -336 334 -336h303c184 0 334 150 334 336zM515 184h-87v328
c-27 -15 -78 -29 -115 -34l-14 66c55 9 119 33 148 64h68v-424zM897 306c0 -78 -62 -130 -167 -130c-46 0 -94 9 -131 24l27 66c27 -11 66 -18 104 -18c52 0 80 22 80 58c0 40 -48 65 -119 65h-9v63c75 4 114 30 114 64c0 30 -23 47 -67 47c-30 0 -67 -7 -95 -19l-25 66
c39 15 86 24 132 24c95 0 142 -44 142 -112c0 -41 -31 -73 -68 -90v-2c43 -16 82 -50 82 -106z" />
    <glyph glyph-name="uni246D" unicode="&#x246d;" horiz-adv-x="1223" 
d="M1172 393c0 -223 -183 -405 -409 -405h-303c-226 0 -409 182 -409 405s183 404 409 404h303c226 0 409 -181 409 -404zM1097 393c0 186 -150 336 -334 336h-303c-184 0 -334 -150 -334 -336s150 -336 334 -336h303c184 0 334 150 334 336zM909 288h-47v-104h-80v104h-191
v61l178 259h93v-259h47v-61zM513 184h-87v328c-27 -15 -78 -29 -115 -34l-14 66c55 9 119 33 148 64h68v-424zM787 534h-2s-11 -25 -25 -46l-94 -139h119v132c0 25 2 53 2 53z" />
    <glyph glyph-name="uni246E" unicode="&#x246e;" horiz-adv-x="1223" 
d="M1172 393c0 -223 -183 -405 -409 -405h-303c-226 0 -409 182 -409 405s183 404 409 404h303c226 0 409 -181 409 -404zM1097 393c0 186 -150 336 -334 336h-303c-184 0 -334 -150 -334 -336s150 -336 334 -336h303c184 0 334 150 334 336zM509 184h-87v328
c-27 -15 -78 -29 -115 -34l-14 66c55 9 119 33 148 64h68v-424zM890 314c0 -91 -74 -138 -172 -138c-44 0 -90 9 -127 24l28 66c26 -11 66 -18 97 -18c54 0 87 24 87 63c0 41 -32 70 -116 70c-20 0 -42 -2 -68 -5l27 232h235v-71h-161l-11 -92h9c113 0 172 -49 172 -131z
" />
    <glyph glyph-name="uni246F" unicode="&#x246f;" horiz-adv-x="1223" 
d="M1172 393c0 -223 -183 -405 -409 -405h-303c-226 0 -409 182 -409 405s183 404 409 404h303c226 0 409 -181 409 -404zM1097 393c0 186 -150 336 -334 336h-303c-184 0 -334 -150 -334 -336s150 -336 334 -336h303c184 0 334 150 334 336zM908 315
c0 -78 -61 -139 -151 -139c-107 0 -155 77 -155 166c0 143 107 243 248 274l22 -71c-79 -18 -137 -54 -166 -110c17 5 38 9 55 9c90 0 147 -50 147 -129zM511 184h-87v328c-27 -15 -77 -29 -114 -34l-14 66c55 9 118 33 147 64h68v-424zM824 315c0 45 -31 70 -76 70
c-20 0 -42 -5 -60 -12c-2 -10 -3 -20 -3 -31c0 -57 26 -97 72 -97c41 0 67 33 67 70z" />
    <glyph glyph-name="uni2470" unicode="&#x2470;" horiz-adv-x="1223" 
d="M1172 393c0 -223 -183 -405 -409 -405h-303c-226 0 -409 182 -409 405s183 404 409 404h303c226 0 409 -181 409 -404zM1097 393c0 186 -150 336 -334 336h-303c-184 0 -334 -150 -334 -336s150 -336 334 -336h303c184 0 334 150 334 336zM908 608l-184 -424h-96l163 353
h-193v71h310zM510 184h-87v328c-27 -15 -77 -29 -114 -34l-15 66c55 9 119 33 148 64h68v-424z" />
    <glyph glyph-name="uni2471" unicode="&#x2471;" horiz-adv-x="1223" 
d="M1172 393c0 -223 -183 -405 -409 -405h-303c-226 0 -409 182 -409 405s183 404 409 404h303c226 0 409 -181 409 -404zM1097 393c0 186 -150 336 -334 336h-303c-184 0 -334 -150 -334 -336s150 -336 334 -336h303c184 0 334 150 334 336zM912 291
c0 -71 -64 -115 -153 -115s-154 41 -154 115c0 59 40 90 84 112c-39 21 -73 49 -73 100c0 70 60 113 143 113c81 0 143 -46 143 -113c0 -51 -35 -79 -74 -100c44 -22 84 -53 84 -112zM511 184h-87v328c-27 -15 -77 -29 -114 -34l-14 66c55 9 118 33 147 64h68v-424zM820 503
c0 29 -21 53 -61 53s-62 -24 -62 -53c0 -34 27 -53 62 -69c35 16 61 35 61 69zM828 294c0 38 -30 59 -69 77c-39 -18 -70 -39 -70 -77c0 -33 29 -55 70 -55s69 22 69 55z" />
    <glyph glyph-name="uni2472" unicode="&#x2472;" horiz-adv-x="1223" 
d="M1172 393c0 -223 -183 -405 -409 -405h-303c-226 0 -409 182 -409 405s183 404 409 404h303c226 0 409 -181 409 -404zM1097 393c0 186 -150 336 -334 336h-303c-184 0 -334 -150 -334 -336s150 -336 334 -336h303c184 0 334 150 334 336zM912 450
c0 -143 -107 -243 -248 -274l-22 71c79 18 137 54 166 110c-17 -5 -38 -9 -55 -9c-90 0 -147 50 -147 129c0 78 61 139 151 139c107 0 155 -77 155 -166zM511 184h-87v328c-27 -15 -77 -29 -114 -34l-14 66c55 9 118 33 147 64h68v-424zM829 451c0 57 -26 97 -72 97
c-41 0 -67 -33 -67 -70c0 -45 31 -70 76 -70c20 0 42 4 60 11c2 10 3 21 3 32z" />
    <glyph glyph-name="uni2473" unicode="&#x2473;" horiz-adv-x="1223" 
d="M1172 393c0 -223 -183 -405 -409 -405h-303c-226 0 -409 182 -409 405s183 404 409 404h303c226 0 409 -181 409 -404zM1097 393c0 186 -150 336 -334 336h-303c-184 0 -334 -150 -334 -336s150 -336 334 -336h303c184 0 334 150 334 336zM959 396
c0 -126 -53 -220 -158 -220s-153 94 -153 220s48 220 153 220s158 -94 158 -220zM590 184h-313l185 227c18 22 33 44 33 70c0 37 -26 64 -76 64c-30 0 -67 -7 -95 -19l-24 66c37 15 83 24 125 24c104 0 160 -52 160 -131c0 -46 -29 -84 -54 -112l-107 -118h166v-71zM867 397
c0 92 -19 151 -66 151s-66 -59 -66 -151s19 -152 66 -152s66 60 66 152z" />
    <glyph glyph-name="lozenge" unicode="&#x25ca;" horiz-adv-x="712" 
d="M671 362l-315 -377l-315 377l315 377zM523 362l-167 200l-167 -200l167 -200z" />
    <glyph glyph-name="uni2713" unicode="&#x2713;" horiz-adv-x="855" 
d="M786 676l-405 -690l-316 352l95 83l200 -237l314 552z" />
    <glyph glyph-name="parenleft.case" horiz-adv-x="399" 
d="M371 -100l-101 -55c-131 140 -217 313 -217 517s86 377 217 517l101 -55c-99 -123 -170 -279 -170 -462s71 -339 170 -462z" />
    <glyph glyph-name="parenright.case" horiz-adv-x="399" 
d="M346 362c0 -204 -86 -377 -217 -517l-101 55c99 123 170 279 170 462s-71 339 -170 462l101 55c131 -140 217 -313 217 -517z" />
    <glyph glyph-name="hyphen.case" horiz-adv-x="400" 
d="M343 309h-286v116h286v-116z" />
    <glyph glyph-name="bracketleft.case" horiz-adv-x="382" 
d="M337 -128h-262v980h262v-106h-129v-768h129v-106z" />
    <glyph glyph-name="bracketright.case" horiz-adv-x="382" 
d="M307 -128h-262v106h129v768h-129v106h262v-980z" />
    <glyph glyph-name="braceleft.case" horiz-adv-x="386" 
d="M334 -128h-43c-130 0 -192 70 -192 185c0 68 16 95 16 160c0 54 -33 88 -81 90v110c48 2 81 36 81 90c0 65 -16 92 -16 160c0 115 62 185 192 185h43v-106h-22c-50 0 -80 -26 -80 -79c0 -68 16 -95 16 -160c0 -75 -37 -125 -99 -144v-2c62 -19 99 -69 99 -144
c0 -65 -16 -92 -16 -160c0 -53 30 -79 80 -79h22v-106z" />
    <glyph glyph-name="braceright.case" horiz-adv-x="386" 
d="M352 307c-48 -2 -81 -36 -81 -90c0 -65 16 -92 16 -160c0 -115 -62 -185 -192 -185h-43v106h22c50 0 80 26 80 79c0 68 -16 95 -16 160c0 75 37 125 99 144v2c-62 19 -99 69 -99 144c0 65 16 92 16 160c0 53 -30 79 -80 79h-22v106h43c130 0 192 -70 192 -185
c0 -68 -16 -95 -16 -160c0 -54 33 -88 81 -90v-110z" />
    <glyph glyph-name="exclamdown.case" horiz-adv-x="293" 
d="M232 647c0 -47 -39 -86 -86 -86s-85 39 -85 86s38 86 85 86s86 -39 86 -86zM227 0h-161l21 471h119z" />
    <glyph glyph-name="guillemotleft.case" horiz-adv-x="608" 
d="M552 169l-80 -60l-187 253l187 253l80 -60l-143 -193zM311 169l-80 -60l-188 253l188 253l80 -60l-144 -193z" />
    <glyph glyph-name="uni00AD.case" horiz-adv-x="400" 
d="M343 309h-286v116h286v-116z" />
    <glyph glyph-name="periodcentered.case" horiz-adv-x="271" 
d="M222 367c0 -47 -39 -86 -86 -86s-86 39 -86 86s39 86 86 86s86 -39 86 -86z" />
    <glyph glyph-name="guillemotright.case" horiz-adv-x="608" 
d="M565 362l-188 -253l-80 60l144 193l-144 193l80 60zM323 362l-188 -253l-79 60l143 193l-143 193l79 60z" />
    <glyph glyph-name="questiondown.case" horiz-adv-x="501" 
d="M355 647c0 -47 -39 -86 -86 -86s-86 39 -86 86s39 86 86 86s86 -39 86 -86zM475 27c-50 -23 -124 -39 -195 -39c-154 0 -240 65 -240 189c0 100 89 160 165 187l8 107h113l11 -174c-81 -18 -153 -55 -153 -113c0 -53 35 -84 115 -84c45 0 100 14 133 30z" />
    <glyph glyph-name="endash.case" horiz-adv-x="419" 
d="M423 314h-427v106h427v-106z" />
    <glyph glyph-name="emdash.case" horiz-adv-x="838" 
d="M767 314h-696v106h696v-106z" />
    <glyph glyph-name="guilsinglleft.case" horiz-adv-x="366" 
d="M311 169l-80 -60l-188 253l188 253l80 -60l-144 -193z" />
    <glyph glyph-name="guilsinglright.case" horiz-adv-x="366" 
d="M323 362l-188 -253l-79 60l143 193l-143 193l79 60z" />
    <glyph glyph-name="parenleft.dnom" horiz-adv-x="266" 
d="M245 -64l-65 -35c-79 84 -131 188 -131 311s52 227 131 311l65 -35c-59 -74 -101 -166 -101 -276s42 -202 101 -276z" />
    <glyph glyph-name="parenright.dnom" horiz-adv-x="266" 
d="M217 212c0 -123 -52 -227 -131 -311l-65 35c59 74 102 166 102 276s-43 202 -102 276l65 35c79 -84 131 -188 131 -311z" />
    <glyph glyph-name="comma.dnom" horiz-adv-x="207" 
d="M176 82l-103 -195h-68l64 195c13 19 33 35 62 35s42 -16 45 -35z" />
    <glyph glyph-name="hyphen.dnom" horiz-adv-x="322" 
d="M272 179h-222v71h222v-71z" />
    <glyph glyph-name="period.dnom" horiz-adv-x="207" 
d="M165 55c0 -34 -27 -62 -61 -62s-62 28 -62 62s28 62 62 62s61 -28 61 -62z" />
    <glyph glyph-name="zero.dnom" 
d="M337 212c0 -126 -48 -220 -153 -220s-153 94 -153 220s48 220 153 220s153 -94 153 -220zM250 213c0 92 -19 151 -66 151s-66 -59 -66 -151s19 -152 66 -152s66 60 66 152z" />
    <glyph glyph-name="one.dnom" 
d="M275 0h-87v328c-27 -15 -78 -29 -115 -34l-14 66c55 9 119 33 148 64h68v-424z" />
    <glyph glyph-name="two.dnom" 
d="M328 0h-316l185 227c18 22 33 44 33 70c0 37 -26 64 -76 64c-30 0 -68 -7 -96 -19l-23 66c37 15 83 24 125 24c104 0 159 -52 159 -131c0 -46 -28 -84 -53 -112l-107 -118h169v-71z" />
    <glyph glyph-name="three.dnom" 
d="M323 122c0 -78 -62 -130 -167 -130c-46 0 -94 9 -131 24l27 66c27 -11 66 -18 104 -18c52 0 80 22 80 58c0 40 -48 65 -119 65h-9v63c75 4 114 30 114 64c0 30 -23 47 -67 47c-30 0 -67 -7 -95 -19l-25 66c39 15 86 24 132 24c95 0 142 -44 142 -112
c0 -41 -31 -73 -68 -90v-2c43 -16 82 -50 82 -106z" />
    <glyph glyph-name="four.dnom" 
d="M339 104h-43v-104h-79v104h-191v61l178 259h92v-259h43v-61zM222 350h-2s-11 -25 -25 -46l-95 -139h120v132c0 25 2 53 2 53z" />
    <glyph glyph-name="five.dnom" 
d="M326 130c0 -91 -74 -138 -172 -138c-44 0 -90 9 -127 24l28 66c26 -11 66 -18 97 -18c54 0 87 24 87 63c0 41 -32 70 -116 70c-20 0 -42 -2 -68 -5l27 232h235v-71h-161l-11 -92h9c113 0 172 -49 172 -131z" />
    <glyph glyph-name="six.dnom" 
d="M338 131c0 -78 -61 -139 -151 -139c-107 0 -155 77 -155 166c0 143 107 243 248 274l22 -71c-79 -18 -137 -54 -166 -110c17 5 38 9 55 9c90 0 147 -50 147 -129zM254 131c0 45 -31 70 -76 70c-20 0 -42 -5 -60 -12c-2 -10 -3 -20 -3 -31c0 -57 26 -97 72 -97
c41 0 67 33 67 70z" />
    <glyph glyph-name="seven.dnom" 
d="M345 424l-184 -424h-96l163 353h-197v71h314z" />
    <glyph glyph-name="eight.dnom" 
d="M338 107c0 -71 -65 -115 -154 -115s-154 41 -154 115c0 59 40 90 84 112c-39 21 -73 49 -73 100c0 70 60 113 143 113c81 0 143 -46 143 -113c0 -51 -34 -79 -73 -100c44 -22 84 -53 84 -112zM246 319c0 29 -22 53 -62 53s-62 -24 -62 -53c0 -34 27 -53 62 -69
c35 16 62 35 62 69zM254 110c0 38 -31 59 -70 77c-39 -18 -70 -39 -70 -77c0 -33 29 -55 70 -55s70 22 70 55z" />
    <glyph glyph-name="nine.dnom" 
d="M336 266c0 -143 -107 -243 -248 -274l-22 71c79 18 137 54 166 110c-17 -5 -38 -9 -55 -9c-90 0 -147 50 -147 129c0 78 61 139 151 139c107 0 155 -77 155 -166zM253 267c0 57 -26 97 -72 97c-41 0 -67 -33 -67 -70c0 -45 31 -70 76 -70c20 0 42 4 60 11c2 10 3 21 3 32
z" />
    <glyph glyph-name="grave.lc" horiz-adv-x="460" 
d="M342 601h-93l-108 132c6 19 30 30 56 30s55 -9 75 -30z" />
    <glyph glyph-name="dieresis.lc" horiz-adv-x="577" 
d="M446 671c0 -34 -30 -63 -67 -63s-66 29 -66 63s29 62 66 62s67 -28 67 -62zM243 671c0 -34 -30 -63 -67 -63s-67 29 -67 63s30 62 67 62s67 -28 67 -62z" />
    <glyph glyph-name="macron.lc" horiz-adv-x="274" 
d="M281 624h-283v82h283v-82z" />
    <glyph glyph-name="acute.lc" horiz-adv-x="539" 
d="M414 733l-107 -132h-94l70 132c20 21 50 30 76 30s49 -11 55 -30z" />
    <glyph glyph-name="circumflex.lc" horiz-adv-x="540" 
d="M426 636l-53 -45l-95 83l-96 -83l-53 45l104 104c12 13 28 20 45 20s32 -7 44 -20z" />
    <glyph glyph-name="caron.lc" horiz-adv-x="482" 
d="M371 718l-104 -105c-12 -13 -27 -20 -44 -20s-33 7 -45 20l-104 105l53 44l96 -82l95 82z" />
    <glyph glyph-name="breve.lc" horiz-adv-x="279" 
d="M290 746c-5 -92 -55 -152 -149 -152s-145 60 -150 152l77 12c6 -54 27 -83 73 -83s66 29 72 83z" />
    <glyph glyph-name="dotaccent.lc" horiz-adv-x="267" 
d="M216 681c0 -39 -33 -72 -75 -72s-76 33 -76 72s34 71 76 71s75 -32 75 -71z" />
    <glyph glyph-name="ring.lc" horiz-adv-x="461" 
d="M349 689c0 -55 -45 -98 -104 -98s-105 43 -105 98s46 97 105 97s104 -42 104 -97zM290 689c0 25 -20 44 -45 44s-46 -19 -46 -44s21 -45 46 -45s45 20 45 45z" />
    <glyph glyph-name="tilde.lc" horiz-adv-x="542" 
d="M426 707c-6 -58 -39 -101 -90 -101c-52 0 -69 45 -105 45c-25 0 -41 -20 -46 -50l-61 36c6 58 38 101 89 101c52 0 69 -45 105 -45c25 0 41 19 46 50z" />
    <glyph glyph-name="hungarumlaut.lc" horiz-adv-x="310" 
d="M314 733l-105 -132h-75l75 132c19 20 39 30 63 30s37 -13 42 -30zM151 733l-104 -132h-76l75 132c19 20 39 30 63 30s37 -13 42 -30z" />
    <glyph glyph-name="tonos.lc" horiz-adv-x="293" 
d="M252 742l-81 -141h-80l42 141c12 18 39 30 65 30c23 0 44 -9 54 -30z" />
    <glyph glyph-name="diedot.lc" horiz-adv-x="366" 
d="M251 671c0 -34 -29 -63 -66 -63s-67 29 -67 63s30 62 67 62s66 -28 66 -62z" />
    <glyph glyph-name="zero.lf" horiz-adv-x="598" 
d="M549 362c0 -212 -74 -374 -250 -374s-250 162 -250 374s74 374 250 374s250 -162 250 -374zM411 363c0 157 -31 265 -112 265s-112 -108 -112 -265s31 -265 112 -265s112 108 112 265z" />
    <glyph glyph-name="one.lf" horiz-adv-x="449" 
d="M367 0h-139v571c-46 -27 -129 -50 -196 -60l-20 104c95 15 197 56 246 109h109v-724z" />
    <glyph glyph-name="two.lf" horiz-adv-x="582" 
d="M536 0h-526l310 386c30 38 57 78 57 125c0 66 -50 111 -138 111c-50 0 -108 -12 -153 -31l-40 106c59 25 134 39 205 39c175 0 270 -84 270 -218c0 -77 -48 -145 -91 -193l-189 -212h295v-113z" />
    <glyph glyph-name="three.lf" horiz-adv-x="549" 
d="M507 208c0 -132 -103 -220 -278 -220c-76 0 -157 15 -216 39l43 106c44 -18 108 -30 171 -30c88 0 139 43 139 106c0 75 -89 114 -203 114h-12v100c117 7 193 54 193 117c0 52 -42 83 -116 83c-50 0 -111 -13 -157 -32l-40 106c61 25 139 39 216 39
c157 0 235 -74 235 -186c0 -73 -59 -134 -123 -160v-2c74 -24 148 -78 148 -180z" />
    <glyph glyph-name="four.lf" horiz-adv-x="588" 
d="M554 179h-72v-179h-127v179h-324v97l301 448h150v-448h72v-97zM362 604h-2s-21 -44 -47 -83l-163 -245h209v233c0 47 3 95 3 95z" />
    <glyph glyph-name="five.lf" horiz-adv-x="551" 
d="M509 218c0 -152 -121 -230 -285 -230c-74 0 -152 16 -209 39l43 106c41 -18 108 -30 162 -30c92 0 148 42 148 112c0 74 -57 126 -199 126c-32 0 -68 -2 -109 -8l45 391h389v-113h-270l-21 -170h21c189 0 285 -84 285 -223z" />
    <glyph glyph-name="six.lf" horiz-adv-x="599" 
d="M556 225c0 -132 -102 -237 -252 -237c-177 0 -257 130 -257 282c0 243 181 414 413 466l34 -114c-142 -33 -236 -104 -281 -200c27 11 67 19 99 19c151 0 244 -82 244 -216zM421 223c0 80 -55 124 -132 124c-34 0 -77 -9 -104 -20c-3 -19 -5 -39 -5 -58
c0 -100 43 -171 124 -171c72 0 117 59 117 125z" />
    <glyph glyph-name="seven.lf" horiz-adv-x="563" 
d="M549 724l-317 -724h-155l282 611h-335v113h525z" />
    <glyph glyph-name="eight.lf" horiz-adv-x="596" 
d="M554 182c0 -118 -107 -194 -256 -194s-255 70 -255 194c0 103 69 155 146 192c-69 36 -128 84 -128 172c0 118 99 190 237 190c134 0 237 -77 237 -190c0 -88 -59 -136 -128 -172c77 -37 147 -89 147 -192zM405 546c0 51 -37 94 -107 94s-107 -43 -107 -94
c0 -61 48 -95 107 -123c59 28 107 62 107 123zM418 187c0 68 -55 104 -120 135c-65 -31 -120 -67 -120 -135c0 -59 50 -99 120 -99s120 40 120 99z" />
    <glyph glyph-name="nine.lf" horiz-adv-x="599" 
d="M552 454c0 -243 -181 -414 -413 -466l-34 114c142 33 236 104 281 200c-27 -11 -67 -19 -99 -19c-151 0 -244 82 -244 216c0 132 101 237 251 237c177 0 258 -130 258 -282zM419 456c0 100 -44 172 -125 172c-72 0 -116 -60 -116 -126c0 -80 55 -124 132 -124
c34 0 77 10 104 21c3 19 5 38 5 57z" />
    <glyph glyph-name="parenleft.numr" horiz-adv-x="266" 
d="M245 236l-65 -35c-79 84 -131 188 -131 311s52 227 131 311l65 -35c-59 -74 -101 -166 -101 -276s42 -202 101 -276z" />
    <glyph glyph-name="parenright.numr" horiz-adv-x="266" 
d="M217 512c0 -123 -52 -227 -131 -311l-65 35c59 74 102 166 102 276s-43 202 -102 276l65 35c79 -84 131 -188 131 -311z" />
    <glyph glyph-name="plus.numr" 
d="M317 681h-97v-99h-72v99h-97v67h97v99h72v-99h97v-67z" />
    <glyph glyph-name="comma.numr" horiz-adv-x="207" 
d="M176 382l-103 -195h-68l64 195c13 19 33 35 62 35s42 -16 45 -35z" />
    <glyph glyph-name="hyphen.numr" horiz-adv-x="322" 
d="M272 479h-222v71h222v-71z" />
    <glyph glyph-name="period.numr" horiz-adv-x="207" 
d="M165 355c0 -34 -27 -62 -61 -62s-62 28 -62 62s28 62 62 62s61 -28 61 -62z" />
    <glyph glyph-name="zero.numr" 
d="M337 512c0 -126 -48 -220 -153 -220s-153 94 -153 220s48 220 153 220s153 -94 153 -220zM250 513c0 92 -19 151 -66 151s-66 -59 -66 -151s19 -152 66 -152s66 60 66 152z" />
    <glyph glyph-name="one.numr" 
d="M275 300h-87v328c-27 -15 -78 -29 -115 -34l-14 66c55 9 119 33 148 64h68v-424z" />
    <glyph glyph-name="two.numr" 
d="M328 300h-316l185 227c18 22 33 44 33 70c0 37 -26 64 -76 64c-30 0 -68 -7 -96 -19l-23 66c37 15 83 24 125 24c104 0 159 -52 159 -131c0 -46 -28 -84 -53 -112l-107 -118h169v-71z" />
    <glyph glyph-name="three.numr" 
d="M323 422c0 -78 -62 -130 -167 -130c-46 0 -94 9 -131 24l27 66c27 -11 66 -18 104 -18c52 0 80 22 80 58c0 40 -48 65 -119 65h-9v63c75 4 114 30 114 64c0 30 -23 47 -67 47c-30 0 -67 -7 -95 -19l-25 66c39 15 86 24 132 24c95 0 142 -44 142 -112
c0 -41 -31 -73 -68 -90v-2c43 -16 82 -50 82 -106z" />
    <glyph glyph-name="four.numr" 
d="M339 404h-43v-104h-79v104h-191v61l178 259h92v-259h43v-61zM222 650h-2s-11 -25 -25 -46l-95 -139h120v132c0 25 2 53 2 53z" />
    <glyph glyph-name="five.numr" 
d="M326 430c0 -91 -74 -138 -172 -138c-44 0 -90 9 -127 24l28 66c26 -11 66 -18 97 -18c54 0 87 24 87 63c0 41 -32 70 -116 70c-20 0 -42 -2 -68 -5l27 232h235v-71h-161l-11 -92h9c113 0 172 -49 172 -131z" />
    <glyph glyph-name="six.numr" 
d="M338 431c0 -78 -61 -139 -151 -139c-107 0 -155 77 -155 166c0 143 107 243 248 274l22 -71c-79 -18 -137 -54 -166 -110c17 5 38 9 55 9c90 0 147 -50 147 -129zM254 431c0 45 -31 70 -76 70c-20 0 -42 -5 -60 -12c-2 -10 -3 -20 -3 -31c0 -57 26 -97 72 -97
c41 0 67 33 67 70z" />
    <glyph glyph-name="seven.numr" 
d="M345 724l-184 -424h-96l163 353h-197v71h314z" />
    <glyph glyph-name="eight.numr" 
d="M338 407c0 -71 -65 -115 -154 -115s-154 41 -154 115c0 59 40 90 84 112c-39 21 -73 49 -73 100c0 70 60 113 143 113c81 0 143 -46 143 -113c0 -51 -34 -79 -73 -100c44 -22 84 -53 84 -112zM246 619c0 29 -22 53 -62 53s-62 -24 -62 -53c0 -34 27 -53 62 -69
c35 16 62 35 62 69zM254 410c0 38 -31 59 -70 77c-39 -18 -70 -39 -70 -77c0 -33 29 -55 70 -55s70 22 70 55z" />
    <glyph glyph-name="nine.numr" 
d="M336 566c0 -143 -107 -243 -248 -274l-22 71c79 18 137 54 166 110c-17 -5 -38 -9 -55 -9c-90 0 -147 50 -147 129c0 78 61 139 151 139c107 0 155 -77 155 -166zM253 567c0 57 -26 97 -72 97c-41 0 -67 -33 -67 -70c0 -45 31 -70 76 -70c20 0 42 4 60 11c2 10 3 21 3 32
z" />
    <glyph glyph-name="equal.numr" 
d="M317 746h-266v68h266v-68zM317 616h-266v67h266v-67z" />
    <glyph glyph-name="n.numr" horiz-adv-x="414" 
d="M363 500h-86v259c0 43 -25 66 -75 66c-26 0 -48 -5 -64 -11v-314h-87v363c39 18 93 31 150 31c111 0 162 -46 162 -136v-258z" />
    <glyph glyph-name="minus.numr" 
d="M317 681h-266v67h266v-67z" />
    <glyph glyph-name="numbersign.sc" horiz-adv-x="617" 
d="M552 329h-96l-16 -114h86v-73h-96l-20 -142h-84l20 142h-119l-20 -142h-84l20 142h-85v73h95l16 114h-84v73h94l20 137h84l-19 -137h119l19 137h84l-19 -137h85v-73zM372 329h-119l-16 -114h119z" />
    <glyph glyph-name="dollar.sc" horiz-adv-x="508" 
d="M451 156c0 -89 -59 -147 -162 -162l7 -120h-106l14 115c-58 3 -117 20 -151 38l44 103c28 -17 91 -35 128 -35c50 0 85 22 85 61s-38 56 -82 72c-81 30 -162 64 -162 164c0 89 62 145 163 156l-7 112h104l-15 -112c46 -5 89 -18 122 -36l-41 -92c-25 15 -74 31 -108 31
c-48 0 -80 -20 -80 -58c0 -41 42 -58 89 -75c81 -30 158 -63 158 -162z" />
    <glyph glyph-name="percent.sc" horiz-adv-x="872" 
d="M819 158c0 -103 -59 -170 -153 -170s-152 67 -152 170s58 171 152 171s153 -68 153 -171zM581 530l-208 -542l-82 21l207 542zM358 380c0 -103 -58 -170 -152 -170s-153 67 -153 170s59 171 153 171s152 -68 152 -171zM721 160c0 67 -19 100 -55 100s-54 -33 -54 -100
s18 -101 54 -101s55 34 55 101zM260 381c0 67 -18 101 -54 101s-55 -34 -55 -101s19 -100 55 -100s54 33 54 100z" />
    <glyph glyph-name="ampersand.sc" horiz-adv-x="607" 
d="M575 288l-86 -14v-247c-47 -22 -130 -39 -207 -39c-138 0 -238 43 -238 152c0 77 58 125 116 144v1c-59 19 -95 60 -95 120c0 100 92 146 196 146c56 0 112 -15 150 -39l-35 -80c-25 16 -63 29 -97 29c-51 0 -81 -25 -81 -66c0 -40 31 -66 78 -66c13 0 29 1 51 4l234 36z
M359 83v173l-81 -12c-63 -10 -99 -41 -99 -92c0 -52 36 -80 111 -80c25 0 54 4 69 11z" />
    <glyph glyph-name="at.sc" horiz-adv-x="824" 
d="M776 249c0 -183 -133 -261 -295 -261c-152 0 -240 75 -240 208c0 125 74 197 193 197c65 0 109 -21 135 -43v-274c65 22 110 72 110 173c0 127 -80 223 -246 223c-181 0 -287 -116 -287 -284c0 -164 115 -281 328 -281c93 0 179 26 233 62l48 -68
c-64 -43 -159 -74 -281 -74c-263 0 -426 148 -426 361c0 207 146 363 385 363c221 0 343 -135 343 -302zM475 66v243c-10 6 -25 10 -45 10c-59 0 -92 -41 -92 -123c0 -86 46 -130 137 -130z" />
    <glyph glyph-name="a.sc" horiz-adv-x="575" 
d="M568 0h-145l-40 123h-190l-41 -123h-145l202 539h158zM361 202l-58 180c-9 28 -14 61 -14 61h-2s-6 -33 -15 -61l-58 -180h147z" />
    <glyph glyph-name="b.sc" horiz-adv-x="548" 
d="M508 145c0 -107 -85 -157 -248 -157c-74 0 -147 14 -199 39v485c52 25 125 39 198 39c152 0 235 -56 235 -150c0 -61 -51 -110 -106 -122v-1c54 -13 120 -52 120 -133zM363 391c0 47 -32 76 -104 76c-25 0 -53 -5 -68 -11v-144h74c36 0 56 5 72 17s26 36 26 62zM373 153
c0 29 -13 52 -34 65c-18 11 -34 16 -72 16h-76v-151c16 -7 45 -11 69 -11c77 0 113 26 113 81z" />
    <glyph glyph-name="c.sc" horiz-adv-x="457" 
d="M426 25c-35 -23 -79 -37 -143 -37c-126 0 -241 90 -241 282s115 281 241 281c64 0 109 -14 143 -37l-43 -98c-20 15 -49 23 -80 23c-67 0 -120 -56 -120 -168s55 -168 120 -168c31 0 60 9 80 24z" />
    <glyph glyph-name="d.sc" horiz-adv-x="561" 
d="M519 270c0 -177 -99 -282 -269 -282c-68 0 -136 14 -189 39v485c53 25 121 39 189 39c170 0 269 -104 269 -281zM383 270c0 127 -50 184 -132 184c-20 0 -41 -3 -54 -9v-350c13 -6 34 -10 54 -10c82 0 132 58 132 185z" />
    <glyph glyph-name="e.sc" horiz-adv-x="430" 
d="M389 0h-328v539h328v-93h-195v-128h178v-91h-178v-134h195v-93z" />
    <glyph glyph-name="f.sc" horiz-adv-x="422" 
d="M387 446h-193v-128h176v-91h-176v-227h-133v539h326v-93z" />
    <glyph glyph-name="g.sc" horiz-adv-x="561" 
d="M504 27c-43 -24 -111 -39 -182 -39c-178 0 -280 103 -280 282c0 176 105 281 283 281c66 0 129 -15 172 -39l-35 -88c-32 18 -76 32 -123 32c-101 0 -161 -68 -161 -186c0 -117 56 -190 138 -190c27 0 48 4 61 10v143h-88v85h215v-291z" />
    <glyph glyph-name="h.sc" horiz-adv-x="567" 
d="M506 0h-136v227h-173v-227h-136v539h136v-221h173v221h136v-539z" />
    <glyph glyph-name="i.sc" horiz-adv-x="262" 
d="M199 0h-136v539h136v-539z" />
    <glyph glyph-name="j.sc" horiz-adv-x="262" 
d="M199 68c0 -201 -114 -272 -246 -291v113c58 18 110 67 110 178v471h136v-471z" />
    <glyph glyph-name="k.sc" horiz-adv-x="540" 
d="M533 0h-156l-178 265h-2v-265h-136v539h136v-243h2l170 243h155l-190 -256z" />
    <glyph glyph-name="l.sc" horiz-adv-x="403" 
d="M376 0h-315v539h137v-432h178v-107z" />
    <glyph glyph-name="m.sc" horiz-adv-x="774" 
d="M739 0h-128l-37 338c-4 35 -6 77 -6 77h-2s-7 -42 -18 -77l-108 -338h-106l-108 338c-11 35 -19 77 -19 77h-2s-1 -42 -5 -77l-37 -338h-128l73 539h163l99 -310c10 -31 16 -71 16 -71h2s6 40 16 71l98 310h164z" />
    <glyph glyph-name="n.sc" horiz-adv-x="597" 
d="M536 0h-132l-193 315c-18 30 -33 64 -33 64h-2s2 -38 2 -72v-307h-117v539h137l187 -306c18 -29 33 -64 33 -64h2s-2 39 -2 74v296h118v-539z" />
    <glyph glyph-name="o.sc" horiz-adv-x="572" 
d="M530 270c0 -161 -87 -282 -244 -282s-244 121 -244 282s87 281 244 281s244 -120 244 -281zM394 271c0 108 -36 173 -108 173s-108 -65 -108 -173s36 -172 108 -172s108 64 108 172z" />
    <glyph glyph-name="p.sc" horiz-adv-x="525" 
d="M494 371c0 -108 -84 -178 -241 -178c-23 0 -45 3 -58 5v-198h-134v512c50 25 124 39 192 39c157 0 241 -68 241 -180zM360 371c0 59 -35 90 -106 90c-22 0 -46 -4 -59 -10v-165c11 -2 30 -4 49 -4c77 0 116 33 116 89z" />
    <glyph glyph-name="q.sc" horiz-adv-x="572" 
d="M531 270c0 -100 -34 -184 -97 -233l93 -130l-102 -82l-100 168c-12 -3 -25 -5 -39 -5c-157 0 -244 121 -244 282s87 281 244 281s245 -120 245 -281zM394 271c0 108 -36 173 -108 173s-108 -65 -108 -173s36 -172 108 -172s108 64 108 172z" />
    <glyph glyph-name="r.sc" horiz-adv-x="554" 
d="M532 0h-142l-62 155c-13 33 -39 54 -77 54h-56v-209h-134v512c50 25 136 39 206 39c146 0 235 -62 235 -169c0 -71 -49 -121 -105 -138v-2c30 -17 54 -47 67 -78zM369 377c0 57 -38 88 -101 88c-26 0 -53 -4 -73 -11v-163h71c73 0 103 35 103 86z" />
    <glyph glyph-name="s.sc" horiz-adv-x="463" 
d="M424 155c0 -101 -75 -167 -219 -167c-67 0 -134 18 -174 39l44 104c27 -17 87 -35 126 -35c49 0 81 23 81 59c0 40 -35 57 -83 74c-68 25 -154 57 -154 163c0 95 72 159 198 159c69 0 125 -17 166 -39l-42 -93c-23 14 -71 31 -107 31c-48 0 -76 -24 -76 -56
c0 -41 35 -57 82 -74c71 -26 158 -56 158 -165z" />
    <glyph glyph-name="t.sc" horiz-adv-x="459" 
d="M431 432h-133v-432h-137v432h-133v107h403v-107z" />
    <glyph glyph-name="u.sc" horiz-adv-x="564" 
d="M503 179c0 -117 -84 -191 -221 -191s-221 74 -221 191v360h136v-361c0 -51 36 -83 85 -83s85 32 85 83v361h136v-360z" />
    <glyph glyph-name="v.sc" horiz-adv-x="568" 
d="M553 539l-190 -539h-158l-190 539h154l94 -335c12 -41 20 -89 20 -89h2s9 48 20 89l94 335h154z" />
    <glyph glyph-name="w.sc" horiz-adv-x="827" 
d="M802 539l-152 -539h-142l-79 307c-10 37 -15 81 -15 81h-2s-5 -44 -15 -81l-78 -307h-142l-152 539h137l74 -330c9 -40 13 -88 13 -88h2s7 48 17 88l83 330h125l83 -330c10 -40 17 -88 17 -88h2s4 48 13 88l74 330h137z" />
    <glyph glyph-name="x.sc" horiz-adv-x="551" 
d="M544 0h-157l-111 187h-2l-110 -187h-157l184 279l-169 260h154l98 -172h2l99 172h153l-168 -260z" />
    <glyph glyph-name="y.sc" horiz-adv-x="541" 
d="M536 539l-197 -336v-203h-137v203l-197 336h157l108 -216h2l108 216h156z" />
    <glyph glyph-name="z.sc" horiz-adv-x="474" 
d="M436 0h-411l217 432h-199v107h389l-216 -432h220v-107z" />
    <glyph glyph-name="exclamdown.sc" horiz-adv-x="293" 
d="M232 647c0 -47 -39 -86 -86 -86s-85 39 -85 86s38 86 85 86s86 -39 86 -86zM227 0h-161l21 471h119z" />
    <glyph glyph-name="cent.sc" horiz-adv-x="465" 
d="M428 27c-29 -20 -71 -34 -112 -38l10 -115h-104l11 120c-105 18 -180 94 -180 217s75 198 180 216l-11 112h104l-10 -108c41 -4 83 -17 112 -37l-37 -88c-20 14 -54 27 -86 27c-66 0 -113 -43 -113 -121s47 -122 113 -122c32 0 66 12 86 26z" />
    <glyph glyph-name="sterling.sc" horiz-adv-x="561" 
d="M496 0h-441c68 61 111 129 111 201c0 17 -2 30 -5 42h-91v79h71c-4 16 -8 33 -8 56c0 117 77 173 208 173c65 0 112 -14 152 -39l-43 -84c-24 16 -58 26 -95 26c-59 0 -90 -29 -90 -81c0 -21 3 -37 7 -51h142v-79h-128c2 -11 4 -25 4 -41c0 -34 -16 -72 -37 -100h243
v-102z" />
    <glyph glyph-name="yen.sc" horiz-adv-x="608" 
d="M555 539l-112 -196h94v-59h-127l-40 -67h167v-59h-167v-158h-132v158h-168v59h168l-40 67h-128v59h95l-112 196h148l102 -207h2l101 207h149z" />
    <glyph glyph-name="ordfeminine.sc" horiz-adv-x="450" 
d="M438 333h-115l-30 87h-137l-29 -87h-115l147 391h131zM277 484l-41 123c-7 21 -10 47 -10 47h-2s-4 -26 -11 -47l-41 -123h105z" />
    <glyph glyph-name="questiondown.sc" horiz-adv-x="501" 
d="M355 647c0 -47 -39 -86 -86 -86s-86 39 -86 86s39 86 86 86s86 -39 86 -86zM475 27c-50 -23 -124 -39 -195 -39c-154 0 -240 65 -240 189c0 100 89 160 165 187l8 107h113l11 -174c-81 -18 -153 -55 -153 -113c0 -53 35 -84 115 -84c45 0 100 14 133 30z" />
    <glyph glyph-name="germandbls.sc" horiz-adv-x="916" 
d="M877 155c0 -101 -75 -167 -219 -167c-67 0 -135 18 -175 39l45 104c27 -17 87 -35 126 -35c49 0 81 23 81 59c0 40 -35 57 -83 74c-68 25 -155 57 -155 163c0 95 73 159 199 159c69 0 125 -17 166 -39l-42 -93c-23 14 -71 31 -107 31c-48 0 -76 -24 -76 -56
c0 -41 35 -57 82 -74c71 -26 158 -56 158 -165zM424 155c0 -101 -75 -167 -219 -167c-67 0 -134 18 -174 39l44 104c27 -17 87 -35 126 -35c49 0 81 23 81 59c0 40 -35 57 -83 74c-68 25 -154 57 -154 163c0 95 72 159 198 159c69 0 125 -17 166 -39l-42 -93
c-23 14 -71 31 -107 31c-48 0 -76 -24 -76 -56c0 -41 35 -57 82 -74c71 -26 158 -56 158 -165z" />
    <glyph glyph-name="agrave.sc" horiz-adv-x="575" 
d="M568 0h-145l-40 123h-190l-41 -123h-145l202 539h158zM361 202l-58 180c-9 28 -14 61 -14 61h-2s-6 -33 -15 -61l-58 -180h147zM346 601h-93l-108 132c6 19 30 30 56 30s55 -9 75 -30z" />
    <glyph glyph-name="aacute.sc" horiz-adv-x="575" 
d="M568 0h-145l-40 123h-190l-41 -123h-145l202 539h158zM361 202l-58 180c-9 28 -14 61 -14 61h-2s-6 -33 -15 -61l-58 -180h147zM430 733l-107 -132h-94l70 132c20 21 50 30 76 30s49 -11 55 -30z" />
    <glyph glyph-name="acircumflex.sc" horiz-adv-x="575" 
d="M568 0h-145l-40 123h-190l-41 -123h-145l202 539h158zM361 202l-58 180c-9 28 -14 61 -14 61h-2s-6 -33 -15 -61l-58 -180h147zM436 636l-53 -45l-95 83l-96 -83l-53 45l104 104c12 13 28 20 45 20s32 -7 44 -20z" />
    <glyph glyph-name="atilde.sc" horiz-adv-x="575" 
d="M568 0h-145l-40 123h-190l-41 -123h-145l202 539h158zM361 202l-58 180c-9 28 -14 61 -14 61h-2s-6 -33 -15 -61l-58 -180h147zM436 707c-6 -58 -39 -101 -90 -101c-52 0 -69 45 -105 45c-25 0 -41 -20 -46 -50l-61 36c6 58 38 101 89 101c52 0 69 -45 105 -45
c25 0 41 19 46 50z" />
    <glyph glyph-name="adieresis.sc" horiz-adv-x="575" 
d="M568 0h-145l-40 123h-190l-41 -123h-145l202 539h158zM361 202l-58 180c-9 28 -14 61 -14 61h-2s-6 -33 -15 -61l-58 -180h147zM456 671c0 -34 -30 -63 -67 -63s-66 29 -66 63s29 62 66 62s67 -28 67 -62zM253 671c0 -34 -30 -63 -67 -63s-67 29 -67 63s30 62 67 62
s67 -28 67 -62z" />
    <glyph glyph-name="aring.sc" horiz-adv-x="575" 
d="M568 0h-145l-40 123h-190l-41 -123h-145l202 539h158zM361 202l-58 180c-9 28 -14 61 -14 61h-2s-6 -33 -15 -61l-58 -180h147zM392 689c0 -55 -45 -98 -104 -98s-105 43 -105 98s46 97 105 97s104 -42 104 -97zM333 689c0 25 -20 44 -45 44s-46 -19 -46 -44
s21 -45 46 -45s45 20 45 45z" />
    <glyph glyph-name="ae.sc" horiz-adv-x="736" 
d="M704 0h-306l-21 123h-185l-58 -123h-148l278 539h399v-93h-220l29 -127h177v-91h-158l30 -135h183v-93zM368 202l-30 180c-5 28 -6 60 -6 60h-2s-9 -31 -22 -60l-83 -180h143z" />
    <glyph glyph-name="ccedilla.sc" horiz-adv-x="457" 
d="M366 -126c0 -59 -69 -89 -184 -89c-26 0 -55 2 -86 5l29 53c19 -2 35 -3 51 -3c56 0 91 13 91 34c0 19 -18 26 -57 26c-16 0 -35 -1 -57 -3l26 48c22 2 41 3 58 3c96 0 129 -30 129 -74zM426 25c-35 -23 -79 -37 -143 -37c-126 0 -241 90 -241 282s115 281 241 281
c64 0 109 -14 143 -37l-43 -98c-20 15 -49 23 -80 23c-67 0 -120 -56 -120 -168s55 -168 120 -168c31 0 60 9 80 24z" />
    <glyph glyph-name="egrave.sc" horiz-adv-x="430" 
d="M389 0h-328v539h328v-93h-195v-128h178v-91h-178v-134h195v-93zM287 601h-93l-108 132c6 19 30 30 56 30s55 -9 75 -30z" />
    <glyph glyph-name="eacute.sc" horiz-adv-x="430" 
d="M389 0h-328v539h328v-93h-195v-128h178v-91h-178v-134h195v-93zM340 733l-107 -132h-94l70 132c20 21 50 30 76 30s49 -11 55 -30z" />
    <glyph glyph-name="ecircumflex.sc" horiz-adv-x="430" 
d="M389 0h-328v539h328v-93h-195v-128h178v-91h-178v-134h195v-93zM372 636l-53 -45l-95 83l-96 -83l-53 45l104 104c12 13 28 20 45 20s32 -7 44 -20z" />
    </font>
</defs>
</svg>
